<svg viewBox="0 0 2083 400" xmlns="http://www.w3.org/2000/svg"><g><g><g><g><g><line x1="61.91500186920166" y1="376.8999996185303" x2="56.91500186920166" y2="376.8999996185303" style="visibility: inherit;" fill="rgb(0, 0, 0)" stroke="rgb(204, 204, 204)" stroke-width="1px"></line><line x1="61.91500186920166" y1="329.787499666214" x2="56.91500186920166" y2="329.787499666214" style="visibility: inherit;" fill="rgb(0, 0, 0)" stroke="rgb(204, 204, 204)" stroke-width="1px"></line><line x1="61.91500186920166" y1="282.6749997138977" x2="56.91500186920166" y2="282.6749997138977" style="visibility: inherit;" fill="rgb(0, 0, 0)" stroke="rgb(204, 204, 204)" stroke-width="1px"></line><line x1="61.91500186920166" y1="235.56249976158142" x2="56.91500186920166" y2="235.56249976158142" style="visibility: inherit;" fill="rgb(0, 0, 0)" stroke="rgb(204, 204, 204)" stroke-width="1px"></line><line x1="61.91500186920166" y1="188.44999980926517" x2="56.91500186920166" y2="188.44999980926517" style="visibility: inherit;" fill="rgb(0, 0, 0)" stroke="rgb(204, 204, 204)" stroke-width="1px"></line><line x1="61.91500186920166" y1="141.33749985694885" x2="56.91500186920166" y2="141.33749985694885" style="visibility: inherit;" fill="rgb(0, 0, 0)" stroke="rgb(204, 204, 204)" stroke-width="1px"></line><line x1="61.91500186920166" y1="94.22499990463257" x2="56.91500186920166" y2="94.22499990463257" style="visibility: inherit;" fill="rgb(0, 0, 0)" stroke="rgb(204, 204, 204)" stroke-width="1px"></line><line x1="61.91500186920166" y1="47.11249995231633" x2="56.91500186920166" y2="47.11249995231633" style="visibility: inherit;" fill="rgb(0, 0, 0)" stroke="rgb(204, 204, 204)" stroke-width="1px"></line><line x1="61.91500186920166" y1="0" x2="56.91500186920166" y2="0" style="visibility: inherit;" fill="rgb(0, 0, 0)" stroke="rgb(204, 204, 204)" stroke-width="1px"></line></g><g transform="translate(51.91500186920166, 0)"><text style="text-anchor: end; visibility: hidden; font-family: Roboto, sans-serif; font-size: 12px; font-weight: 200;" x="0" y="376.8999996185303" dx="0em" dy="0.3em" fill="rgb(33, 33, 33)" stroke="none" stroke-width="1px">0.01</text><text style="text-anchor: end; visibility: inherit; font-family: Roboto, sans-serif; font-size: 12px; font-weight: 200;" x="0" y="329.787499666214" dx="0em" dy="0.3em" fill="rgb(33, 33, 33)" stroke="none" stroke-width="1px">0.015</text><text style="text-anchor: end; visibility: inherit; font-family: Roboto, sans-serif; font-size: 12px; font-weight: 200;" x="0" y="282.6749997138977" dx="0em" dy="0.3em" fill="rgb(33, 33, 33)" stroke="none" stroke-width="1px">0.02</text><text style="text-anchor: end; visibility: inherit; font-family: Roboto, sans-serif; font-size: 12px; font-weight: 200;" x="0" y="235.56249976158142" dx="0em" dy="0.3em" fill="rgb(33, 33, 33)" stroke="none" stroke-width="1px">0.025</text><text style="text-anchor: end; visibility: inherit; font-family: Roboto, sans-serif; font-size: 12px; font-weight: 200;" x="0" y="188.44999980926517" dx="0em" dy="0.3em" fill="rgb(33, 33, 33)" stroke="none" stroke-width="1px">0.03</text><text style="text-anchor: end; visibility: inherit; font-family: Roboto, sans-serif; font-size: 12px; font-weight: 200;" x="0" y="141.33749985694885" dx="0em" dy="0.3em" fill="rgb(33, 33, 33)" stroke="none" stroke-width="1px">0.035</text><text style="text-anchor: end; visibility: inherit; font-family: Roboto, sans-serif; font-size: 12px; font-weight: 200;" x="0" y="94.22499990463257" dx="0em" dy="0.3em" fill="rgb(33, 33, 33)" stroke="none" stroke-width="1px">0.04</text><text style="text-anchor: end; visibility: inherit; font-family: Roboto, sans-serif; font-size: 12px; font-weight: 200;" x="0" y="47.11249995231633" dx="0em" dy="0.3em" fill="rgb(33, 33, 33)" stroke="none" stroke-width="1px">0.045</text><text style="text-anchor: end; visibility: hidden; font-family: Roboto, sans-serif; font-size: 12px; font-weight: 200;" x="0" y="0" dx="0em" dy="0.3em" fill="rgb(33, 33, 33)" stroke="none" stroke-width="1px">0.05</text></g><line x1="61.91500186920166" y1="0" x2="61.91500186920166" y2="376.8999996185303" fill="rgb(0, 0, 0)" stroke="rgb(204, 204, 204)" stroke-width="1px"></line></g></g><g transform="translate(61, 0)" clip-path="url(#clip_0)"><clipPath id="clip_0"><rect width="2021" height="376"></rect></clipPath><g><g><g><line x1="0" y1="0" x2="0" y2="376.8999996185303" fill="rgb(0, 0, 0)" stroke="rgb(66, 66, 66)" stroke-width="1px" opacity="0.25"></line><line x1="168.42374984423319" y1="0" x2="168.42374984423319" y2="376.8999996185303" fill="rgb(0, 0, 0)" stroke="rgb(66, 66, 66)" stroke-width="1px" opacity="0.25"></line><line x1="336.84749968846637" y1="0" x2="336.84749968846637" y2="376.8999996185303" fill="rgb(0, 0, 0)" stroke="rgb(66, 66, 66)" stroke-width="1px" opacity="0.25"></line><line x1="505.2712495326996" y1="0" x2="505.2712495326996" y2="376.8999996185303" fill="rgb(0, 0, 0)" stroke="rgb(66, 66, 66)" stroke-width="1px" opacity="0.25"></line><line x1="673.6949993769327" y1="0" x2="673.6949993769327" y2="376.8999996185303" fill="rgb(0, 0, 0)" stroke="rgb(66, 66, 66)" stroke-width="1px" opacity="0.25"></line><line x1="842.118749221166" y1="0" x2="842.118749221166" y2="376.8999996185303" fill="rgb(0, 0, 0)" stroke="rgb(66, 66, 66)" stroke-width="1px" opacity="0.25"></line><line x1="1010.5424990653992" y1="0" x2="1010.5424990653992" y2="376.8999996185303" fill="rgb(0, 0, 0)" stroke="rgb(66, 66, 66)" stroke-width="1px" opacity="0.25"></line><line x1="1178.9662489096324" y1="0" x2="1178.9662489096324" y2="376.8999996185303" fill="rgb(0, 0, 0)" stroke="rgb(66, 66, 66)" stroke-width="1px" opacity="0.25"></line><line x1="1347.3899987538655" y1="0" x2="1347.3899987538655" y2="376.8999996185303" fill="rgb(0, 0, 0)" stroke="rgb(66, 66, 66)" stroke-width="1px" opacity="0.25"></line><line x1="1515.8137485980988" y1="0" x2="1515.8137485980988" y2="376.8999996185303" fill="rgb(0, 0, 0)" stroke="rgb(66, 66, 66)" stroke-width="1px" opacity="0.25"></line><line x1="1684.237498442332" y1="0" x2="1684.237498442332" y2="376.8999996185303" fill="rgb(0, 0, 0)" stroke="rgb(66, 66, 66)" stroke-width="1px" opacity="0.25"></line><line x1="1852.661248286565" y1="0" x2="1852.661248286565" y2="376.8999996185303" fill="rgb(0, 0, 0)" stroke="rgb(66, 66, 66)" stroke-width="1px" opacity="0.25"></line><line x1="2021.0849981307983" y1="0" x2="2021.0849981307983" y2="376.8999996185303" fill="rgb(0, 0, 0)" stroke="rgb(66, 66, 66)" stroke-width="1px" opacity="0.25"></line></g><g><line x1="0" y1="376.8999996185303" x2="2021.0849981307983" y2="376.8999996185303" fill="rgb(0, 0, 0)" stroke="rgb(66, 66, 66)" stroke-width="1px" opacity="0.25"></line><line x1="0" y1="329.787499666214" x2="2021.0849981307983" y2="329.787499666214" fill="rgb(0, 0, 0)" stroke="rgb(66, 66, 66)" stroke-width="1px" opacity="0.25"></line><line x1="0" y1="282.6749997138977" x2="2021.0849981307983" y2="282.6749997138977" fill="rgb(0, 0, 0)" stroke="rgb(66, 66, 66)" stroke-width="1px" opacity="0.25"></line><line x1="0" y1="235.56249976158142" x2="2021.0849981307983" y2="235.56249976158142" fill="rgb(0, 0, 0)" stroke="rgb(66, 66, 66)" stroke-width="1px" opacity="0.25"></line><line x1="0" y1="188.44999980926517" x2="2021.0849981307983" y2="188.44999980926517" fill="rgb(0, 0, 0)" stroke="rgb(66, 66, 66)" stroke-width="1px" opacity="0.25"></line><line x1="0" y1="141.33749985694885" x2="2021.0849981307983" y2="141.33749985694885" fill="rgb(0, 0, 0)" stroke="rgb(66, 66, 66)" stroke-width="1px" opacity="0.25"></line><line x1="0" y1="94.22499990463257" x2="2021.0849981307983" y2="94.22499990463257" fill="rgb(0, 0, 0)" stroke="rgb(66, 66, 66)" stroke-width="1px" opacity="0.25"></line><line x1="0" y1="47.11249995231633" x2="2021.0849981307983" y2="47.11249995231633" fill="rgb(0, 0, 0)" stroke="rgb(66, 66, 66)" stroke-width="1px" opacity="0.25"></line><line x1="0" y1="0" x2="2021.0849981307983" y2="0" fill="rgb(0, 0, 0)" stroke="rgb(66, 66, 66)" stroke-width="1px" opacity="0.25"></line></g></g></g><g><g><line x1="0" y1="471.12499952316284" x2="2021.0849981307983" y2="471.12499952316284" fill="rgb(0, 0, 0)" stroke="rgb(153, 153, 153)" stroke-width="1.5px"></line></g></g><g><g><line x1="168.42374984423319" y1="0" x2="168.42374984423319" y2="376.8999996185303" fill="rgb(0, 0, 0)" stroke="rgb(153, 153, 153)" stroke-width="1.5px"></line></g></g><g><g><g><g><g><path style="fill: none;" stroke="rgb(255, 112, 67)" stroke-width="2px" d="M171.48906209139824,64.63387700892845L172.36486559058827,96.64553609979443L174.4196353386879,101.08951585625681L176.5080898367564,115.34653110896966L177.68705608566603,115.93823557711335L181.96501933170956,113.17610389229365L184.45769082940419,108.62416681303696L184.99664682890574,112.9342120645768L185.87245032809577,119.31815059864081L185.9735045780023,121.81312814220726L189.27461007494927,126.9357032150591L189.40934907482466,135.19195227446443L189.4430338247935,135.9023348528137L190.3188373239835,139.66225562853825L191.93570532248816,137.330472252641L194.76522431987127,139.03923612618948L196.92104831787745,143.10089067168698L197.76316706709864,146.33735413478334L201.97376081320445,145.64198885126362L204.16326956117948,145.45945645763558L206.25172405924798,147.1843192535458L206.3527783091545,151.6373899287055L206.68962580884298,153.02949263076948L208.47491755719187,153.70598661773872L209.35072105638187,157.76407844538045L209.72125330603916,156.19019287452863L209.99073130578995,156.54359764537872L210.26020930554074,154.92555938462772L214.47080305164656,155.8539592498363L215.61608455058735,158.0418343850972L216.35714904990198,156.4170121655867L216.9634745493412,158.31794309559928L218.984559547472,156.21657917078096L222.8919905438582,152.8007066418928L224.13832629270553,153.56530162626723L230.23526603706676,156.32004258038063L230.3700050369422,156.671929291847L231.6837102857272,155.53178410010503L233.7721647837957,152.43900250368984L242.7659930254777,153.66286495958153L242.79967777544655,154.394213059959L248.2229225204309,154.1107868293021L249.0987260196209,155.53735702512552L249.26714976946514,154.45269229950725L249.70505151906013,153.92553519653634L252.60194001638095,155.16975758595996L253.3093197657267,155.77964492205706L254.3198622647921,158.18266366755873L254.92618776423134,159.74144630849733L257.0483270122687,160.46035981837065L257.9578152614275,160.8280884213775L258.42940176099137,161.85743408910832L259.23783576024374,162.4192289192767L261.3262902583122,161.84686846783555L264.3579177555084,163.117444829183L265.63793825432464,164.17748156034693L269.27589125096006,165.4978776319697L269.94958625033695,165.84575876639082L270.0843252502123,167.03811442185037L271.86961699856124,168.4664091013973L273.2506917472839,169.0507964867172L273.452800247097,169.18232794247382L276.65285149413745,169.69795264702253L277.52865499332745,169.8776872825915L277.93287199295366,170.56901828238398L280.3244892407417,171.41450974540749L281.6045097395579,171.23295683824531L282.81716073843637,171.52801738187733L285.545625485913,171.67063600097075L285.91615773557027,172.1570507148064L286.4551137350718,173.2946741052585L287.735134233888,173.15680592051984L288.03829698360767,173.39261172288437L289.5541107322057,173.1393542824045L290.16043623164495,173.32677197561722L297.60476597476,173.5548202338659L299.12057972335816,174.25002278290108L300.63639347195624,174.8837653960668L301.44482747120855,175.29560792126588L302.08483772061663,174.85661565336486L302.9943259697755,175.02653754015728L304.206976968654,175.09118144982855L304.7459329681555,175.98211123366977L306.22806196678476,176.10218596281882L309.697591213576,175.72634476311572L313.436598460118,176.12230659615182L318.4219414555073,176.2314378536016L321.85778595232966,177.06921665295897L322.02620970217384,177.2622349776139L322.29568770192463,176.86835143899387L322.4641114517689,176.661969593174L323.30623020099006,176.63420192610937L324.1146642002423,176.3791346711705L324.5862506998062,177.43141388877814L326.6747051978747,178.3058438321432L327.9547256966909,178.05589964771414L335.6011639396191,178.08969608096743L335.73590293949445,178.96611411959816L336.24117418902716,179.4411500813493L336.712760688591,179.99858541993515L337.9254116874695,180.91733752639885L338.6327914368153,181.42061902427548L340.3170289352576,180.85896584706194L341.0244086846034,181.0786949212606L341.39494093426066,182.19254029277124L342.5065376832326,182.62942585508208L343.0118089327653,183.07651261681383L343.92129718192416,182.93927603948077L344.59499218130117,183.11673305043965L348.97400967725116,185.34306276347752L354.1614611724535,186.1077100545487L355.67727492105166,186.47647060717847L357.69835991918245,187.20398345171387L359.14680416784284,187.11540938760353L360.25840091681476,187.00239365803301L362.2794859149456,187.0611912661906L363.290028414011,186.4167920721623L364.5026794128895,186.31448216178518L369.72381565806074,186.45442906629737L370.0269784077803,186.79131610665115L370.49856490734413,187.2730766853341L370.97015140690803,187.40192987499074L374.00177890410424,187.31545452316115L374.77652815338774,188.19295109418735L375.55127740267113,188.3348458131069L377.4713081508954,188.6944321162657L377.94289465045927,190.35876356615992L379.69450164883926,190.0158716241936L383.2987698955059,190.0532724120712L384.30931239457135,190.16258502817956L384.34299714454016,189.7036261270879L384.4440513944467,190.14865345837643L384.74721414416626,190.84947528641734L385.0503768938859,190.59371796224738L388.01463489114445,191.3086104711333L388.31779764086406,192.2066105479326L392.7641846367518,192.6986101136667L394.1115746355057,192.57956988264584L394.1789441354434,193.50983659821438L396.7053003831069,194.302040007309L397.0758326327642,194.59481968426775L397.3116258825461,194.948221944993L399.1306023808638,195.3936968488245L401.4885348786831,196.38133409379418L403.1390876271565,196.79922138224387L403.3748808769385,197.5006482373843L405.42965062503816,198.40469445387436L407.8212678728263,198.46659789674027L411.32448186958635,198.8849922940273L411.66132936927477,199.38851887762485L414.0866313670317,199.79570534459776L414.2213703669071,199.76891319498273L417.35405211400985,200.55477029011072L417.9266928634803,201.0415813546982L418.8698658626079,201.87145874121416L419.1730286123276,202.13658678519437L421.6993848599911,202.15009880723449L425.00049035693803,202.24026233778312L426.1794566058477,202.4110782293645L428.73949760348006,202.80175649345117L430.28899610204695,203.31613275727665L433.5901015989939,204.92865441593077L437.49753259538016,204.88169938289437L437.56490209531785,205.24936782002487L438.91229209407174,205.52698586610077L444.4702758389314,205.56839488735085L444.9418623384953,206.48703599301393L445.98608958752953,207.16806609578109L448.1082288355669,207.33072924758028L450.87037833301224,207.7405902270881L451.1735410827319,207.75573094849196L456.0915145781835,207.09419273177022L456.2936230779966,207.542970892032L459.2578810752551,207.04875626864347L459.76315232478777,207.8519058824009L460.33579307425816,207.69280542520588L463.6032138212363,207.73822360200143L463.73795282111166,208.07361903483167L465.25376656970974,208.3904278978L471.8222928136349,209.22382742000138L473.2370523123264,209.7390080545019L473.40547606217064,209.84547804862697L474.2812795613607,210.05671603159828L474.8876050607999,210.1535385549452L476.9086900589307,210.50230889233265L477.27922230858803,210.80203378523314L479.09819880690577,211.22131767893507L482.83720605344774,212.70016629792178L482.9719450533231,212.74269606107646L486.3741048001766,213.1249986795248L487.24990829936667,212.70039247929415L487.2835930493355,213.36051816974344L488.3951897983074,213.6498379061434L489.7088950470924,212.96082997819906L491.763664795192,212.2068076707478L491.79734954516096,212.755136567908L491.86471904509864,213.16606972946687L492.94263104410174,212.89993924743703L493.04368529400824,212.84110057409077L496.5132145407995,212.75085834184347L496.74900779058135,213.05352600730225L498.1974520392418,213.30805493921486L498.33219103911716,213.44371146439812L498.365875789086,213.18128671201285L498.3995605390549,213.25143584235752L498.60166903886795,213.84131038430934L499.17430978833835,214.06956129301219L499.84800478771524,214.63862346792473L501.4985575361888,214.39701812259383L502.20593728553456,214.6834146956919L504.32807653357185,214.89096897063027L505.70915128229456,214.34128733497835L505.94494453207653,214.3018635545155L507.0902260310173,215.16190344117135L507.3933887807369,214.87702776881235L509.51552802877427,214.94723728586808L509.61658227868077,215.28756700668515L515.511413523229,215.21798033348446L516.6230102722009,215.4844578560725L518.6440952703317,216.18598440405668L525.8526317636648,216.59690359826533L527.3347607622942,216.01536002041075L528.4463575112661,215.85377504610017L529.557954260238,215.59905744484928L530.4337577594281,216.0495978749854L531.1411375087738,216.61517719601193L532.9601140070915,217.17822083840494L538.1812502522628,217.5959287565951L538.2486197522004,218.13286461418423L540.2360200003624,218.18034948351445L545.5918952454091,218.31581165851284L547.3771869937578,218.5471729523339L549.3645872419198,218.83498290133983L550.206705991141,219.3545092251224L551.0825094903311,219.8913145403014L552.4972689890226,219.9309888576901L555.4278422363122,220.34700174479468L557.2131339846611,220.71784323689653L558.5605239834149,220.85907287739283L559.234218982792,221.1738970739599L559.436327482605,221.81726718699036L563.2763889790535,221.8608998865435L564.6911484777451,222.2732557511706L569.0364812237264,223.03015537230579L569.3733287234147,222.70951942031542L569.5754372232278,223.44175348163438L571.6975764712652,223.91682233000813L572.1354782208603,223.89310024210948L572.2028477207979,224.03545747463716L573.3481292197387,224.06728032671427L575.470268467776,223.87564942978798L576.5818652167479,224.64277905822124L577.6260924657821,224.70213223986187L578.097678965346,224.4063159023277L579.3776994641622,225.0365003011118L579.5461232140065,225.19280512345603L579.7819164637883,225.49553992148503L580.9271979627291,225.3809888460362L583.150391460673,225.45632375107647L585.777801958243,225.5249174042131L589.1125922051589,225.73599020948748L589.9883957043488,226.18016684831392L590.5947212037881,226.8334548355507L590.9652534534454,226.9553186245129L591.6052637028536,226.61526972546872L597.4664101974329,227.09351262649366L597.6011491973082,227.77168474361432L598.9148544460933,228.2792986886725L601.6096344436011,228.29094024876147L601.7443734434764,228.6895938684137L602.0138514432272,228.92668030076257L602.1822751930714,228.99257953515055L602.2833294429779,229.0472641263033L607.1339334384918,229.24568796717455L609.2223879365603,229.89726565665703L612.0855916839123,230.39856523793972L612.5571781834761,230.90924575276276L613.8708834322612,231.37883845265486L614.342469931825,231.96847118579134L617.0035651793639,231.9079807349387L618.7214874277751,232.34079451085213L619.3278129272143,232.65526130971347L620.7425724259058,232.76477502447906L622.4941794242859,233.4265479011014L622.5952336741924,233.83059577221314L631.4206381660302,233.62819095470954L635.9680794118245,233.76579801398947L637.2144151606719,234.10272420233636L637.4502084104538,234.26591718676067L638.3260119096439,234.84453586993752L640.043934158055,235.23538121791867L640.246042657868,235.15295508965337L644.4903211539428,235.52701355370664L644.8945381535689,235.8384390576191L645.298755153195,235.86700945396282L645.8040264027278,236.0503217377093L646.174558652385,236.4529995895148L647.1514164014816,236.72812103475312L647.4208944012324,237.01018566745375L649.4419793993633,237.0760026470475L650.7556846481482,237.1624658924739L652.1704441468397,237.65625313303906L654.4610071447213,238.30011193284602L658.9073941406091,238.49170962720865L660.018990889581,238.76530563367243L663.0169336368084,238.83303576038912L663.1853573866526,238.98352140340154L663.3874658864656,239.00715105708085L663.7579981361231,238.8428738852293L663.8927371359985,239.17943009083928L664.869594885095,239.64152420776725L665.8464526341916,240.276160796195L667.5980596325714,240.54577586519676L670.124415880235,240.85944127265026L670.4612633799235,240.6983219886279L671.0675888793628,241.10229632431887L672.347609378179,241.60616040002418L673.3918366272131,241.62373357045502L678.916135622104,242.2665733956952L680.229840870889,242.58696434051026L681.0719596201102,243.00028389359616L681.7793393694559,242.94551242906087L683.2614683680853,243.34490737331484L686.9667908646583,243.68013433034758L691.648971110328,243.78433813496824L692.0195033599853,244.05256164315654L695.825880106465,244.18662235329015L698.1164431043466,244.3627545979372L699.2617246032873,245.04018294565768L701.0133316016673,244.95871144583052L703.4723183493933,244.78937011949557L704.9881320979913,244.66729280349224L708.8281935944399,245.03850224609505L710.4787463429133,245.51532794685116L714.3188078393619,245.8160722560488L718.5967710854053,246.1867157040926L720.3146933338165,246.38844641674984L720.6515408335049,246.44979159892122L721.8305070824147,246.5525171000687L722.1336698321343,246.71788218456325L724.6937108297666,246.75995550652274L726.6474263279597,246.74977303456126L729.6790538251558,247.13969819179948L731.8348778231621,247.44044667248676L731.9696168230375,247.31422425217963L734.1591255710125,247.2911373311586L735.3380918199222,246.8517426992058L735.4391460698287,246.84767800305784L737.8644480675856,247.06195415421098L740.5929128150622,246.61101378142865L741.4013468143146,246.58987488374143L742.4792588133176,247.25851369704347L742.8161063130061,247.59577229959152L747.8688188083331,248.1652202954077L752.5846838039716,247.79411336876765L754.4036603022894,247.61917973563595L754.908931551822,247.94461188848277L755.4478875513237,248.85309503889752L755.4815723012924,249.0314300372234L758.2437217987379,249.33189809788112L759.4900575475853,249.27105430761753L763.0269562943141,249.22514422043153L763.262749544096,249.04177668441866L763.2964342940649,249.27966728046212L764.6438242928187,249.944247875111L765.1154107923826,250.0932590252734L766.0922685414791,250.5446053363003L767.4733432902018,251.12076745508455L768.4838857892672,251.86697838963252L769.4607435383638,252.3187106227456L771.7849912862142,252.4120466028571L776.6019105317592,252.85231319373963L778.6903650298277,252.68919279760848L778.9261582796097,252.7536690191501L779.1282667794228,252.60726810405023L779.6335380289554,252.81795613353717L779.9030160287062,253.4905973688605L780.9135585277717,253.59022504656585L781.3514602773666,253.49881251433516L782.0251552767436,253.39150158891465L782.5977960262139,253.73364078590097L788.1220950211049,253.79962894030592L788.6610510206064,254.5648876153223L790.2442342691422,255.00897351062343L793.0737532665253,255.43930449713375L793.579024516058,255.62770033158733L797.7559335121949,256.0306279140956L800.6865067594846,256.2057086907537L800.82124575936,255.8201171130842L802.2023205080826,256.0215836116281L803.0444392573038,256.0085878656217L804.3244597561201,256.19949182291305L808.0297822526932,256.74708409947783L808.265575502475,257.4536102982865L811.3982572495779,257.379778144286L814.665677996556,257.61992844632175L816.9562409944375,257.69134063841085L817.8657292435964,257.80647093334585L819.3815429921945,257.7938303451946L823.0194959888299,258.12375526590785L824.6026792373657,258.6375985931968L825.4784827365557,258.56139658153774L826.8932422352473,258.89021705385795L828.9816967333159,259.4161272598747L831.137520731322,259.3183327104524L834.0344092286429,259.6401931121845L834.0680939786116,259.4692949608366L834.202832978487,259.61169019079773L835.1460059776148,259.749492051829L835.3481144774278,259.51433658661284L837.6386774753094,259.60179968086464L838.4471114745617,259.8109532837266L845.1503767183622,259.97680026725027L848.2493737154961,260.6134212221969L850.9778384629726,260.81845294450255L851.9546962120692,260.4232948404858L852.6957607113839,260.4550550600376L852.9989234611033,260.7514458160857L857.041093457365,260.889362124949L860.2748294543743,261.41985855539434L861.1843177035331,262.16113309229996L862.0601212027232,262.16003742459077L863.0032942018508,262.28106797625446L863.5759349513213,262.6594260307833L866.5738776985487,263.13248505641855L867.2138879479567,263.31442676288515L867.6517896975517,263.93117570667886L868.3591694468975,264.0662545686693L872.5360784430345,264.31308468486657L872.7045021928787,264.50688880957995L873.4455666921933,264.77021914873905L882.8436119335016,265.03355035098485L883.618361182785,265.41552285220513L884.0225781824112,265.6416571856079L884.3931104320685,265.6328392993715L888.031063428704,265.7861658048499L888.468965178299,266.63476997084354L889.2100296776135,266.7038410431755L889.2773991775513,267.3518048729382L890.9953214259625,267.8862378176501L892.5111351745605,267.95973857783923L894.3637964228471,267.6010552709177L903.391309414498,267.90442690272073L904.3007976636569,267.75034731403053L908.1745439100742,268.21505579064313L909.6566729087035,268.2893684591021L909.9935204083919,268.6898067884996L918.3810231506349,268.7110387802788L919.5599893995444,268.7807764843001L925.8590376437187,268.5197393164514L926.7348411429087,268.8899409041255L931.2149128887653,269.33456027894346L933.5728453865845,269.0031907884447L933.7749538863977,269.35982689313965L933.9096928862731,269.87190758073723L935.9307778844039,269.9025681157669L937.3118526331266,270.1949553148223L940.2761106303851,270.3211666102483L948.1246573731264,270.3780126306429L949.4046778719426,270.56488167604516L950.4825898709456,271.18715311353054L951.1899696202914,271.3284433491045L952.4026206191699,271.4410860844552L953.0089461186092,271.71679882780586L953.1100003685157,271.9696496974142L955.4679328663349,272.25206241333666L963.350164359045,272.1230683055977L965.7417816068331,272.29328928833314L965.8428358567396,272.58642483379816L966.3144223563036,272.4159254386261L967.527073355182,272.3507909259436L974.4324470987956,272.62311463355854L977.6998678457737,272.49819514759554L978.1377695953687,272.6621059292708L985.3799908386707,272.6369935212699L986.0536858380476,272.6514481520483L987.2326520869573,273.13891205618825L989.6242693347453,273.5649880343922L990.5000728339354,273.88541036484764L990.8032355836551,273.7299458874381L992.3864188321908,274.02716873414505L993.3632765812873,274.2659251147624L994.4411885802905,274.694554689238L994.6769818300724,275.192733562697L995.3843615794182,275.091614575341L997.2370228277048,275.3136612797731L997.3043923276424,275.406658742476L997.8770330771129,275.1727770109955L998.3486195766767,275.70590162488054L1001.4476165738106,275.82619584530175L1003.1992235721906,275.7982419703108L1012.6309535634676,275.6976145059689L1013.4057028127511,275.3342140266621L1018.289991558234,275.22944311531654L1021.3553038053989,275.65021520245296L1021.4226733053365,276.1595328136598L1023.1742803037166,276.11249121836363L1025.6332670514423,276.30053063536366L1027.4185587997913,276.5965892586382L1028.2269927990437,277.1526108373031L1028.5638402987322,277.174362312507L1028.63120979867,277.13709705529703L1031.022827046458,277.0194482032939L1033.5491832941213,277.5276569764421L1034.9302580428441,277.6530557931151L1035.1997360425949,278.4879576707854L1035.4692140423456,278.3107725983703L1036.109224291754,278.31852494856435L1036.5808107913176,278.1481698432759L1037.5239837904453,278.1940959760861L1039.2419060388565,277.8514984956675L1040.218763787953,278.00139625787557L1040.2861332878908,277.908908118195L1041.5661537867068,277.7000565249022L1041.936686036364,277.73957678897585L1044.0588252844016,277.9177030112645L1045.5409542830307,278.29923232540597L1045.709378032875,278.4430408292019L1049.886287029012,278.61574156302845L1051.4694702775478,278.6396373789092L1051.8063177772362,279.25225186983994L1053.1200230260213,279.3865903357511L1054.2989892749308,279.16061303398664L1054.6358367746195,278.86381038345365L1054.7032062745573,279.23322054923347L1054.8379452744325,279.02607451059964L1056.050596273311,279.46413166734607L1056.7242912726879,279.8484827757967L1058.7790610207876,279.7253719231863L1058.8127457707565,280.01054141656823L1058.8464305207253,279.5741926586068L1062.147536017672,279.448833311479L1064.0338820159275,279.67263900170894L1065.5160110145569,279.8739910525985L1066.0212822640895,280.157273014524L1066.6612925134978,280.2476001962163L1068.547638511753,280.6411357609138L1069.1876487611612,280.62387858419834L1070.6697777597906,280.7612248983325L1075.4193275053979,280.973772763078L1077.4067277535598,281.13317400682956L1078.3499007526873,281.4451617776059L1080.0341382511297,281.4952953269691L1083.335243748077,281.45676223275143L1086.131077995491,282.020568915711L1086.2658169953663,281.95655981256004L1086.9731967447124,282.16624960614604L1092.8343432392915,282.1962366050241L1106.2071889769236,282.5032070077655L1110.6872607227801,282.8812309614438L1111.9335964716277,282.7642081355422L1112.708345720911,283.15430322661115L1114.2241594695092,283.6575302607988L1114.7968002189796,283.78477997950154L1114.897854468886,284.0073955270459L1116.0768207177957,284.2212212128025L1118.434753215615,284.31131200913796L1118.9063397151788,284.60753488102137L1119.8831974642753,284.8553771146775L1125.4074964591662,285.1565335730674L1125.474865959104,284.91093401125767L1125.8790829587301,285.12962273518L1128.4391239563624,285.4397644039382L1131.5381209534962,285.9043300335859L1137.8034844477017,286.0909393523503L1140.3298406953654,286.3410561220596L1141.1382746946176,286.50924544725103L1142.8561969430289,286.23282349059684L1146.0225634401002,286.000969982268L1147.9762789382933,286.0966172268017L1148.1447026881378,286.37205634069244L1149.4247231869538,286.53117976102294L1149.9636791864552,286.31650374168623L1151.4458081850846,286.59238042385886L1153.8374254328728,286.930041729402L1155.0163916817824,287.25973241837875L1155.6227171812216,287.196648121442L1156.4648359304429,286.8426989217612L1158.4859209285737,286.61370514230447L1159.058561678044,286.5535960959325L1159.6312024275144,286.4066753132244L1160.405951676798,286.69013929367156L1160.9785924262683,286.68418513279556L1164.8523386726856,286.983194840041L1165.222870922343,286.74508667193004L1168.7934544190407,286.7645845689331L1174.2840686639627,286.9386281449516L1174.65460091362,287.2763948770273L1174.8567094134332,287.34499875048175L1176.204099412187,287.34510805996285L1177.315696161159,287.3398514421708L1177.8546521606604,287.5891189713838L1178.4946624100685,287.57159859689904L1180.2125846584797,287.79032663036634L1180.347323658355,287.84407111858525L1180.8862796578567,288.3306828908144L1186.511632902654,288.4306018012463L1186.6126871525605,288.18445143276665L1186.7811109024049,288.33114724389605L1189.3411519000372,288.77053549257874L1189.779053649632,289.03635806797314L1190.250640149196,289.1974589594891L1191.395921648137,289.1068314193927L1194.7643966450214,289.14020308232335L1196.1454713937442,289.23479130391036L1197.0549596429032,289.60834236123986L1198.4023496416569,289.65802965851907L1199.5813158905667,289.9339628171253L1199.9855328901926,290.2732004879501L1200.3223803898811,290.3360067693037L1200.9623906392892,290.67865593692227L1203.7582248867036,291.1181260839586L1206.8909066338063,291.3585523297465L1210.3604358805974,291.3825984684179L1211.1351851298807,291.5477271660694L1215.8847348754882,291.68052676010535L1216.4910603749274,292.03415364571265L1217.1984401242732,292.2175010160215L1219.1858403724352,292.67842235208514L1220.2300676214695,292.8652954875318L1220.971132120784,293.154562932527L1222.0153593698185,292.9261776390596L1223.2280103686967,292.59946687797236L1223.3627493685722,292.6875373039057L1225.7543666163604,292.81616770772314L1225.855420866267,293.0713899208888L1230.8407638616561,293.28984731174023L1234.3776626083852,293.9242986277887L1238.0493003549896,293.69626617438274L1240.6093413526216,293.9583119874724L1242.4283178509395,294.029655837627L1244.6178265989145,293.9893630388329L1244.6515113488833,294.1521476277504L1245.0557283485095,294.3967663378604L1245.0894130984782,294.74101979676215L1247.6831388460794,294.7260263392869L1249.8389628440857,294.84676250150824L1250.5126578434626,295.076396983508L1255.7337940886339,294.98600981786814L1257.215923087263,295.4614011432875L1262.8075915820916,295.67224138663175L1264.8960460801602,296.0436021345536L1274.597254071188,296.1988088278347L1274.8667320709387,296.29174547370656L1276.2478068196613,296.2373729123814L1276.2814915696301,296.1533298343642L1277.3930883186022,296.24852689498607L1278.0330985680102,296.38530850086727L1278.9425868171693,296.84308508015937L1279.4815428166708,296.9952752571752L1279.9194445662656,296.9041462254474L1280.08786831611,296.5358363388595L1284.6353095619045,296.6521355497206L1285.376374061219,296.8512394245061L1287.5995675591628,297.0860011762222L1287.6669370591005,297.60696748102384L1288.003784558789,298.0326754455508L1291.304890055736,297.9613833601483L1293.9659853032747,297.9412326189224L1294.134409053119,297.84954286681057L1296.9302433005334,297.6477145662321L1301.4776845463277,297.4299330384744L1304.5429967934926,297.70712302011043L1304.6103662934302,297.97159801929524L1305.6209087924958,298.087237115129L1305.6545935424647,298.5140323676827L1307.1704072910627,298.30424814175336L1309.6293940387886,298.67055198071245L1311.9873265366077,298.5351511900716L1313.9747267847697,298.63439690697936L1315.2884320335547,298.7693846750562L1316.0294965328694,298.8583985644452L1316.2652897826513,299.0145527705251L1316.6358220323086,299.38506672489643L1316.7031915322461,299.23471505566266L1323.0696092763583,299.2366320496931L1324.1812060253303,299.4935652818677L1325.6633350239595,299.7012227011795L1333.2424037669498,299.7195770473687L1333.9834682662647,300.0766670104096L1334.4213700158596,299.9041013594986L1336.071922764333,300.2289247940248L1337.1161500133674,300.1988434167935L1337.857214512682,299.74413534210896L1339.7435605109374,299.7553566484218L1340.3498860103766,299.69119400156575L1342.0678082587879,299.8778695238633L1344.0888932569187,299.96277778674727L1347.4573682538032,300.04485642243L1355.4406539964198,300.0601012012879L1355.6090777462641,300.0602371484838L1358.270172993803,299.52168545175107L1360.4933664917469,299.86159174958544L1361.0660072412172,299.8039104515116L1361.099691991186,300.19290011978353L1361.7397022405942,300.4442045595967L1361.9418107404072,300.5313462660893L1362.884983739535,300.5696131480415L1363.5923634888807,300.84494636714265L1363.8618414886314,300.6104708737759L1365.07449248751,300.76065739289993L1369.5882489833355,300.93779255710405L1370.3293134826502,301.020621725777L1370.396682982588,300.7930252469912L1370.4977372324945,300.8547636263359L1370.9019542321205,300.40408444710124L1371.3735407316844,300.53789525034017L1372.2156594809057,300.644562185204L1372.3167137308121,300.96980689176536L1374.0346359792231,301.05791488781625L1380.2999994734287,301.0593325059317L1381.0410639727434,301.01066100009456L1386.5316782176656,301.0250355320168L1391.8538687127432,301.329451377428L1391.9212382126807,301.18165908927773L1392.763356961902,301.1218943152446L1393.1675739615282,301.0043305298995L1393.5044214612167,301.0093467122456L1394.750757210064,300.91036842316424L1395.9634082089424,300.7839955270948L1395.9970929589113,301.1648560021559L1396.3339404585997,300.84578533832615L1396.8728964581014,300.9919533313587L1399.3992527057649,301.20594913059415L1400.2750562049548,301.51120959842376L1401.2182292040825,301.5705892372148L1401.3866529539268,301.6265328314619L1405.731985699908,301.92102177955593L1407.2141146985373,302.0406446020303L1408.8309826970417,301.76661447832316L1409.5046776964189,301.7564565467561L1409.7404709462007,301.6313570487347L1415.803725940593,301.47012407551637L1418.7006144379138,301.3418215890438L1421.3617096854528,301.28734194107267L1421.3953944354216,301.5830944666265L1422.810153934113,301.64616660256917L1424.2585981827735,301.49722017127215L1425.3028254318078,301.0933659026681L1426.8186391804059,301.27691432604547L1430.8608091766675,301.1159470716356L1431.837666925764,300.8674720241752L1432.2418839253903,301.2550412318085L1434.9703486728667,301.3579747436961L1435.7787826721192,301.3467015705172L1436.1156301718077,301.835555006662L1436.7219556712469,302.0254694392144L1437.1261726708728,302.30663213993523L1437.4967049205304,302.308304053986L1438.1030304199696,302.40437107450225L1438.473562669627,302.49154524171234L1442.3809936660132,302.45694779368245L1443.5599599149227,302.6449820593453L1444.2336549142997,302.497193113451L1451.5432456575393,302.6311929281207L1452.2169406569164,302.6994876354821L1453.6317001556079,302.61701634267126L1454.069601905203,302.9651258266972L1456.6633276528041,302.98016655432923L1456.8654361526171,302.8250273529328L1458.0780871514958,302.52147221974013L1459.6949551500002,302.72518509143686L1463.265538646698,302.7280299818855L1463.8718641461373,302.96620130312476L1465.657155894486,303.0684051009943L1466.4655898937385,303.5533912869668L1471.2151396393458,303.7381260478543L1472.3941058882556,303.83301840137165L1472.6635838880063,303.9603936045076L1472.8656923878193,303.9898330677601L1473.5057026372274,304.1318283559927L1474.280451886511,304.25453570312385L1476.7057538842678,304.45060741485753L1479.8047508814016,304.7146820091673L1480.8152933804672,304.69562297021787L1481.7247816296258,304.8788216850582L1481.8258358795324,304.8104661336805L1483.8132361276944,304.7006209548355L1483.8469208776633,304.44576416182883L1484.8237786267598,304.37893424228497L1485.5648431260745,304.7890981674991L1488.2259383736132,304.8370845779383L1488.32699262352,305.194176101543L1489.169111372741,305.27728903352056L1490.8870336211523,305.27993532950126L1491.9649456201553,305.41502907932846L1492.5712711195947,305.5940790582754L1497.2197666152954,305.7360173215968L1497.4218751151086,305.86843485934634L1497.5902988649527,306.06839120904243L1498.4324176141738,306.2281308542653L1499.2408516134262,306.18862196569273L1499.9145466128032,306.22690673154807L1501.3966756114323,306.5415851843981L1501.7335231111208,306.7789613450916L1501.8682621109963,306.72395679269476L1505.3714761077563,306.8199216686277L1506.7188661065102,306.7881042699306L1507.5273001057626,306.7062467495754L1510.0873411033947,306.99277240715395L1511.1989378523667,307.16402189419875L1511.7042091018996,306.9828262732365L1511.9736871016503,306.8214494508185L1513.1526533505598,306.78580259346677L1513.4558161002794,306.73106266395575L1514.7695213490645,307.18033139465996L1514.8032060990336,307.2081910173361L1516.0832265978495,307.37815932609766L1516.7232368472576,307.7307666147885L1517.0263995969774,307.54927754119205L1517.4643013465723,307.79900749834815L1525.3465328392824,307.86223641933225L1525.447587089189,307.78876448718034L1528.4118450864473,307.85814396875634L1528.5802688362917,307.9783329495653L1531.0729403339863,308.0135177666358L1536.597239328877,307.9708001643729L1537.3383038281918,307.5585567123386L1538.9214870767275,307.6583612325392L1541.5488975742976,307.6937346008325L1541.8520603240172,307.67645542050803L1542.087853573799,307.79372517728285L1542.3236468235812,307.8712957308232L1542.9299723230201,307.93465359550055L1545.0857963210265,308.22741327406436L1545.8268608203412,308.2468991978773L1551.3848445652006,308.0562710097536L1553.0017125637055,308.2259173681236L1553.2375058134874,308.1417776020073L1554.5175263123035,307.9244980900268L1556.7070350602785,307.9519850203343L1559.4018150577863,307.866869979212L1563.3092460541725,307.8111638101325L1563.7134630537987,307.63674576329385L1567.4524703003406,307.0604480182842L1568.0924805497489,307.0140293674057L1568.5303822993437,306.7439477439533L1570.046196047942,307.1569456622749L1571.8651725462596,307.3252866165608L1576.5473527919294,307.30334437103784L1577.5578952909946,307.23801129898897L1580.0842515386582,307.52480198062784L1580.1853057885648,307.5751220667091L1581.027424537786,307.9146145744338L1583.2506180357298,308.0526905907022L1583.7222045352935,308.2499410734845L1585.4064420337359,308.4566834073805L1586.2148760329883,308.3663254958425L1587.0906795321782,307.7952933228705L1587.3938422818978,307.9375721169939L1587.798059281524,308.0494879555035L1588.3370152810257,308.2485620718248L1589.4822967799664,308.36297956310034L1592.5139242771627,308.2853843330605L1593.8276295259475,308.4232900803484L1595.4444975244521,308.87829823029125L1595.8823992740472,308.5996742846332L1596.0845077738602,308.39882640204627L1596.118192523829,308.2041202565372L1596.8592570231438,308.2446726142571L1597.1287350228945,308.2911959132171L1598.9477115212123,308.54127136140323L1602.282501768128,308.25769459022706L1603.4951527670066,308.4768658638449L1606.695204014047,308.5340878682179L1607.368899013424,308.67357822847794L1608.211017762645,308.6935579916308L1610.0299942609627,308.8807738023342L1611.9500250091871,309.0117364070232L1613.499523507754,309.1694179842694L1618.1480190034547,309.0444385613456L1623.0323077489377,309.2272089172809L1624.4133824976602,309.46704936594836L1625.4576097466945,309.4144513003466L1625.59234874657,309.3885727878658L1625.996565746196,309.7241111930109L1628.1860744941712,309.61508911509804L1630.3755832421461,309.8156084086501L1630.6787459918658,309.5152175586671L1632.2282444904326,309.5394910649988L1637.6178044854482,309.5398687220621L1638.8978249842644,309.58739924481876L1644.5231782290616,310.0667602780852L1648.0937617257596,310.016086102406L1653.719114970557,310.4524362023619L1655.4370372189683,310.86138133651997L1655.8412542185943,311.17360337917654L1659.4118377152918,311.23766569628054L1667.5972319577215,311.421942676385L1667.6309167076906,311.4367606246114L1671.0667612045129,311.47991490188485L1671.235184954357,311.46744627468985L1671.74045620389,311.247812552194L1671.8415104537964,311.18894418640383L1672.2120427034538,311.25937499825255L1672.7846834529241,311.4798555372103L1672.9194224527994,311.6345330374426L1673.4583784523008,311.5095198273269L1673.963649701834,311.1450447804919L1674.4352362013976,311.10482998265655L1675.7826262001515,311.3769607640908L1676.0184194499334,311.2426073938977L1676.6584296993415,311.3589463778944L1680.6332301956654,311.49560251460946L1680.9027081954162,311.6554123489905L1680.970077695354,311.6663298778203L1681.5764031947929,311.9181763197759L1682.3848371940455,311.73587200823226L1689.054417687877,311.9077552695016L1691.243926435852,311.6200431077531L1691.7155129354157,312.05118456477135L1694.4776624328615,312.0105029466325L1696.8355949306806,312.0172610978328L1701.2482971765994,311.8597650669583L1702.494632925447,312.06008499393096L1704.3136094237645,312.11291904839356L1707.6483996706804,311.9532672831035L1708.423148919964,311.9398491764753L1710.7137119178456,312.3413401336732L1711.0168746675652,312.88880948403295L1711.252667917347,312.8495503664185L1712.6674274160387,313.0765226277404L1712.8358511658828,313.42069605444425L1714.6211429142318,313.30306863612066L1716.069587162892,313.4877138515914L1717.1138144119263,313.7330577717235L1718.6296281605244,313.80597153358696L1721.5265166578451,314.131418073681L1724.9623611546676,314.2855337268653L1725.737110403951,314.3747629123552L1725.8718494038264,314.2979943871313L1726.8150224029541,314.3772914669234L1727.724510652113,314.59302295682215L1727.7918801520507,314.4333348536862L1728.4992599013963,314.6509623731872L1729.27400915068,314.7551658237505L1732.743538397471,315.0810536200795L1741.1647258896828,315.1960786058092L1741.568942889309,315.19114346525174L1742.2089531387169,315.16840836709423L1744.802678886318,315.40050548799303L1747.059557134231,315.0864868517449L1748.609055632798,315.20047246109823L1749.484859131988,315.25528885343516L1750.1922388813337,315.2369566365889L1754.3017783775329,315.55138480150595L1755.7839073761622,315.7399784101051L1761.3082063710528,315.48895246649846L1761.6787386207104,315.2512232250592L1763.3629761191528,315.38233431987874L1766.7651358660062,315.39484603226L1767.1356681156635,315.45476992404093L1770.4030888626417,315.441899827231L1770.8746753622054,315.4826456417561L1771.3462618617693,315.85231839429144L1771.9525873612088,315.63723010763005L1772.0536416111152,315.5237965261127L1772.8620756103674,315.0684040707071L1773.7041943595887,315.198714793926L1777.4768863560994,315.1994531707752L1780.036927353732,315.2296906540349L1787.919158846442,315.03408366294855L1788.0875825962862,315.06738818320645L1788.5928538458188,315.33119064752765L1789.3002335951646,315.6932037488616L1791.2539490933577,315.4770976018728L1791.826589842828,315.55472219192944L1793.1066103416442,315.4020302104986L1793.4097730913638,315.2711273132312L1793.4771425913016,315.5331033360089L1795.363488589557,315.81438235512024L1798.058268587065,316.0182205582521L1800.5509400847595,316.24173317604124L1801.4267435839495,316.19236502926935L1802.4709708329838,316.42301589745125L1804.6267948309899,316.7573078235362L1805.031011830616,316.6941907566904L1814.1595790721733,316.7966665163165L1817.2248913193384,317.05369628970226L1821.6375935652575,317.3003066355256L1821.6712783152261,317.33651740226276L1821.8733868150393,317.60024091376636L1825.8145025613944,317.7814818140493L1828.307174059089,318.05178684380627L1832.6861915550392,318.38178678995337L1832.7872458049458,318.7621875111782L1832.9893543047588,318.879530105057L1833.0904085546654,319.13970412893815L1833.4609408043225,319.0527839288482L1834.1683205536683,319.19867782655916L1835.347286802578,319.1962133615261L1835.58308005236,319.36819515215234L1842.858986045631,319.8582677635818L1844.0042675445716,320.16584907660837L1845.1495490435125,320.1047188346914L1847.002210291799,320.4750413194402L1847.4064272914252,320.6962434225231L1848.1474917907397,320.64460082769216L1848.5853935403347,320.7804074609006L1852.661248286565,320.8754394700222" fill="none"></path></g></g></g></g><g opacity="0.2"><g><g><g><path style="fill: none;" stroke="rgb(255, 112, 67)" stroke-width="2px" d="M171.48906209139824,64.63387700892845L172.36486559058827,128.33707859975135L174.4196353386879,109.84460037446141L176.5080898367564,157.26784450103304L177.68705608566603,118.24647175473577L181.96501933170956,99.77428222407522L184.45769082940419,82.25267770943333L184.99664682890574,141.92155310675997L185.87245032809577,168.14426969668597L185.9735045780023,143.17460816018612L189.27461007494927,175.42689312375433L189.40934907482466,220.73918281785157L189.4430338247935,143.89264542201832L190.3188373239835,185.2528693998927L191.93570532248816,107.03089540422252L194.76522431987127,162.71283169758522L196.92104831787745,202.8302853755393L197.76316706709864,196.65990714289043L201.97376081320445,134.249723717666L204.16326956117948,142.31820059691952L206.25172405924798,178.27878857800152L206.3527783091545,235.51961971078683L206.68962580884298,180.36840126941243L208.47491755719187,167.5282375327656L209.35072105638187,243.86811918762865L209.72125330603916,121.57150097180246L209.99073130578995,164.5891147322311L210.26020930554074,116.85623985250044L214.47080305164656,178.3980987389796L215.61608455058735,212.80426732798364L216.35714904990198,114.54589107773835L216.9634745493412,208.69635073952105L218.984559547472,99.00285550803659L222.8919905438582,57.34525121718598L224.13832629270553,175.4749471426949L230.23526603706676,237.19559576290214L230.3700050369422,167.24791657202098L231.6837102857272,120.47854407789998L233.7721647837957,55.2418611682629L242.7659930254777,192.95230615633267L242.79967777544655,178.3618037385526L248.2229225204309,144.6346921425469L249.0987260196209,204.16876004554095L249.26714976946514,116.77269816873232L249.70505151906013,135.27395178097268L252.60194001638095,199.98370780578406L253.3093197657267,178.13046698776532L254.3198622647921,247.74554146245117L254.92618776423134,218.80103330520512L257.0483270122687,188.1380937737776L257.9578152614275,175.20789456701934L258.42940176099137,202.72591092315085L259.23783576024374,185.05749418482824L261.3262902583122,138.44685088986668L264.3579177555084,215.80129013161707L265.63793825432464,208.74129827148116L269.27589125096006,221.75926889851763L269.94958625033695,180.86496531538958L270.0843252502123,219.1817973449844L271.86961699856124,231.717490255999L273.2506917472839,195.24975511227763L273.452800247097,175.1503280286245L276.65285149413745,193.36999702439937L277.52865499332745,178.22462688974343L277.93287199295366,203.03803388620383L280.3244892407417,211.56376107789657L281.6045097395579,162.51815851347683L282.81716073843637,185.84182071968402L285.545625485913,178.66127259362307L285.91615773557027,196.24242688411056L286.4551137350718,230.18832642756445L287.735134233888,166.19434361475203L288.03829698360767,185.4153720154408L289.5541107322057,160.10520791449028L290.16043623164495,183.06149732140457L297.60476597476,185.50726786758574L299.12057972335816,211.01080639537594L300.63639347195624,208.68697862625797L301.44482747120855,197.45093807337634L302.08483772061663,151.04230418601375L302.9943259697755,184.32044943486142L304.206976968654,178.65553349055747L304.7459329681555,225.4971976223761L306.22806196678476,182.82770346227113L309.697591213576,154.51349624812687L313.436598460118,198.6393009742039L318.4219414555073,182.48333972756228L321.85778595232966,225.41326982158216L322.02620970217384,188.48007060323593L322.29568770192463,153.81560727473286L322.4641114517689,164.4995706837889L323.30623020099006,174.98668461277285L324.1146642002423,161.1442488309693L324.5862506998062,240.69613271897748L326.6747051978747,231.2179425784587L327.9547256966909,162.83547650560448L335.6011639396191,180.16061765720008L335.73590293949445,233.00041672660444L336.24117418902716,208.9062228938276L336.712760688591,214.78074773082955L337.9254116874695,238.58079059302793L338.6327914368153,213.19034925225486L340.3170289352576,145.20302130300473L341.0244086846034,195.10599672325563L341.39494093426066,253.69104162910824L342.5065376832326,210.8254877737567L343.0118089327653,212.08501906275228L343.92129718192416,173.98808067936142L344.59499218130117,194.75122537962355L348.97400967725116,332.050824301448L354.1614611724535,236.7485600008732L355.67727492105166,211.01949402845685L357.69835991918245,235.8599643182724L359.14680416784284,181.16313541319138L360.25840091681476,179.3716752688084L362.2794859149456,191.04966185928768L363.290028414011,142.50385268324288L364.5026794128895,179.31094959111138L369.72381565806074,196.0771161447383L370.0269784077803,210.05739570475922L370.49856490734413,220.68863658901708L370.97015140690803,196.37755029237331L374.00177890410424,181.2664041668241L374.77652815338774,249.82974851550063L375.55127740267113,198.34257003986198L377.4713081508954,214.15815157747028L377.94289465045927,308.6857247180609L379.69450164883926,165.54201645040467L383.2987698955059,192.73307943953697L384.30931239457135,198.0248483799346L384.34299714454016,156.56893758275277L384.4440513944467,222.39683586201437L384.74721414416626,241.81936469785896L385.0503768938859,171.92561903517515L388.01463489114445,243.67558719793615L388.31779764086406,258.2177196828455L392.7641846367518,228.9904334565087L394.1115746355057,183.76865310341822L394.1789441354434,262.59714674355445L396.7053003831069,253.33186504122705L397.0758326327642,216.48254097135305L397.3116258825461,221.4536572725819L399.1306023808638,228.9115602785982L401.4885348786831,270.92655097839213L403.1390876271565,228.4389530389957L403.3748808769385,250.77150549224714L405.42965062503816,267.2721814890757L407.8212678728263,203.19634186678962L411.32448186958635,230.94702883252492L411.66132936927477,238.08696446777927L414.0866313670317,231.18012066070233L414.2213703669071,197.6980003175788L417.35405211400985,261.4685617786332L417.9266928634803,238.88015414345497L418.8698658626079,266.5522311928883L419.1730286123276,222.85654328279972L421.6993848599911,203.20889067012874L425.00049035693803,209.3240190665377L426.1794566058477,215.86624554582417L428.73949760348006,233.6545165191158L430.28899610204695,244.04062574430026L433.5901015989939,332.91586684547383L437.49753259538016,201.14562169034303L437.56490209531785,234.57514236408568L438.91229209407174,227.72361859634424L444.4702758389314,208.88709255027564L444.9418623384953,280.2841146498903L445.98608958752953,262.0042991519571L448.1082288355669,220.4583528846638L450.87037833301224,240.8931401560147L451.1735410827319,208.98316548660898L456.0915145781835,153.3457028543111L456.2936230779966,244.08485369453044L459.2578810752551,166.72034030856096L459.76315232478777,273.52947115408165L460.33579307425816,194.6549593847773L463.6032138212363,211.46786364930225L463.73795282111166,235.67217103753313L465.25376656970974,234.51250365203347L471.8222928136349,278.0786317491859L473.2370523123264,252.38721218678688L473.40547606217064,218.67665097056968L474.2812795613607,227.61180261582183L474.8876050607999,218.21543418322887L476.9086900589307,239.59743672200943L477.27922230858803,235.85238238394723L479.09819880690577,246.32880789162553L482.83720605344774,336.7529486664852L482.9719450533231,216.31672125953767L486.3741048001766,245.309336088046L487.24990829936667,176.89180356893786L487.2835930493355,269.1281407275444L488.3951897983074,238.13366707712947L489.7088950470924,154.55414384048126L491.763664795192,148.18159824326835L491.79734954516096,259.39184890603946L491.86471904509864,248.1742542165276L492.94263104410174,190.19102534773566L493.04368529400824,207.81235335968228L496.5132145407995,205.0259398428592L496.74900779058135,239.00304466230884L498.1974520392418,235.1641112346509L498.33219103911716,225.11016795631423L498.365875789086,190.57865174011016L498.3995605390549,219.30240626323115L498.60166903886795,264.79825950155754L499.17430978833835,233.81605384209936L499.84800478771524,263.9405180794745L501.4985575361888,193.43516304789327L502.20593728553456,239.5664420553005L504.32807653357185,232.9490807129444L505.70915128229456,166.4506902183481L505.94494453207653,210.8624146020441L507.0902260310173,290.2954797507435L507.3933887807369,189.95696822699372L509.51552802877427,221.0970430976902L509.61658227868077,245.13661892208756L515.511413523229,209.10693354415787L516.6230102722009,238.91609812840395L518.6440952703317,277.94958090869284L525.8526317636648,252.8199616188605L527.3347607622942,164.68845211251002L528.4463575112661,201.5749662722799L529.557954260238,193.06329725048175L530.4337577594281,255.9579171369179L531.1411375087738,266.77244075302247L532.9601140070915,267.1687021261562L538.1812502522628,254.72527363353842L538.2486197522004,265.91447117087864L540.2360200003624,222.41075362571775L545.5918952454091,230.39749655091495L547.3771869937578,239.20466795288198L549.3645872419198,244.56054987033949L550.206705991141,265.8417407638335L551.0825094903311,267.9757744639875L552.4972689890226,223.48856420174377L555.4278422363122,257.6894764899772L557.2131339846611,254.03986326038793L558.5605239834149,233.56219944839725L559.234218982792,249.51976674686352L559.436327482605,279.80213529702473L563.2763889790535,225.79724565298528L564.6911484777451,259.510369282192L569.0364812237264,291.44654725703174L569.3733287234147,193.699530355162L569.5754372232278,289.7540734774496L571.6975764712652,266.9799260020785L572.1354782208603,221.74080548437394L572.2028477207979,236.96324106722858L573.3481292197387,226.9597913654047L575.470268467776,206.44198893350273L576.5818652167479,294.49411628949963L577.6260924657821,230.11127853013963L578.097678965346,197.4238572292473L579.3776994641622,282.56692626040194L579.5461232140065,239.47414253535587L579.7819164637883,253.1790680036461L580.9271979627291,214.8972322172096L583.150391460673,232.35663678914682L585.777801958243,231.8128436106024L589.1125922051589,245.10034147243448L589.9883957043488,266.96228747430814L590.5947212037881,286.86209205561283L590.9652534534454,238.16167811227527L591.6052637028536,195.32108145741074L597.4664101974329,271.1388275887231L597.6011491973082,290.27692858273025L598.9148544460933,275.0993527779662L601.6096344436011,229.36549349477016L601.7443734434764,265.5132955810527L602.0138514432272,250.8421122556503L602.1822751930714,235.08839719604256L602.2833294429779,234.1092570708872L607.1339334384918,247.62596803986457L609.2223879365603,290.2953217937784L612.0855916839123,276.8981842473876L612.5571781834761,278.3108986909899L613.8708834322612,274.99571545808163L614.342469931825,286.77102108984127L617.0035651793639,226.28212088354448L618.7214874277751,272.6202006598256L619.3278129272143,261.93948414394123L620.7425724259058,242.96950201313047L622.4941794242859,295.1304898003711L622.5952336741924,271.52743682443605L631.4206381660302,214.732693711889L635.9680794118245,246.61986992599748L637.2144151606719,265.5943099533791L637.4502084104538,249.52815601678816L638.3260119096439,288.9901760434144L640.043934158055,271.8308721544081L640.246042657868,227.43083658613L644.4903211539428,270.59068181825126L644.8945381535689,265.04737518630645L645.298755153195,238.5481461535723L645.8040264027278,253.2623815273535L646.174558652385,274.282890776098L647.1514164014816,262.5885293135691L647.4208944012324,263.53734170142377L649.4419793993633,243.26911127439212L650.7556846481482,245.30254393854636L652.1704441468397,284.1678025509954L654.4610071447213,298.9783741227185L658.9073941406091,256.55729361640635L660.018990889581,264.5753295714688L663.0169336368084,245.22560134576497L663.1853573866526,253.19374045062722L663.3874658864656,241.23955733126996L663.7579981361231,223.31539071566394L663.8927371359985,271.00581027332845L664.869594885095,283.359870225243L665.8464526341916,300.3464744990648L667.5980596325714,266.0773950050004L670.124415880235,270.57597426972234L670.4612633799235,225.42708228064214L671.0675888793628,279.4089102077759L672.347609378179,289.4057959201608L673.3918366272131,243.29155871421133L678.916135622104,303.30318317504793L680.229840870889,273.02055136327823L681.0719596201102,282.27763685419393L681.7793393694559,237.7384587504298L683.2614683680853,281.33057954372936L686.9667908646583,275.5759615940181L691.648971110328,253.70302880768253L692.0195033599853,269.59378030990825L695.825880106465,256.95743371057216L698.1164431043466,261.1479442410122L699.2617246032873,309.6233572629407L701.0133316016673,237.1885754533418L703.4723183493933,228.63273113363516L704.9881320979913,233.0156683491243L708.8281935944399,280.48164861014453L710.4787463429133,291.05951759096985L714.3188078393619,274.5522600539284L718.5967710854053,281.6145686162193L720.3146933338165,265.677711230956L720.6515408335049,252.31762336826995L721.8305070824147,256.3819262835889L722.1336698321343,262.5465127608505L724.6937108297666,250.78856484447877L726.6474263279597,245.77444914719283L729.6790538251558,284.50105664582503L731.8348778231621,276.26676005475616L731.9696168230375,235.21200729662635L734.1591255710125,245.07684098618122L735.3380918199222,204.695265711793L735.4391460698287,246.4575779197362L737.8644480675856,267.633113154347L740.5929128150622,203.30585869593102L741.4013468143146,244.559216011523L742.4792588133176,311.50938097710156L742.8161063130061,280.0134466147911L747.8688188083331,302.91759267244595L752.5846838039716,212.1016396456364L754.4036603022894,230.78940533212125L754.908931551822,279.26243144879925L755.4478875513237,336.30569351978255L755.4815723012924,266.2032340538696L758.2437217987379,278.2719886252517L759.4900575475853,243.40914889934712L763.0269562943141,244.80078486349453L763.262749544096,231.36580784857347L763.2964342940649,272.21765610963536L764.6438242928187,314.041852346353L765.1154107923826,264.4689192293078L766.0922685414791,294.09906591976505L767.4733432902018,306.7342366172498L768.4838857892672,323.9127147267428L769.4607435383638,295.9439681706762L771.7849912862142,261.4280721432439L776.6019105317592,295.3915575621465L778.6903650298277,236.92436610303818L778.9261582796097,258.98651378279897L779.1282667794228,238.45144138937854L779.6335380289554,273.1947076926965L779.9030160287062,318.56065010260875L780.9135585277717,263.23027336125426L781.3514602773666,244.65162083611108L782.0251552767436,243.0032346005679L782.5977960262139,286.86203940329113L788.1220950211049,260.1905144231722L788.6610510206064,328.6958710148803L790.2442342691422,298.0372489738324L793.0737532665253,297.14391458227834L793.579024516058,273.8896130345274L797.7559335121949,295.0962306897166L800.6865067594846,273.1841421268082L800.82124575936,218.4196198867915L802.2023205080826,275.5668878439114L803.0444392573038,254.74754556561862L804.3244597561201,274.727609835972L808.0297822526932,309.90411699303286L808.265575502475,326.05261916076665L811.3982572495779,250.20975787200214L814.665677996556,280.9460420875614L816.9562409944375,264.6290349396054L817.8657292435964,268.99350874095086L819.3815429921945,256.5653318708529L823.0194959888299,290.19408892991817L824.6026792373657,308.5949345646717L825.4784827365557,251.15146219642696L826.8932422352473,290.8707239161182L828.9816967333159,310.5743985990808L831.137520731322,249.80361541316222L834.0344092286429,290.96042592152554L834.0680939786116,242.8363091899968L834.202832978487,273.47295766212085L835.1460059776148,273.1659068727252L835.3481144774278,236.61570064244364L837.6386774753094,268.1200769270004L838.4471114745617,280.18437360181167L845.1503767183622,276.13440966876976L848.2493737154961,322.6461192512521L850.9778384629726,280.80005475025405L851.9546962120692,221.90660764541542L852.6957607113839,263.5512594651272L852.9989234611033,289.6501377944087L857.041093457365,274.3385442801376L860.2748294543743,313.16013656712136L861.1843177035331,334.46986501897817L862.0601212027232,262.0531429557232L863.0032942018508,274.0906747003357L863.5759349513213,299.58326154521177L866.5738776985487,309.3048282674139L867.2138879479567,281.0751631311501L867.6517896975517,324.1453326840249L868.3591694468975,277.2560620780001L872.5360784430345,288.4182138727591L872.7045021928787,283.43616343939004L873.4455666921933,290.49376839427543L882.8436119335016,290.760645462212L883.618361182785,302.73868008330055L884.0225781824112,287.74052584012503L884.3931104320685,264.7710031496895L888.031063428704,280.77381634327224L888.468965178299,349.59635052091676L889.2100296776135,273.4572497194796L889.2773991775513,330.7142626658015L890.9953214259625,320.1533301817905L892.5111351745605,275.14893371423614L894.3637964228471,232.51355825859446L903.391309414498,297.5847373703464L904.3007976636569,252.67420244161383L908.1745439100742,313.69050340363157L909.6566729087035,275.56230709192323L909.9935204083919,307.8850057603817L918.3810231506349,270.7894794342264L919.5599893995444,275.6083076703174L925.8590376437187,242.960551118441L926.7348411429087,305.1418724519982L931.2149128887653,312.87862215375145L933.5728453865845,236.54679630410885L933.7749538863977,304.29474924812513L933.9096928862731,320.0390219913742L935.9307778844039,272.9066117391138L937.3118526331266,298.84532170577603L940.2761106303851,282.68960616996895L948.1246573731264,275.9493718595329L949.4046778719426,288.881378796003L950.4825898709456,332.1869568792101L951.1899696202914,285.18016629114516L952.4026206191699,282.4853678140846L953.0089461186092,298.7522324010058L953.1100003685157,296.7657129554886L955.4679328663349,299.9497743565836L963.350164359045,259.4707396347238L965.7417816068331,288.9908956251444L965.8428358567396,301.3438323275293L966.3144223563036,255.68793358200088L967.527073355182,265.9597521675429L974.4324470987956,299.3460803867155L977.6998678457737,260.2388317037213L978.1377695953687,288.74941452704235L985.3799908386707,270.17207830994175L986.0536858380476,274.0703684549324L987.2326520869573,320.9942579624766L989.6242693347453,315.3972810639429L990.5000728339354,305.3472165066383L990.8032355836551,258.4638517360312L992.3864188321908,303.21585052411723L993.3632765812873,297.7148237064996L994.4411885802905,316.7947789865732L994.6769818300724,324.1280100701847L995.3843615794182,265.15808546807307L997.2370228277048,297.12834704582826L997.3043923276424,284.5437752294998L997.8770330771129,252.19185452249636L998.3486195766767,328.09400232549797L1001.4476165738106,287.6479279570241L1003.1992235721906,273.05091420212676L1012.6309535634676,265.80714818847486L1013.4057028127511,239.61374139096333L1018.289991558234,264.93024132129204L1021.3553038053989,317.015936288498L1021.4226733053365,326.23360274123235L1023.1742803037166,271.4872280014292L1025.6332670514423,294.79037335294623L1027.4185587997913,305.7099032492997L1028.2269927990437,331.83341408975105L1028.5638402987322,279.3136095054941L1028.63120979867,273.4718344125912L1031.022827046458,265.4472169173159L1033.5491832941213,327.51956549572265L1034.9302580428441,289.9891836446256L1035.1997360425949,360.62677498216283L1035.4692140423456,260.8779606860952L1036.109224291754,279.0813074621423L1036.5808107913176,261.3852658056997L1037.5239837904453,282.71349277324805L1039.2419060388565,244.13589134503414L1040.218763787953,292.75397460800275L1040.2861332878908,268.8059085187245L1041.5661537867068,257.1429629414782L1041.936686036364,281.6297500356435L1044.0588252844016,295.452546501452L1045.5409542830307,315.85932273765707L1045.709378032875,292.60123022274354L1049.886287029012,295.6193666073797L1051.4694702775478,280.9924814353031L1051.8063177772362,339.5751569866791L1053.1200230260213,292.61534104495985L1054.2989892749308,256.90669442322474L1054.6358367746195,249.63356596483675L1054.7032062745573,315.6160339098433L1054.8379452744325,258.62342337233787L1056.050596273311,322.61236911304076L1056.7242912726879,317.70864778359123L1058.7790610207876,267.5978360988062L1058.8127457707565,308.10372350473426L1058.8464305207253,236.58561861597758L1062.147536017672,267.0979725073357L1064.0338820159275,301.7238592348047L1065.5160110145569,299.7138393030342L1066.0212822640895,308.0712545730177L1066.6612925134978,289.14865953173927L1068.547638511753,319.4228845228104L1069.1876487611612,278.9231574385216L1070.6697777597906,294.297530071036L1075.4193275053979,301.9225866476842L1077.4067277535598,296.8445334810774L1078.3499007526873,312.1975468217545L1080.0341382511297,286.4371351671512L1083.335243748077,277.65825561271237L1086.131077995491,337.6017567446528L1086.2658169953663,275.64614713884765L1086.9731967447124,302.8396321347783L1092.8343432392915,285.1527870838598L1106.2071889769236,312.7700179648529L1110.6872607227801,320.15533097001526L1111.9335964716277,271.22500188857634L1112.708345720911,321.62173323098034L1114.2241594695092,333.28290618006264L1114.7968002189796,296.33391126520564L1114.897854468886,305.96217807335074L1116.0768207177957,305.30993866287287L1118.434753215615,293.1969210397128L1118.9063397151788,313.8249423317122L1119.8831974642753,309.30175688198125L1125.4074964591662,314.8627546940182L1125.474865959104,260.68398953294286L1125.8790829587301,306.70275052887166L1128.4391239563624,316.0356027107174L1131.5381209534962,331.73589321457086L1137.8034844477017,304.5014622631295L1140.3298406953654,311.01795930787733L1141.1382746946176,303.10363087579515L1142.8561969430289,258.9587484584878L1146.0225634401002,263.1236173082587L1147.9762789382933,295.53459636943853L1148.1447026881378,313.55186984058867L1149.4247231869538,302.2336916658509L1149.9636791864552,265.13130298710036L1151.4458081850846,313.81800977602137L1153.8374254328728,320.2541067255293L1155.0163916817824,319.79819027190655L1155.6227171812216,280.9704201125097L1156.4648359304429,251.90791810232815L1158.4859209285737,264.0113354521645L1159.058561678044,280.62047523170037L1159.6312024275144,271.9042870416354L1160.405951676798,314.6713810554031L1160.9785924262683,286.0964219934137L1164.8523386726856,316.5006982190903L1165.222870922343,263.2389609943352L1168.7934544190407,288.6894786341709L1174.2840686639627,304.12124229734115L1174.65460091362,320.6236558207859L1174.8567094134332,294.11835422028213L1176.204099412187,287.3559006300876L1177.315696161159,286.8208301861719L1177.8546521606604,312.2016361520734L1178.4946624100685,285.841602307147L1180.2125846584797,309.3885279081471L1180.347323658355,293.15118372292716L1180.8862796578567,336.3834171220025L1186.511632902654,298.29780776316466L1186.6126871525605,263.8759663330671L1186.7811109024049,302.81839569835824L1189.3411519000372,332.16429883010403L1189.779053649632,315.2895017614177L1190.250640149196,305.1084733292648L1191.395921648137,280.1558535942228L1194.7643966450214,292.4362880496232L1196.1454713937442,298.5773915914054L1197.0549596429032,326.5053150473786L1198.4023496416569,294.56593405630196L1199.5813158905667,317.1901101686902L1199.9855328901926,323.7831987907414L1200.3223803898811,296.5401679600886L1200.9623906392892,324.52714099485127L1203.7582248867036,334.5319859832003L1206.8909066338063,315.11000999673354L1210.3604358805974,293.75814213674073L1211.1351851298807,307.86131221561556L1215.8847348754882,304.80049234885246L1216.4910603749274,326.9715250298942L1217.1984401242732,310.3320926146054L1219.1858403724352,338.21805217018164L1220.2300676214695,311.32897657217455L1220.971132120784,321.7357079566925L1222.0153593698185,270.36006464919393L1223.2280103686967,260.3174591707972L1223.3627493685722,301.38986800747125L1225.7543666163604,305.52651521280956L1225.855420866267,318.29112286781316L1230.8407638616561,314.8770761255213L1234.3776626083852,356.619819220565L1238.0493003549896,271.16202971182L1240.6093413526216,319.854229892972L1242.4283178509395,301.0801319496688L1244.6178265989145,290.00740134793466L1244.6515113488833,310.2397228915652L1245.0557283485095,318.5722160626094L1245.0894130984782,328.76387148835926L1247.6831388460794,293.24418527382784L1249.8389628440857,306.77962291855744L1250.5126578434626,317.7725150498165L1255.7337940886339,286.05236955092255L1257.215923087263,342.4486574435982L1262.8075915820916,316.51184296051736L1264.8960460801602,332.7497575458891L1274.597254071188,311.54004217910636L1274.8667320709387,305.478110178391L1276.2478068196613,290.8628085170889L1276.2814915696301,287.84579538198244L1277.3930883186022,305.65876029415256L1278.0330985680102,309.90638104286603L1278.9425868171693,342.095685054291L1279.4815428166708,312.0399584228986L1279.9194445662656,287.8954991736697L1280.08786831611,260.12568186438244L1284.6353095619045,308.1493379661026L1285.376374061219,316.5346940681363L1287.5995675591628,320.2949298256227L1287.6669370591005,349.11126468107074L1288.003784558789,340.1200295378184L1291.304890055736,290.9130388319932L1293.9659853032747,295.9489876920118L1294.134409053119,288.7843230163312L1296.9302433005334,277.69300614503607L1301.4776845463277,275.89764972884706L1304.5429967934926,325.11353867704L1304.6103662934302,324.12119159452425L1305.6209087924958,309.5210362510987L1305.6545935424647,340.71388629891504L1307.1704072910627,277.56134023923175L1309.6293940387886,334.89015340158215L1311.9873265366077,285.14674961763785L1313.9747267847697,308.44791173170415L1315.2884320335547,312.1172695819319L1316.0294965328694,307.6603909559984L1316.2652897826513,314.4557873488049L1316.6358220323086,336.023591155487L1316.7031915322461,284.36691608090075L1323.0696092763583,299.42619966957295L1324.1812060253303,324.90145512522196L1325.6633350239595,320.2365032993067L1333.2424037669498,301.5346618921534L1333.9834682662647,335.39013984847L1334.4213700158596,282.83848938497L1336.071922764333,332.3521798647128L1337.1161500133674,297.22392856049237L1337.857214512682,254.7750476283213L1339.7435605109374,300.86511741860926L1340.3498860103766,293.345593645427L1342.0678082587879,318.34001932390095L1344.0888932569187,308.36026316684325L1347.4573682538032,308.1625712496239L1355.4406539964198,301.5678504055999L1355.6090777462641,300.07368282032365L1358.270172993803,246.25644605083227L1360.4933664917469,333.4802119802562L1361.0660072412172,294.09885531047826L1361.099691991186,338.66686933576153L1361.7397022405942,325.300314012893L1361.9418107404072,309.1504692109558L1362.884983739535,304.3545973871271L1363.5923634888807,328.0784523398218L1363.8618414886314,277.4180381703312L1365.07449248751,315.6160339098433L1369.5882489833355,318.45889071553154L1370.3293134826502,309.213634446225L1370.396682982588,278.2802199382112L1370.4977372324945,306.961694647005L1370.9019542321205,255.82419779056718L1371.3735407316844,313.7741854935909L1372.2156594809057,311.1959241552321L1372.3167137308121,333.14287733049457L1374.0346359792231,309.7735918875321L1380.2999994734287,301.19956496606414L1381.0410639727434,296.19597973311875L1386.5316782176656,302.44700377184205L1391.8538687127432,331.44333936441734L1391.9212382126807,286.5614121971432L1392.763356961902,295.20966134143794L1393.1675739615282,289.37423962868706L1393.5044214612167,301.5055802597997L1394.750757210064,291.11871635133747L1395.9634082089424,288.28217782425355L1395.9970929589113,338.8428948226003L1396.3339404585997,269.28030593726487L1396.8728964581014,315.4523729432177L1399.3992527057649,322.37673242264776L1400.2750562049548,331.71109397104897L1401.2182292040825,307.44514826487824L1401.3866529539268,307.16119429393615L1405.731985699908,331.05586215362104L1407.2141146985373,313.875435908225L1408.8309826970417,274.65547615523946L1409.5046776964189,300.7514761576012L1409.7404709462007,289.25449069836145L1415.803725940593,285.5182468487975L1418.7006144379138,288.6479008507998L1421.3617096854528,295.8972304597782L1421.3953944354216,330.8444630819851L1422.810153934113,307.8864800253894L1424.2585981827735,286.7604730747268L1425.3028254318078,261.13581665624673L1426.8186391804059,319.43739901282646L1430.8608091766675,285.189573505956L1431.837666925764,276.28278391132767L1432.2418839253903,339.6022466061951L1434.9703486728667,311.5425694905481L1435.7787826721192,300.23128876995344L1436.1156301718077,350.20494115670317L1436.7219556712469,320.81657392750424L1437.1261726708728,330.1264609217007L1437.4967049205304,302.47373360049306L1438.1030304199696,311.9098896375193L1438.473562669627,311.1171913835128L1442.3809936660132,299.0336064081845L1443.5599599149227,321.25065721839434L1444.2336549142997,287.8736484601631L1451.5432456575393,315.8903876074616L1452.2169406569164,309.457239187969L1453.6317001556079,294.4564523287084L1454.069601905203,337.4108569769331L1456.6633276528041,304.4684668081959L1456.8654361526171,287.4737189752841L1458.0780871514958,272.483989103581L1459.6949551500002,322.8831424527833L1463.265538646698,303.0095411769126L1463.8718641461373,326.5341421935108L1465.657155894486,313.1818995267584L1466.4655898937385,351.5450304979037L1471.2151396393458,322.0185737796528L1472.3941058882556,313.22314384542545L1472.6635838880063,316.5649340515675L1472.8656923878193,306.9030575114022L1473.5057026372274,318.18323826064454L1474.280451886511,316.3973241608142L1476.7057538842678,323.85341943711876L1479.8047508814016,330.84701671958766L1480.8152933804672,302.80956765908616L1481.7247816296258,323.00798110754016L1481.8258358795324,298.0460419115567L1483.8132361276944,293.83036357134284L1483.8469208776633,279.2250834019382L1484.8237786267598,297.7654050368819L1485.5648431260745,345.37932954649943L1488.2259383736132,309.58588636066236L1488.32699262352,340.5325868045191L1489.169111372741,313.5023240058665L1490.8870336211523,305.5418194876511L1491.9649456201553,318.7842996144275L1492.5712711195947,323.3134523272847L1497.2197666152954,319.7827455908738L1497.4218751151086,318.9730055354096L1497.5902988649527,325.8569455825459L1498.4324176141738,322.0367212798663L1499.2408516134262,302.27862164703714L1499.9145466128032,310.01577501659017L1501.3966756114323,337.68398212037835L1501.7335231111208,330.2711582771264L1501.8682621109963,301.28035117832985L1505.3714761077563,316.3172575302785L1506.7188661065102,303.6392278429278L1507.5273001057626,298.6050165095254L1510.0873411033947,335.3495800099851L1511.1989378523667,324.1122582506087L1511.7042091018996,289.0501821393815L1511.9736871016503,290.8501895106542L1513.1526533505598,303.2578670768359L1513.4558161002794,301.3134870394547L1514.7695213490645,351.64430645047395L1514.8032060990336,309.96545694781634L1516.0832265978495,324.19996824317826L1516.7232368472576,342.62850899914736L1517.0263995969774,289.58714806687846L1517.4643013465723,332.51506859728676L1525.3465328392824,314.12009369640305L1525.447587089189,300.51712067370295L1528.4118450864473,314.7247705096096L1528.5802688362917,319.87371125200195L1531.0729403339863,311.495849330424L1536.597239328877,303.74291781513415L1537.3383038281918,266.7575401459806L1538.9214870767275,317.53635183620645L1541.5488975742976,311.19476580415466L1541.8520603240172,305.96626740366963L1542.087853573799,319.40040198144345L1542.3236468235812,315.54879689502906L1542.9299723230201,314.2054782114308L1545.0857963210265,337.20328397400755L1545.8268608203412,310.1755221606358L1551.3848445652006,289.1887630501027L1553.0017125637055,325.0167812605245L1553.2375058134874,299.8139664681387L1554.5175263123035,286.4190052177116L1556.7070350602785,310.6725425267344L1559.4018150577863,299.44246923697904L1563.3092460541725,302.29754138130227L1563.7134630537987,290.3733525345416L1567.4524703003406,250.02003400613378L1568.0924805497489,302.4196245645567L1568.5303822993437,280.0118670451401L1570.046196047942,348.03465633305694L1571.8651725462596,323.98737571891706L1576.5473527919294,305.1315350461706L1577.5578952909946,300.7714313875265L1580.0842515386582,335.9110204916868L1580.1853057885648,312.55575811707115L1581.027424537786,341.51734317732274L1583.2506180357298,321.71938573696474L1583.7222045352935,327.77373580335495L1585.4064420337359,328.9200207237552L1586.2148760329883,299.42268951479275L1587.0906795321782,251.27435271528083L1587.3938422818978,322.02039906013846L1587.798059281524,319.12699602561577L1588.3370152810257,327.9530959372349L1589.4822967799664,319.6881469195481L1592.5139242771627,300.604909644755L1593.8276295259475,322.0734023973191L1595.4444975244521,353.9157539348848L1595.8823992740472,281.0209663413442L1596.0845077738602,288.5184989948287L1596.118192523829,288.93167931400285L1596.8592570231438,312.2586410657034L1597.1287350228945,312.8961904784262L1598.9477115212123,333.2944194877416L1602.282501768128,280.1884453813567L1603.4951527670066,330.1711100905045L1606.695204014047,314.1981068863924L1607.368899013424,322.4808085118799L1608.211017762645,310.67122621869186L1610.0299942609627,327.4120933317407L1611.9500250091871,321.97492500496134L1613.499523507754,324.7773799291298L1618.1480190034547,296.67344853709176L1623.0323077489377,327.3186179099447L1624.4133824976602,333.20754315693233L1625.4576097466945,304.20804842505487L1625.59234874657,306.82699245731584L1625.996565746196,342.9373762936417L1628.1860744941712,298.82352364459115L1630.3755832421461,329.6640682325085L1630.6787459918658,279.7808988606047L1632.2282444904326,311.9422181630447L1637.6178044854482,309.57725137990315L1638.8978249842644,314.29224923759665L1644.5231782290616,357.51679539770345L1648.0937617257596,305.0000446481053L1653.719114970557,353.6451122259465L1655.4370372189683,351.34139764371895L1655.8412542185943,342.079389160724L1659.4118377152918,317.57898266601165L1667.5972319577215,329.6629362075919L1667.6309167076906,312.90354425269066L1671.0667612045129,315.7516311890014L1671.235184954357,310.23321155444796L1671.74045620389,289.506853276282L1671.8415104537964,305.3617134458804L1672.2120427034538,318.2311518733939L1672.7846834529241,333.30472179202144L1672.9194224527994,326.94572539226L1673.4583784523008,299.1347164166274L1673.963649701834,275.0663573230326L1674.4352362013976,307.124039305588L1675.7826262001515,338.3147306082146L1676.0184194499334,297.94317682572375L1676.6584296993415,322.87517440143233L1680.6332301956654,325.0230117852593L1680.9027081954162,327.4747934715015L1680.970077695354,312.7470440018167L1681.5764031947929,336.8482054918322L1682.3848371940455,293.6897292200752L1689.054417687877,328.9223462012971L1691.243926435852,283.13960801278716L1691.7155129354157,354.7296359729896L1694.4776624328615,307.98344805119166L1696.8355949306806,312.68624812102405L1701.2482971765994,296.26927176492876L1702.494632925447,331.88972574781195L1704.3136094237645,317.3429598585928L1707.6483996706804,296.1493297760902L1708.423148919964,310.6115886889767L1710.7137119178456,352.08503270928554L1711.0168746675652,367.0829938939481L1711.252667917347,308.96327265652917L1712.6674274160387,335.5446305357324L1712.8358511658828,347.49064376983875L1714.6211429142318,301.6590442267888L1716.069587162892,331.7658962625544L1717.1138144119263,338.01987760668004L1718.6296281605244,321.0237783641779L1721.5265166578451,346.3477285980275L1724.9623611546676,329.5416252583891L1725.737110403951,323.2076738129842L1725.8718494038264,306.69857344468323L1726.8150224029541,322.22702432127335L1727.724510652113,335.9486142493825L1727.7918801520507,298.6255509149894L1728.4992599013963,336.1942812070599L1729.27400915068,325.0704515271134L1732.743538397471,347.3412954593294L1741.1647258896828,326.58262620641193L1741.568942889309,314.70260388217275L1742.2089531387169,312.9178130318721L1744.802678886318,338.3763074984458L1747.059557134231,284.0010701989372L1748.609055632798,326.48417514021503L1749.484859131988,320.6816962300761L1750.1922388813337,313.42220472300903L1754.3017783775329,346.67743743652915L1755.7839073761622,334.4093587259549L1761.3082063710528,290.63921165759194L1761.6787386207104,291.7177418153479L1763.3629761191528,328.3613971412646L1766.7651358660062,316.63341717132863L1767.1356681156635,321.38681612231727L1770.4030888626417,314.1678493521873L1770.8746753622054,319.51620198764135L1771.3462618617693,352.4474123134037L1771.9525873612088,294.34493471134226L1772.0536416111152,304.2946263927078L1772.8620756103674,269.987549473148L1773.7041943595887,328.09862695442087L1777.4768863560994,315.27254771382945L1780.036927353732,318.2230083143039L1787.919158846442,295.6702287501444L1788.0875825962862,318.3643271457537L1788.5928538458188,341.4459992814157L1789.3002335951646,351.53027907244007L1791.2539490933577,294.0839020511147L1791.826589842828,323.23908969826675L1793.1066103416442,300.28643330154995L1793.4097730913638,302.31251219143974L1793.4771425913016,341.467200616288L1795.363488589557,343.65938003037553L1798.058268587065,336.1970366785623L1800.5509400847595,338.3682165916775L1801.4267435839495,311.3051952735389L1802.4709708329838,339.25617167103087L1804.6267948309899,349.8503716469709L1805.031011830616,310.44594448490034L1814.1595790721733,326.94121484336745L1817.2248913193384,342.498273481416L1821.6375935652575,341.7134291987301L1821.6712783152261,320.9211940907273L1821.8733868150393,343.7075042524117L1825.8145025613944,335.7234027186866L1828.307174059089,344.81061426901584L1832.6861915550392,351.0501250000602L1832.7872458049458,356.4199685581558L1832.9893543047588,330.49586961076614L1833.0904085546654,344.8956653193394L1833.4609408043225,310.44810323009017L1834.1683205536683,333.64147726624424L1835.347286802578,318.9522429698848L1835.58308005236,336.3935877954781L1842.858986045631,368.37318638494855L1844.0042675445716,350.61498866273604L1845.1495490435125,314.05310239242345L1847.002210291799,357.1353030008073L1847.4064272914252,342.5942674392668L1848.1474917907397,315.5322114136928L1848.5853935403347,334.2246719321961L1852.661248286565,330.28319810802236" fill="none"></path></g></g></g></g></g></g><g transform="translate(61, 376)" clip-path="url(#clip_1)"><clipPath id="clip_1"><rect width="2021" height="23"></rect></clipPath><g><g><line x1="0" y1="0" x2="0" y2="5" style="visibility: inherit;" fill="rgb(0, 0, 0)" stroke="rgb(204, 204, 204)" stroke-width="1px"></line><line x1="168.42374984423319" y1="0" x2="168.42374984423319" y2="5" style="visibility: inherit;" fill="rgb(0, 0, 0)" stroke="rgb(204, 204, 204)" stroke-width="1px"></line><line x1="336.84749968846637" y1="0" x2="336.84749968846637" y2="5" style="visibility: inherit;" fill="rgb(0, 0, 0)" stroke="rgb(204, 204, 204)" stroke-width="1px"></line><line x1="505.2712495326996" y1="0" x2="505.2712495326996" y2="5" style="visibility: inherit;" fill="rgb(0, 0, 0)" stroke="rgb(204, 204, 204)" stroke-width="1px"></line><line x1="673.6949993769327" y1="0" x2="673.6949993769327" y2="5" style="visibility: inherit;" fill="rgb(0, 0, 0)" stroke="rgb(204, 204, 204)" stroke-width="1px"></line><line x1="842.118749221166" y1="0" x2="842.118749221166" y2="5" style="visibility: inherit;" fill="rgb(0, 0, 0)" stroke="rgb(204, 204, 204)" stroke-width="1px"></line><line x1="1010.5424990653992" y1="0" x2="1010.5424990653992" y2="5" style="visibility: inherit;" fill="rgb(0, 0, 0)" stroke="rgb(204, 204, 204)" stroke-width="1px"></line><line x1="1178.9662489096324" y1="0" x2="1178.9662489096324" y2="5" style="visibility: inherit;" fill="rgb(0, 0, 0)" stroke="rgb(204, 204, 204)" stroke-width="1px"></line><line x1="1347.3899987538655" y1="0" x2="1347.3899987538655" y2="5" style="visibility: inherit;" fill="rgb(0, 0, 0)" stroke="rgb(204, 204, 204)" stroke-width="1px"></line><line x1="1515.8137485980988" y1="0" x2="1515.8137485980988" y2="5" style="visibility: inherit;" fill="rgb(0, 0, 0)" stroke="rgb(204, 204, 204)" stroke-width="1px"></line><line x1="1684.237498442332" y1="0" x2="1684.237498442332" y2="5" style="visibility: inherit;" fill="rgb(0, 0, 0)" stroke="rgb(204, 204, 204)" stroke-width="1px"></line><line x1="1852.661248286565" y1="0" x2="1852.661248286565" y2="5" style="visibility: inherit;" fill="rgb(0, 0, 0)" stroke="rgb(204, 204, 204)" stroke-width="1px"></line><line x1="2021.0849981307983" y1="0" x2="2021.0849981307983" y2="5" style="visibility: inherit;" fill="rgb(0, 0, 0)" stroke="rgb(204, 204, 204)" stroke-width="1px"></line></g><g transform="translate(0, 8)"><text style="text-anchor: middle; visibility: hidden; font-family: Roboto, sans-serif; font-size: 12px; font-weight: 200;" x="0" y="0" dx="0em" dy="0.95em" fill="rgb(33, 33, 33)" stroke="none" stroke-width="1px">-5k</text><text style="text-anchor: middle; visibility: inherit; font-family: Roboto, sans-serif; font-size: 12px; font-weight: 200;" x="168.42374984423319" y="0" dx="0em" dy="0.95em" fill="rgb(33, 33, 33)" stroke="none" stroke-width="1px">0</text><text style="text-anchor: middle; visibility: inherit; font-family: Roboto, sans-serif; font-size: 12px; font-weight: 200;" x="336.84749968846637" y="0" dx="0em" dy="0.95em" fill="rgb(33, 33, 33)" stroke="none" stroke-width="1px">5k</text><text style="text-anchor: middle; visibility: inherit; font-family: Roboto, sans-serif; font-size: 12px; font-weight: 200;" x="505.2712495326996" y="0" dx="0em" dy="0.95em" fill="rgb(33, 33, 33)" stroke="none" stroke-width="1px">10k</text><text style="text-anchor: middle; visibility: inherit; font-family: Roboto, sans-serif; font-size: 12px; font-weight: 200;" x="673.6949993769327" y="0" dx="0em" dy="0.95em" fill="rgb(33, 33, 33)" stroke="none" stroke-width="1px">15k</text><text style="text-anchor: middle; visibility: inherit; font-family: Roboto, sans-serif; font-size: 12px; font-weight: 200;" x="842.118749221166" y="0" dx="0em" dy="0.95em" fill="rgb(33, 33, 33)" stroke="none" stroke-width="1px">20k</text><text style="text-anchor: middle; visibility: inherit; font-family: Roboto, sans-serif; font-size: 12px; font-weight: 200;" x="1010.5424990653992" y="0" dx="0em" dy="0.95em" fill="rgb(33, 33, 33)" stroke="none" stroke-width="1px">25k</text><text style="text-anchor: middle; visibility: inherit; font-family: Roboto, sans-serif; font-size: 12px; font-weight: 200;" x="1178.9662489096324" y="0" dx="0em" dy="0.95em" fill="rgb(33, 33, 33)" stroke="none" stroke-width="1px">30k</text><text style="text-anchor: middle; visibility: inherit; font-family: Roboto, sans-serif; font-size: 12px; font-weight: 200;" x="1347.3899987538655" y="0" dx="0em" dy="0.95em" fill="rgb(33, 33, 33)" stroke="none" stroke-width="1px">35k</text><text style="text-anchor: middle; visibility: inherit; font-family: Roboto, sans-serif; font-size: 12px; font-weight: 200;" x="1515.8137485980988" y="0" dx="0em" dy="0.95em" fill="rgb(33, 33, 33)" stroke="none" stroke-width="1px">40k</text><text style="text-anchor: middle; visibility: inherit; font-family: Roboto, sans-serif; font-size: 12px; font-weight: 200;" x="1684.237498442332" y="0" dx="0em" dy="0.95em" fill="rgb(33, 33, 33)" stroke="none" stroke-width="1px">45k</text><text style="text-anchor: middle; visibility: inherit; font-family: Roboto, sans-serif; font-size: 12px; font-weight: 200;" x="1852.661248286565" y="0" dx="0em" dy="0.95em" fill="rgb(33, 33, 33)" stroke="none" stroke-width="1px">50k</text><text style="text-anchor: middle; visibility: hidden; font-family: Roboto, sans-serif; font-size: 12px; font-weight: 200;" x="2021.0849981307983" y="0" dx="0em" dy="0.95em" fill="rgb(33, 33, 33)" stroke="none" stroke-width="1px">55k</text></g><line x1="0" y1="0" x2="2021.0849981307983" y2="0" fill="rgb(0, 0, 0)" stroke="rgb(204, 204, 204)" stroke-width="1px"></line></g></g></g></g></svg>