<svg viewBox="0 0 2083 400" xmlns="http://www.w3.org/2000/svg"><g><g><g><g><g><line x1="72.29800224304199" y1="376.8999996185303" x2="67.29800224304199" y2="376.8999996185303" style="visibility: inherit;" fill="rgb(0, 0, 0)" stroke="rgb(204, 204, 204)" stroke-width="1px"></line><line x1="72.29800224304199" y1="339.20999965667727" x2="67.29800224304199" y2="339.20999965667727" style="visibility: inherit;" fill="rgb(0, 0, 0)" stroke="rgb(204, 204, 204)" stroke-width="1px"></line><line x1="72.29800224304199" y1="301.5199996948242" x2="67.29800224304199" y2="301.5199996948242" style="visibility: inherit;" fill="rgb(0, 0, 0)" stroke="rgb(204, 204, 204)" stroke-width="1px"></line><line x1="72.29800224304199" y1="263.8299997329712" x2="67.29800224304199" y2="263.8299997329712" style="visibility: inherit;" fill="rgb(0, 0, 0)" stroke="rgb(204, 204, 204)" stroke-width="1px"></line><line x1="72.29800224304199" y1="226.1399997711182" x2="67.29800224304199" y2="226.1399997711182" style="visibility: inherit;" fill="rgb(0, 0, 0)" stroke="rgb(204, 204, 204)" stroke-width="1px"></line><line x1="72.29800224304199" y1="188.44999980926517" x2="67.29800224304199" y2="188.44999980926517" style="visibility: inherit;" fill="rgb(0, 0, 0)" stroke="rgb(204, 204, 204)" stroke-width="1px"></line><line x1="72.29800224304199" y1="150.7599998474121" x2="67.29800224304199" y2="150.7599998474121" style="visibility: inherit;" fill="rgb(0, 0, 0)" stroke="rgb(204, 204, 204)" stroke-width="1px"></line><line x1="72.29800224304199" y1="113.0699998855591" x2="67.29800224304199" y2="113.0699998855591" style="visibility: inherit;" fill="rgb(0, 0, 0)" stroke="rgb(204, 204, 204)" stroke-width="1px"></line><line x1="72.29800224304199" y1="75.37999992370604" x2="67.29800224304199" y2="75.37999992370604" style="visibility: inherit;" fill="rgb(0, 0, 0)" stroke="rgb(204, 204, 204)" stroke-width="1px"></line><line x1="72.29800224304199" y1="37.689999961853104" x2="67.29800224304199" y2="37.689999961853104" style="visibility: inherit;" fill="rgb(0, 0, 0)" stroke="rgb(204, 204, 204)" stroke-width="1px"></line><line x1="72.29800224304199" y1="0" x2="67.29800224304199" y2="0" style="visibility: inherit;" fill="rgb(0, 0, 0)" stroke="rgb(204, 204, 204)" stroke-width="1px"></line></g><g transform="translate(62.29800224304199, 0)"><text style="text-anchor: end; visibility: hidden; font-family: Roboto, sans-serif; font-size: 12px; font-weight: 200;" x="0" y="376.8999996185303" dx="0em" dy="0.3em" fill="rgb(33, 33, 33)" stroke="none" stroke-width="1px">8e-4</text><text style="text-anchor: end; visibility: inherit; font-family: Roboto, sans-serif; font-size: 12px; font-weight: 200;" x="0" y="339.20999965667727" dx="0em" dy="0.3em" fill="rgb(33, 33, 33)" stroke="none" stroke-width="1px">9e-4</text><text style="text-anchor: end; visibility: inherit; font-family: Roboto, sans-serif; font-size: 12px; font-weight: 200;" x="0" y="301.5199996948242" dx="0em" dy="0.3em" fill="rgb(33, 33, 33)" stroke="none" stroke-width="1px">1e-3</text><text style="text-anchor: end; visibility: inherit; font-family: Roboto, sans-serif; font-size: 12px; font-weight: 200;" x="0" y="263.8299997329712" dx="0em" dy="0.3em" fill="rgb(33, 33, 33)" stroke="none" stroke-width="1px">1.1e-3</text><text style="text-anchor: end; visibility: inherit; font-family: Roboto, sans-serif; font-size: 12px; font-weight: 200;" x="0" y="226.1399997711182" dx="0em" dy="0.3em" fill="rgb(33, 33, 33)" stroke="none" stroke-width="1px">1.2e-3</text><text style="text-anchor: end; visibility: inherit; font-family: Roboto, sans-serif; font-size: 12px; font-weight: 200;" x="0" y="188.44999980926517" dx="0em" dy="0.3em" fill="rgb(33, 33, 33)" stroke="none" stroke-width="1px">1.3e-3</text><text style="text-anchor: end; visibility: inherit; font-family: Roboto, sans-serif; font-size: 12px; font-weight: 200;" x="0" y="150.7599998474121" dx="0em" dy="0.3em" fill="rgb(33, 33, 33)" stroke="none" stroke-width="1px">1.4e-3</text><text style="text-anchor: end; visibility: inherit; font-family: Roboto, sans-serif; font-size: 12px; font-weight: 200;" x="0" y="113.0699998855591" dx="0em" dy="0.3em" fill="rgb(33, 33, 33)" stroke="none" stroke-width="1px">1.5e-3</text><text style="text-anchor: end; visibility: inherit; font-family: Roboto, sans-serif; font-size: 12px; font-weight: 200;" x="0" y="75.37999992370604" dx="0em" dy="0.3em" fill="rgb(33, 33, 33)" stroke="none" stroke-width="1px">1.6e-3</text><text style="text-anchor: end; visibility: inherit; font-family: Roboto, sans-serif; font-size: 12px; font-weight: 200;" x="0" y="37.689999961853104" dx="0em" dy="0.3em" fill="rgb(33, 33, 33)" stroke="none" stroke-width="1px">1.7e-3</text><text style="text-anchor: end; visibility: hidden; font-family: Roboto, sans-serif; font-size: 12px; font-weight: 200;" x="0" y="0" dx="0em" dy="0.3em" fill="rgb(33, 33, 33)" stroke="none" stroke-width="1px">1.8e-3</text></g><line x1="72.29800224304199" y1="0" x2="72.29800224304199" y2="376.8999996185303" fill="rgb(0, 0, 0)" stroke="rgb(204, 204, 204)" stroke-width="1px"></line></g></g><g transform="translate(72, 0)" clip-path="url(#clip_0)"><clipPath id="clip_0"><rect width="2010" height="376"></rect></clipPath><g><g><g><line x1="0" y1="0" x2="0" y2="376.8999996185303" fill="rgb(0, 0, 0)" stroke="rgb(66, 66, 66)" stroke-width="1px" opacity="0.25"></line><line x1="167.55849981307983" y1="0" x2="167.55849981307983" y2="376.8999996185303" fill="rgb(0, 0, 0)" stroke="rgb(66, 66, 66)" stroke-width="1px" opacity="0.25"></line><line x1="335.11699962615967" y1="0" x2="335.11699962615967" y2="376.8999996185303" fill="rgb(0, 0, 0)" stroke="rgb(66, 66, 66)" stroke-width="1px" opacity="0.25"></line><line x1="502.6754994392395" y1="0" x2="502.6754994392395" y2="376.8999996185303" fill="rgb(0, 0, 0)" stroke="rgb(66, 66, 66)" stroke-width="1px" opacity="0.25"></line><line x1="670.2339992523193" y1="0" x2="670.2339992523193" y2="376.8999996185303" fill="rgb(0, 0, 0)" stroke="rgb(66, 66, 66)" stroke-width="1px" opacity="0.25"></line><line x1="837.7924990653992" y1="0" x2="837.7924990653992" y2="376.8999996185303" fill="rgb(0, 0, 0)" stroke="rgb(66, 66, 66)" stroke-width="1px" opacity="0.25"></line><line x1="1005.350998878479" y1="0" x2="1005.350998878479" y2="376.8999996185303" fill="rgb(0, 0, 0)" stroke="rgb(66, 66, 66)" stroke-width="1px" opacity="0.25"></line><line x1="1172.9094986915588" y1="0" x2="1172.9094986915588" y2="376.8999996185303" fill="rgb(0, 0, 0)" stroke="rgb(66, 66, 66)" stroke-width="1px" opacity="0.25"></line><line x1="1340.4679985046387" y1="0" x2="1340.4679985046387" y2="376.8999996185303" fill="rgb(0, 0, 0)" stroke="rgb(66, 66, 66)" stroke-width="1px" opacity="0.25"></line><line x1="1508.0264983177185" y1="0" x2="1508.0264983177185" y2="376.8999996185303" fill="rgb(0, 0, 0)" stroke="rgb(66, 66, 66)" stroke-width="1px" opacity="0.25"></line><line x1="1675.5849981307983" y1="0" x2="1675.5849981307983" y2="376.8999996185303" fill="rgb(0, 0, 0)" stroke="rgb(66, 66, 66)" stroke-width="1px" opacity="0.25"></line><line x1="1843.1434979438782" y1="0" x2="1843.1434979438782" y2="376.8999996185303" fill="rgb(0, 0, 0)" stroke="rgb(66, 66, 66)" stroke-width="1px" opacity="0.25"></line><line x1="2010.701997756958" y1="0" x2="2010.701997756958" y2="376.8999996185303" fill="rgb(0, 0, 0)" stroke="rgb(66, 66, 66)" stroke-width="1px" opacity="0.25"></line></g><g><line x1="0" y1="376.8999996185303" x2="2010.701997756958" y2="376.8999996185303" fill="rgb(0, 0, 0)" stroke="rgb(66, 66, 66)" stroke-width="1px" opacity="0.25"></line><line x1="0" y1="339.20999965667727" x2="2010.701997756958" y2="339.20999965667727" fill="rgb(0, 0, 0)" stroke="rgb(66, 66, 66)" stroke-width="1px" opacity="0.25"></line><line x1="0" y1="301.5199996948242" x2="2010.701997756958" y2="301.5199996948242" fill="rgb(0, 0, 0)" stroke="rgb(66, 66, 66)" stroke-width="1px" opacity="0.25"></line><line x1="0" y1="263.8299997329712" x2="2010.701997756958" y2="263.8299997329712" fill="rgb(0, 0, 0)" stroke="rgb(66, 66, 66)" stroke-width="1px" opacity="0.25"></line><line x1="0" y1="226.1399997711182" x2="2010.701997756958" y2="226.1399997711182" fill="rgb(0, 0, 0)" stroke="rgb(66, 66, 66)" stroke-width="1px" opacity="0.25"></line><line x1="0" y1="188.44999980926517" x2="2010.701997756958" y2="188.44999980926517" fill="rgb(0, 0, 0)" stroke="rgb(66, 66, 66)" stroke-width="1px" opacity="0.25"></line><line x1="0" y1="150.7599998474121" x2="2010.701997756958" y2="150.7599998474121" fill="rgb(0, 0, 0)" stroke="rgb(66, 66, 66)" stroke-width="1px" opacity="0.25"></line><line x1="0" y1="113.0699998855591" x2="2010.701997756958" y2="113.0699998855591" fill="rgb(0, 0, 0)" stroke="rgb(66, 66, 66)" stroke-width="1px" opacity="0.25"></line><line x1="0" y1="75.37999992370604" x2="2010.701997756958" y2="75.37999992370604" fill="rgb(0, 0, 0)" stroke="rgb(66, 66, 66)" stroke-width="1px" opacity="0.25"></line><line x1="0" y1="37.689999961853104" x2="2010.701997756958" y2="37.689999961853104" fill="rgb(0, 0, 0)" stroke="rgb(66, 66, 66)" stroke-width="1px" opacity="0.25"></line><line x1="0" y1="0" x2="2010.701997756958" y2="0" fill="rgb(0, 0, 0)" stroke="rgb(66, 66, 66)" stroke-width="1px" opacity="0.25"></line></g></g></g><g><g><line x1="0" y1="678.4199993133545" x2="2010.701997756958" y2="678.4199993133545" fill="rgb(0, 0, 0)" stroke="rgb(153, 153, 153)" stroke-width="1.5px"></line></g></g><g><g><line x1="167.55849981307983" y1="0" x2="167.55849981307983" y2="376.8999996185303" fill="rgb(0, 0, 0)" stroke="rgb(153, 153, 153)" stroke-width="1.5px"></line></g></g><g><g><g><g><g><path style="fill: none;" stroke="rgb(255, 112, 67)" stroke-width="2px" d="M170.6080645096779,337.517189463861L171.47936870870592,275.4400360303685L173.52358240642548,212.66311285303172L175.60130780410768,181.27623646013973L176.77421730279923,158.9682019312939L181.03020319805145,139.91748963558777L183.51006899528502,126.31121233948011L184.0462561946869,116.10770676023385L184.91756039371492,108.17271549699007L185.01809549360274,101.82568408983457L188.3022420899391,96.63353241029053L188.43628888978958,92.30754035656368L188.4698005897522,88.6478247663685L189.3411047887802,85.51161193854122L190.9496663869858,82.79420114601474L193.76464918384553,80.41706683142247L195.90939798145294,78.32016002778715L196.74719048051836,76.45677597231405L200.93615297584535,74.79004247372282L203.1144134734154,73.29046176938215L205.19213887109757,71.93415470897584L205.29267397098542,70.70158379717103L205.62779097061158,69.57660935559153L207.40391106863024,68.54578164429671L208.27521526765824,67.59780287410668L208.643843967247,66.72311336993191L208.91193756694796,65.91356969780318L209.1800311666489,65.16219176468637L213.36899366197585,64.46296224247165L214.50839146070481,63.81066610716349L215.24564885988238,63.20076123500589L215.84885945920945,62.62927326183252L217.85956145696642,62.09270955889726L221.74691865262986,61.58798838944544L222.98685155124664,61.11238020986807L229.05246924448014,60.663458754001816L229.1865160443306,60.23906004970215L230.49347234287262,59.83724790648511L232.57119774055482,59.45628471276354L241.51882163057326,59.09460661349748L241.55233333053587,58.750802320384025L246.94771702451706,58.4235949491632L247.81902122354506,58.11182639125351L247.98657972335815,57.81444381652888L248.42223182287213,57.53048797572452L251.30423801965713,57.2590830286176L252.00798371887205,56.99942767073701L253.01333471775052,56.750787369235795L253.61654531707762,56.51248754947208L255.72778241472247,56.28390759920128L256.63259831371306,56.06447557815826L257.1017621131897,55.85366353807159L257.9060429122925,55.65098337248775L259.98376830997466,55.455983127726675L262.9998213066101,55.26824371627866L264.27326590518953,55.087375982337356L267.89252950115207,54.91301807622407L268.56276350040434,54.74483310042373L268.6968103002548,54.582506995007535L270.4729303982735,54.42574663451315L271.8469100967407,54.27427811201673L272.0479802965164,54.127845189263674L275.23159179296493,53.9862078944053L276.10289599199297,53.84914125119866L276.50503639154437,53.716434125510354L278.88436708889003,53.58788817668413L280.15781168746946,53.46331690281637L281.36423288612366,53.34254477027109L284.07868058309555,53.225406418890934L284.44730928268433,53.111745935331925L284.98349648208614,53.00141618780675L286.25694108066557,52.89427821626705L286.5585463803292,52.79020067270657L288.0665728786468,52.689059306847156L288.66978347797397,52.59073649296761L296.07586916971206,52.49512079409046L297.58389566802975,52.40210656012651L299.0919221663475,52.31159355693356L299.8962029654503,52.223486623545455L300.53292526473996,52.13769535511118L301.4377411637306,52.054133809318934L302.6441623623848,51.97272023430228L303.1803495617866,51.89337681621465L304.65486436014174,51.81602944483531L308.1065694562912,51.74060749572092L311.8263681521415,51.66704362755513L316.7860997466087,51.595273593475035L320.20429314279556,51.52523606526096L320.37185164260865,51.45687246937979L320.6399452423096,51.390126833957616L320.80750374212266,51.32494564584322L321.6452962411881,51.26127771699265L322.4495770402908,51.19907405947517L322.91874083976745,51.13828776845684L324.9964662374496,51.078873912575176L326.26991083602906,51.02078943116545L333.8770667275429,50.96399303784316L334.0111135273933,50.90844512999206L334.51378902683257,50.85410770373505L334.9829528263092,50.80094427400849L336.18937402496334,50.74891979938442L336.89311972417835,50.69800061131516L338.5687047223091,50.64815434749863L339.27245042152407,50.59934988908977L339.6410791211128,50.551557301498285L340.74696521987914,50.504747778538274L341.2496407193184,50.45889358971009L342.154456618309,50.41396803041042L342.8246906175614,50.369945374882704L347.1812116127014,53.27414522810015L352.34201340694426,53.18801369388887L353.85003990526195,53.10357497355345L355.86074190301895,53.020783788025625L357.3017450014114,52.93959644486277L358.40763110017775,52.85997076928541L360.4183330979347,52.78186603878101L361.4236840968132,52.70524292106185L362.6301052954674,52.630063415177865L367.82441878967285,52.55629079559783L368.1260240893364,52.48388955908769L368.595187888813,52.41282537422176L369.0643516882896,52.343065033378515L372.08040468492504,52.274576407076594L372.8511737840653,52.207328400521725L373.6219428832054,52.141290912238624L375.5321097810745,52.07643479467285L376.0012735805511,54.74753206958605L377.74388197860713,54.647168261490926L381.3296338746071,54.548567530680174L382.3349848734856,54.451688674321225L382.3684965734482,54.35649174524118L382.469031673336,54.26293800439402L382.77063697299957,54.170989875471875L383.0722422726631,54.08061090154932L386.0212718693733,53.99176570365484L386.3228771690369,53.90441994116874L390.74642156410215,53.81854027395734L392.0868895626068,53.73409432615204L392.15391296253205,53.651050651492106L394.66729045972824,53.56937870015365L395.035919159317,53.48904878698945L395.27050105905533,53.410032061111075L397.08013285703663,53.332300476746944L399.4259518544197,53.25582676531451L401.06802515258784,53.18058440864925L401.3026070523262,53.10654761333243L403.34682075004577,53.033691286067324L405.72615144739154,52.96199101005387L409.2113682435036,52.8914230223142L409.5464852431297,52.82196419192564L411.95932764043806,52.75359199911846L412.0933744402885,52.68628451519816L415.2099625368118,52.620020383256126L415.77966143617635,52.55477879963092L416.7179890351295,52.490539496087244L417.0195943347931,52.427282722681284L419.5329718319893,52.36498923127939L422.8171184283256,52.30364025970401L423.99002792701725,52.24321751647657L426.53691712417606,52.18370316613358L428.07845532245636,52.12507981508883L431.36260191879273,54.520553168792496L435.2499591144562,54.43321191573751L435.3169825143814,54.34716229541331L436.65745051288604,54.26238011695085L442.1868810067177,54.178841770731424L442.6560448061943,54.09652421102038L443.6949075050354,54.01540493922134L445.8061446026802,53.93546198772332L448.5541039996147,53.85667390432046L448.85570929927826,53.779019737175446L453.74841749382017,53.70247902030942L453.94948769359587,53.62703175959453L456.89851729030613,53.55265841922887L457.4011927897453,53.4793399086758L457.9708916891098,53.40705757004783L461.22152658548356,53.33579316591851L461.35557338533397,53.265528867544774L462.8635998836517,53.19624724348402L469.39838137636184,53.127931248590926L470.80587277479174,53.060564213377766L470.97343127460476,52.99412983372731L471.8447354736328,52.92861216094052L472.4479460729599,52.8639955921109L474.45864807071683,52.80026486080953L474.8272767703056,52.73740502807075L476.6369085682869,52.67540147366728L480.3567072641373,54.93700915868837L480.4907540639877,54.849360359564905L483.87543576021193,54.76289444588105L484.74673995923996,54.67759191159776L484.7802516592026,54.593433656117206L485.8861377579689,54.510400973821454L487.1930940565109,54.42847554393424L489.23730775423047,54.34763942069445L489.27081945419314,54.26787502383062L489.3378428541184,54.189165129324536L490.41021725292205,54.11149286045562L490.5107523528099,54.03484167911414L493.96245744895936,53.959195377375565L494.1970393486977,53.884538069325856L495.63804244709013,53.81085418312935L495.7720892469406,53.73812845333149L495.8056009469032,53.666345913386756L495.8391126468659,53.59549188840581L496.0401828466415,53.52555198811363L496.609881746006,53.4565121000113L497.2801157452583,53.38835838273532L498.92218904342656,53.32107725960634L499.62593474264145,53.25465541236324L501.73717184028624,53.18907977507473L503.11115153875346,53.12433752822255L503.34573343849183,53.060416092951826L504.4851312372208,52.99730312548226L504.7867365368843,52.9349865116746L506.8979736345291,52.87345436174854L506.99850873441693,52.81269500514621L512.8630562278747,52.75269698553626L513.968942326641,52.693449055955654L515.979644324398,52.63494017408292L523.1511481163978,52.57715949763996L524.625662914753,52.52009637991724L525.7315490135193,52.46374036542055L526.8374351122857,52.408081185632746L527.7087393113137,52.353108754888815L528.4124850105285,52.298813166360226L530.2221168085098,52.24518468814599L535.4164303027153,52.1922137594645L535.4834537026405,52.13989098694691L537.4606440004349,52.0882071410258L542.7890042944908,52.03715315241801L544.5651243925095,51.98672010869778L546.5423146903038,51.936899250958085L547.3801071893691,51.88768197055777L548.2514113883972,51.83905980595084L549.6589027868271,51.7910244395968L552.5744206835747,51.74356769494799L554.3505407815933,51.69668153351445L555.691008780098,51.6503580519999L556.3612427793503,51.60458947951148L556.562312979126,51.55936817483694L560.3826467748642,51.51468662378994L561.790138173294,51.470537436620674L566.1131474684715,51.42691334548976L566.4482644680977,51.383807202003766L566.6493346678734,51.34121197481096L568.7605717655182,51.29912074725499L569.1962238650323,51.25752671508463L569.2632472649575,51.21642318421975L570.4026450636864,51.17580356856961L572.5138821613311,51.13566138790328L573.6197682600975,51.09599026577122L574.6586309589386,51.056783927474605L575.1277947584151,51.0180361980844L576.4012393569947,50.979741000504745L576.5687978568077,50.941892353582595L576.803379756546,50.90448437026182L577.9427775552749,50.86751125577859L580.1545497528076,50.83096730589949L582.7684623498917,50.79484690519999L586.0861206461906,50.75914452538131L586.9574248452186,50.7238547236268L587.5606354445458,50.68897214099561L587.9292641441345,50.65449150085139L588.5659864434242,50.62040760732767L594.3970222369195,50.58671534382713L594.53106903677,50.553409671554434L595.838025335312,50.52048562808171L598.5189613323212,50.487938325945635L598.6530081321716,50.45576295127652L598.9211017318726,50.42395476245551L599.0886602316856,50.39250908880358L599.1891953315735,50.361421329297414L604.0148801261902,50.33068695131394L606.0926055238724,50.30030148940209L608.9411000206948,50.270260544080585L609.4102638201713,50.24055978066223L610.7172201187134,50.211194928103254L611.18638391819,50.1821617778765L613.8338082152367,50.15345618286927L615.5429049133301,50.12507405630463L616.1461155126572,50.09701137068498L617.553606911087,50.06926415675819L619.296215309143,50.04182850250504L619.3967504090309,50.014700552148255L628.1768157992364,49.987876505181866L632.7008952941894,49.9613526154207L633.9408281928063,49.93512519006956L634.1754100925446,49.90919058881158L635.0467142915726,49.88354522291504L636.755810989666,49.85818555435889L636.9568811894417,49.83310809497532L641.1793553847314,49.80830940561055L641.5814957842827,49.783786095302304L641.983636183834,49.759534820473256L642.4863116832734,49.735552284141626L642.8549403828621,49.711835235146715L643.8267796817779,49.68838046739029L644.094873281479,49.66518481909317L646.1055752792358,49.64224517206594L647.4125315777778,49.619558450994944L648.8200229762077,49.59712162274125L651.0988185736655,49.57493169565378L655.5223629687309,49.55298571889637L656.6282490674972,49.53128078178723L659.61079036417,49.50981401315136L659.7783488639832,49.488582580685545L659.9794190637589,49.46758369033536L660.3480477633477,49.4468145856849L660.4820945631981,49.42627254735659L661.453933862114,49.40595489242448L662.4257731610298,49.385858973836626L664.1683815590858,49.36598217985L666.6817590562821,49.34632193347542L667.0168760559081,49.32687569193222L667.6200866552354,49.3076409461146L668.8935312538147,49.28861522006695L669.9323939526558,49.26979607046846L675.4283127465247,49.25118108612917L676.7352690450668,49.23276788749276L677.5730615441323,49.21455412615101L678.2768072433471,49.19653748436522L679.7513220417023,49.1787156745973L683.4376090375899,49.16108643904968L688.0957353323937,49.14364754921281L688.4643640319824,49.126396805421294L692.251186127758,49.10933203641774L694.5299817252159,49.09245109892527L695.6693795239448,49.0757518772264L697.4119879220009,49.05923228275086L699.8583420192718,49.04289025366928L701.3663685175895,49.02672375449556L705.1867023133278,49.010730775695144L706.8287756114959,48.99490933330105L710.6491094072342,48.97925746853574L714.9050953024864,48.96377324744045L716.6141920005798,48.948454760510685L716.949309000206,48.93330012233834L718.1222184988976,48.918307471259126L718.4238237985611,48.90347496900717L720.9707129957199,48.88880080037506L722.9143915935516,48.87428317287999L725.930444590187,48.85992031643518L728.0751933877945,48.84571048302756L728.209240187645,48.8316519464001L730.3875006852151,48.81774300174079L731.5604101839066,48.80398196537541L731.6609452837944,48.79036717446656L734.0737876811028,48.77689698671743L736.7882353780747,48.76356978008063L737.5925161771775,48.75038395247154L738.6648905759812,48.73733792148685L739.0000075756072,48.72443012412756L744.0267625699997,48.711659016526916L748.718400564766,48.699023073682206L750.5280323627472,48.686520789191775L751.0307078621864,48.67415067499552L751.5668950615883,48.66191126112045L751.600406761551,48.649801095429595L754.3483661584854,48.637818743375995L755.5882990571023,48.625962787759555L759.1070275531769,48.61423182848884L759.3416094529151,48.60262448234593L759.3751211528778,48.59113938275584L760.7155891513825,48.57977517955878L761.1847529508591,48.56853053878682L762.1565922497749,48.55740414244379L763.5305719482421,48.54639468828832L764.5359229471206,48.53550088962129L765.5077622460365,48.524721475075715L767.8200695434571,48.51405518841022L772.6122426381111,48.50350078830608L774.6899680357933,48.493057048166996L774.9245499355317,48.4827227559225L775.1256201353074,48.47249671383352L775.6282956347466,48.462377738302486L775.8963892344475,48.45236465968498L776.901740233326,48.4424563221044L777.33739233284,48.43265158327095L778.0076263320923,48.42294931430143L778.5773252314567,48.413348399542905L784.0732440253258,48.40384773639972L784.6094312247276,48.394446235160835L786.1844811229706,48.385142818832826L788.9994639198304,48.375936422972785L789.5021394192696,48.366825995525204L793.657590214634,48.35781049666112L796.5731081113815,48.34888889861967L796.707154911232,48.34006018555111L798.0811346096992,48.3313233533637L798.9189271087646,48.32267740957224L800.1923717073441,48.31412137314781L803.8786587032317,48.30565427437194L804.1132406029701,48.29727515469062L807.2298286994935,48.288983066572314L810.4804635958671,48.28077707336681L812.7592591933251,48.272656249166936L813.6640750923157,48.26461967867183L815.1721015906334,48.25666645705247L818.791365186596,48.24879568981912L820.3664150848388,48.24100649269064L821.2377192838668,48.23329799146556L822.6452106822968,48.22566932189555L824.7229360799789,48.21811962956005L826.8676848775864,48.210648069743065L829.7496910743714,48.203253807311945L829.783202774334,48.195936016597216L829.9172495741844,48.1886938812746L830.8555771731377,48.181526594249384L831.0566473729134,48.17443335754076L833.3354429703712,48.16741338216942L834.139723769474,48.160465888045564L840.8085520620347,48.15359010385968L843.8916284585953,48.1467852669738L846.6060761555672,48.14005062331467L847.577915454483,48.13338542726849L848.3151728536606,48.12678894157728L848.616778153324,48.12026043723634L852.638182148838,48.11379919339335L855.8553053452491,48.10740449724858L856.7601212442397,48.101075643956946L857.6314254432677,48.09481193653147L858.569753042221,48.088612685747066L859.1394519415855,48.082477210047195L862.1219932382584,48.076404835450305L862.758715537548,48.07039489545888L863.1943676370621,48.064446730968704L863.898113336277,48.058559690179464L868.0535641316415,48.05273312850788L868.2211226314545,48.04696640849969L868.9583800306319,48.041258899745266L878.3081443202019,48.03560997879446L879.078913419342,48.030019029074026L879.4810538188934,48.024485440805044L879.8496825184822,48.01900861092179L883.4689461144447,48.013587942992544L883.9045982139587,50.00460594800656L884.6418556131363,49.979084374231434L884.7088790130615,49.95382431525545L886.417975711155,49.92882302828228L887.9260022094726,49.904077800553246L889.7691457074166,49.87958594899274L898.7502812973976,49.855344819858296L899.6550971963883,49.83135178839599L903.5089426920891,49.807604258499445L904.9834574904442,49.784099662373585L905.3185744900703,49.76083546020371L913.6629877807618,49.737809139827334L914.8358972794533,49.71501821641133L921.1025851724625,49.69246023213358L921.9738893714905,49.670132755867435L926.4309454665184,49.648033382871375L928.7767644639015,49.626159734482904L928.9778346636773,49.60450945781512L929.1118814635277,49.583080225458446L931.1225834612846,49.56186973518542L932.4965631597519,49.540875709659865L935.4455927564621,49.52009589614953L943.2538188477516,49.49952806624184L944.5272634463311,49.4791700155645L945.5996378451347,49.459019563508654L946.3033835443497,49.43907455295584L947.5098047430039,49.419332850008665L948.113015342331,49.399792343724584L948.2135504422188,49.38045094585302L950.5593694396019,49.361306590576454L958.4011072308541,49.34235723425343L960.7804379281997,49.32360085516653L960.8809730280876,49.30503545327188L961.3501368275643,49.28665904995335L962.5565580262185,49.26846968777811L969.4264565185547,49.25046543025682L972.6770914149284,49.23264436160607L973.1127435144424,49.21500458651331L980.3177590064048,49.19754422990595L980.9879930056572,49.18026143672222L982.1609025043488,49.16315437168559L984.5402332016945,49.14622121908106L985.4115374007225,49.129460182535425L985.7131427003861,49.11286948479928L987.2881925986289,49.0964473675324L988.2600318975449,49.080192091091156L989.3324062963485,49.06410193431857L989.5669881960869,49.04817519433783L990.2707338953018,49.03241018634708L992.1138773932457,49.01680524341747L992.180900793171,49.001358716293986L992.7505996925355,48.98606897319725L993.219763492012,48.970934399629535L996.3028398885726,48.95595339818201L998.0454482866287,48.941124388344306L1007.4287242761612,48.92644580631753L1008.1994933753012,48.911916104827505L1013.0586898698807,48.89753375294255L1016.1082545664786,48.88329723589157L1016.1752779664039,48.869205054885335L1017.91788636446,48.85525572693999L1020.3642404617309,48.841447784702034L1022.1403605597495,48.827779776275676L1022.9446413588524,48.814250265052586L1023.2797583584786,48.80085782954306L1023.3467817584038,48.787601063209785L1025.7261124557494,48.77447857430326L1028.2394899529456,48.76148898569894L1029.613469651413,48.74863093473709L1029.881563251114,50.71985161628716L1030.1496568508148,50.68729087622274L1030.7863791501047,50.65505973594109L1031.2555429495812,50.6231548192726L1032.1938705485343,50.591572785426564L1033.902967246628,50.560310328604494L1034.8748065455438,50.52936417761771L1034.941829945469,50.498731095510294L1036.2152745440483,50.46840787918539L1036.583903243637,50.43839135903693L1038.6951403412818,50.40867839858437L1040.169655139637,50.37926589411321L1040.33721363945,50.3501507743187L1044.4926644348143,50.321329999953576L1046.0677143330574,50.29280056348043L1046.4028313326835,50.26455948872819L1047.7097876312257,50.23660383055197L1048.882697129917,50.208930674497395L1049.2178141295433,50.181537136468364L1049.2848375294686,50.15442036239914L1049.418884329319,50.127577527929965L1050.625305527973,50.10100583808602L1051.2955395272256,50.07470252696107L1053.339753224945,50.04866485740375L1053.3732649249077,50.02289012070788L1053.4067766248704,49.99737563630626L1056.6909232212065,49.972118751468294L1058.567578419113,49.947116841000536L1060.0420932174682,49.9223673069508L1060.5447687169074,49.8978675783161L1061.1814910161972,49.87361511075311L1063.0581462141035,49.8496073862928L1063.6948685133934,49.82584191305741L1065.1693833117486,49.802316224981844L1069.8945330064773,49.779027881536855L1071.8717233042717,49.75597446745593L1072.810050903225,49.733153592466124L1074.4856359013556,49.7105628910202L1077.7697824976922,49.68820002203337L1080.5512535945893,49.66606266862232L1080.6853003944398,49.644148537846974L1081.3890460936548,49.622455360455646L1087.2200818871497,49.60098089063281L1100.5242267723083,49.579722905749804L1104.9812828673362,49.55867920611774L1106.221215765953,49.53784761474482L1106.9919848650932,49.517225977094014L1108.500011363411,49.49681216084536L1109.0697102627753,49.476604055660516L1109.1702453626633,49.456599572948704L1110.3431548613548,49.4367966456375L1112.6889738587379,49.41719322794376L1113.1581376582146,49.397787295149094L1114.1299769571306,49.37857684337642L1119.6258957509995,49.35955988937002L1119.6929191509246,49.340734470277106L1120.0950595504762,49.32209864343286L1122.6419487476348,49.303650486146914L1125.7250251441956,49.285388095492756L1131.958201337242,49.26730958809908L1134.4715788344383,49.249413099943744L1135.2758596335411,49.23169678615022L1136.9849563316345,49.2141588207852L1140.1350561281204,49.19679739666014L1142.078734725952,49.1796107251333L1142.2462932257654,49.16259703591524L1143.5197378243447,49.145754576875426L1144.0559250237463,49.129081613851874L1145.5304398221015,49.112576430462425L1147.9097705194472,49.096237327918026L1149.082680018139,49.08006262483789L1149.685890617466,49.06405065706767L1150.5236831165314,49.04819977749814L1152.5343851142884,49.03250835588726L1153.104084013653,49.01697477868303L1153.6737829130172,49.00159744884913L1154.4445520121576,48.98637478569216L1155.014250911522,48.971305224690305L1158.8680964072228,48.95638721732464L1159.2367251068115,48.941619230912025L1162.788965302849,48.92699974843916L1168.2513723967552,48.91252726839996L1168.6200010963441,48.898200304632404L1168.8210712961197,48.884017386159755L1170.1615392946242,48.86997705703131L1171.2674253933908,48.85607787616644L1171.8036125927924,48.84231841719903L1172.440334892082,48.8286972683246L1174.1494315901755,48.815213032148876L1174.283478390026,48.801864325537196L1174.819665589428,48.78864977946716L1180.4161194831847,48.77556803888092L1180.5166545830725,48.762617762540444L1180.684213082886,48.74979762288378L1183.2311022800445,48.737106305883366L1183.6667543795586,48.724542510905025L1184.1359181790351,48.71210495056924L1185.2753159777642,48.69979235061358L1188.6264859740256,48.68760344975644L1190.000465672493,48.67553699956282L1190.9052815714838,48.663591764310965L1192.2457495699882,48.651766520860434L1193.4186590686797,48.640060058522394L1193.8207994682311,48.62847117892995L1194.1559164678574,48.616998695911306L1194.7926387671469,48.60564143536287L1197.5741098640442,48.59439823512511L1200.6906979605674,48.583267944858655L1204.1424030567168,48.57224942592211L1204.913172155857,48.561341551251445L1209.638321850586,48.55054320524002L1210.241532449913,48.539853283620616L1210.945278149128,48.52927069334813L1212.9224684469223,48.51879435248392L1213.9613311457633,48.50842319008116L1214.6985885449408,48.49815614607126L1215.737451243782,48.4879921711521L1216.943872442436,48.47793022667675L1217.0779192422865,48.46796928454372L1219.4572499396324,48.4581083270884L1219.5577850395202,48.44834634697549L1224.5175166339875,48.438682347092765L1228.036245130062,48.429115340445875L1231.6890204259873,48.41964435005379L1234.235909623146,48.41026840884618L1236.0455414211274,48.400986559561844L1238.2238019186973,48.391797854646974L1238.25731361866,48.38270135615615L1238.6594540182114,48.37369613565305L1238.692965718174,48.364781274113156L1241.2733666152953,48.35595586182687L1243.4181154129028,48.3472189983041L1244.0883494121551,48.33856979217917L1249.2826629063607,48.33000736111777L1250.7571777047158,48.32153083172379L1256.32011989851,48.31313933944781L1258.3978452961921,48.304832028496605L1268.0492148854257,48.29660805174292L1268.3173084851267,48.28846657063704L1269.6912881835938,48.28040675511879L1269.7247998835562,48.27242778353019L1270.8306859823226,48.26452884253013L1271.4674082816123,48.25670912700864L1272.372224180603,48.24896784000267L1272.908411380005,48.241304192612944L1273.3440634795188,48.233717403921155L1273.511621979332,48.22620670090861L1278.0357014742851,48.21877131837519L1278.7729588734628,48.211410498859536L1280.9847310709954,48.20412349255981L1281.0517544709205,48.196909557255395L1281.3868714705468,48.18976795822984L1284.671018066883,48.18269796819336L1287.3184423639298,48.17569886720778L1287.4860008637427,48.16876994261117L1290.26747196064,48.16191048894307L1294.7915514555932,48.15511980787181L1297.841116152191,48.14839720812121L1297.9081395521164,48.14174200539857L1298.913490550995,48.13515352232376L1298.9470022509574,48.1286310883586L1300.4550287492752,48.12217403973645L1302.9013828465463,48.11578171939424L1305.2472018439294,48.10945347690343L1307.2243921417237,48.1031886684023L1308.5313484402657,48.09698665652949L1309.2686058394431,48.09084681035759L1309.5031877391816,48.084768505327425L1309.8718164387703,48.07875112318329L1309.9388398386955,48.072794051908886L1316.2725511316298,48.06689668566374L1317.3784372303962,48.06105842471999L1318.8529520287514,48.05527867540088L1326.39308452034,48.04955685001836L1327.1303419195176,48.0438923668129L1327.5659940190315,48.038284649892596L1329.2080673171997,48.032733129173835L1330.2469300160408,48.027237240322066L1330.9841874152185,48.02179642469365L1332.860842613125,48.01641012927748L1333.464053212452,48.01107780663809L1335.1731499105454,48.0057989148589L1337.1838519083024,48.00057291748624L1340.5350219045638,47.9953992834737L1348.4772947957038,47.99027748712729L1348.644853295517,47.98520700805096L1351.2922775925638,47.98018733109304L1353.5040497900964,47.975217946292815L1354.0737486894607,47.970298348827484L1354.1072603894233,47.96542803896106L1354.743982688713,47.96060652199169L1354.9450528884886,47.95583330820079L1355.883380487442,47.95110791280291L1356.5871261866569,47.946429855895374L1356.8552197863578,47.941798662408765L1358.061640985012,47.93721386205783L1362.5522087800025,47.93267498929336L1363.2894661791802,47.928181583253725L1363.3564895791055,47.92373318771753L1363.4570246789933,47.91932935105659L1363.8591650785447,47.91496962618939L1364.3283288780212,47.91065357053494L1365.1661213770867,47.90638074596726L1365.2666564769745,47.90215071877041L1366.975753175068,47.897963059593316L1373.2089293681145,47.893817343406035L1373.9461867672921,47.88971314945567L1379.4085938611986,47.885650061223416L1384.7034424552917,47.88162766638142L1384.770465855217,47.87764555675053L1385.6082583542825,47.87370332825791L1386.010398753834,47.86980058089634L1386.34551575346,47.865936918681996L1387.5854486520768,47.86211194961444L1388.7918698507308,47.85832528563623L1388.8253815506935,47.85457654259263L1389.1604985503195,47.85086534019283L1389.6966857497216,47.847191301970405L1392.2100632469178,47.8435540552446L1393.0813674459457,47.83995323108213L1394.019695044899,47.836388464259514L1394.1872535447121,47.832859393225114L1398.5102628398895,47.82936566006284L1399.9847776382446,47.82590691045426L1401.59333923645,47.8224827936433L1402.2635732357026,47.81909296239929L1402.4981551354408,47.81573707298266L1408.5302611287118,47.81241478510799L1411.4122673254965,47.80912576191045L1414.0596916225434,47.805869669910734L1414.093203322506,47.8026461789809L1415.5006947209358,47.799454962310556L1416.9416978193283,47.796295696373264L1417.9805605181696,47.79316806089358L1419.4885870164871,47.79007173881406L1423.509991012001,47.78700641626279L1424.4818303109168,47.783971782521405L1424.8839707104682,47.78096752999299L1427.59841840744,47.77799335417094L1428.402699206543,47.77504895360727L1428.737816206169,47.77213402988233L1429.341026805496,47.769248287573824L1429.7431672050475,47.76639143422649L1430.1117959046364,47.763563180322684L1430.7150065039634,47.760763239252505L1431.0836352035521,47.75799132728419L1434.9709923992157,47.75524716353529L1436.1439018979074,47.75253046994428L1436.8141358971595,47.749840971241376L1444.0861747890472,47.74717839492117L1444.7564087882995,47.744542471214224L1446.1639001867293,47.7419329330596L1446.5995522862436,47.73934951607781L1449.179953183365,47.73679195854352L1449.3810233831405,47.734260001358756L1450.587444581795,47.7317533880267L1452.1960061800003,47.72927186462546L1455.7482463760375,47.72681517978154L1456.3514569753647,47.724383084645105L1458.1275770733832,47.72197533286374L1458.9318578724863,47.71959168055783L1463.657007567215,47.71723188629545L1464.8299170659066,47.71489571106751L1465.0980106656075,47.71258291826369L1465.299080865383,47.710293273648126L1465.9358031646727,47.70802654533542L1466.706572263813,47.70578250376729L1469.1194146611215,47.70356092168852L1472.202491057682,47.70136157412463L1473.2078420565606,47.699184238358214L1474.1126579555512,47.69702869390635L1474.213193055439,47.6948947224983L1476.1903833532333,47.69278210805333L1476.223895053196,47.69069063665834L1477.195734352112,47.688620096546025L1477.9329917512894,47.6865702780739L1480.580416048336,47.684540973702084L1480.680951148224,47.68253197797273L1481.5187436472893,47.68054308748875L1483.2278403453827,47.67857410089328L1484.3002147441864,47.67662481884906L1484.9034253435136,47.67469504401829L1489.5280399383546,47.67278458104234L1489.7291101381302,47.67089323652164L1489.8966686379433,47.669020818996316L1490.7344611370086,47.66716713892672L1491.5387419361116,47.66533200867387L1492.2089759353637,47.66351524248031L1493.6834907337188,47.661716656451766L1494.018607733345,47.65993606853728L1494.1526545331956,47.65817329851199L1497.6378713293075,47.656428167957806L1498.9783393278124,47.65470050024565L1499.782620126915,47.652990120517416L1502.3295093240738,47.65129685566815L1503.4353954228402,47.64962053432838L1503.9380709222794,47.64796098684694L1504.2061645219803,47.64631804527318L1505.3790740206719,47.6446915433403L1505.6806793203355,47.64308131644832L1506.9876356188772,47.64148720164739L1507.0211473188401,47.639909037621024L1508.2945919174194,47.63834666466976L1508.931314216709,47.636799924695055L1509.2329195163727,47.635268661183055L1509.6685716158868,47.633752719188685L1517.510309407139,47.63225194531993L1517.6108445070267,47.63076618772221L1520.5598741037368,47.629295296063084L1520.72743260355,47.627839121516416L1523.2072984007834,47.626397516748185L1528.7032171946526,47.62497033590033L1529.4404745938302,47.62355743457735L1531.015524492073,47.62215866983009L1533.6294370891571,47.62077390014234L1533.9310423888207,47.61940298541596L1534.165624288559,47.61804578695663L1534.4002061882973,47.616702167460076L1535.0034167876242,47.61537199099758L1537.1481655852317,47.61405512300284L1537.8854229844094,47.61275143025761L1543.414853478241,47.611460780878666L1545.0234150764466,47.61018304430413L1545.2579969761848,47.60891809128032L1546.5314415747644,47.60766579384862L1548.7097020723343,47.60642602533249L1551.3906380693434,47.605198660324426L1555.277995265007,47.60398357467342L1555.6801356645585,47.60278064547233L1559.3999343604087,47.6015897510454L1560.0366566596986,47.60041077093564L1560.4723087592124,47.599243585892886L1561.9803352575302,47.5980880778618L1563.7899670555116,47.596944129969394L1568.448093350315,47.595811626513694L1569.4534443491934,47.594690452951475L1571.9668218463898,47.59358049588718L1572.0673569462776,47.59248164306099L1572.905149445343,47.591393783337786L1575.1169216428757,47.59031680669527L1575.5860854423522,49.56132670225358L1577.2616704404832,49.540546442153186L1578.065951239586,49.51997406775367L1578.9372554386139,49.499607498543796L1579.2388607382775,49.47944467485047L1579.6410011378287,49.45948355762958L1580.1771883372307,49.439722128259014L1581.3165861359596,49.420158388333824L1584.3326391325952,49.40079035946396L1585.639595431137,49.381616083072316L1587.2481570293426,49.36263362019739L1587.6838091288566,49.34384105129557L1587.8848793286322,49.32523647604673L1587.918391028595,49.30681801316166L1588.6556484277726,49.288583800190686L1588.9237420274735,49.2705319933351L1590.7333738254547,49.25266076726025L1594.0510321217537,49.23496831491001L1595.2574533204079,49.21745284732353L1598.4410648168564,49.20011259345423L1599.1112988161087,49.18294579998968L1599.949091315174,49.16595073117398L1601.7587231131554,49.14912566863183L1603.6688900110244,49.132468911193996L1605.2104282093048,49.11597877472516L1609.8350428041458,49.09965359195269L1614.6942392987253,49.08349171229815L1616.0682189971924,49.067491501709135L1617.1070816960334,49.051651342494836L1617.241128495884,49.03596963316048L1617.6432688954353,49.02044478824623L1619.8215293930054,49.00507523816588L1621.9997898905754,48.989859429047904L1622.301395190239,48.97479582257775L1623.8429333885192,48.95988289584199L1629.2048053825379,48.945119141174224L1630.4782499811172,48.93050306600167L1636.074703874874,48.91603319269459L1639.6269440709113,48.90170805841573L1645.2233979646683,48.88752621497317L1646.9324946627619,48.87348622867216L1647.334635062313,48.85958668017087L1650.8868752583503,48.84582616433631L1659.0302183492659,48.83220329010185L1659.0637300492288,48.81871668032592L1662.4819234454155,48.80536497165319L1662.6494819452284,48.792146814375876L1663.1521574446679,48.77906087229717L1663.2526925445557,48.76610582259564L1663.6213212441444,48.753280355691786L1664.191020143509,48.74058317511459L1664.3250669433594,48.72801299737071L1664.8612541427613,48.71556855181423L1665.3639296422004,48.70324858051817L1665.8330934416772,48.69105183814642L1667.1735614401819,48.67897709182861L1667.4081433399201,48.66702312103425L1668.0448656392098,48.65518871744955L1671.9992462347984,48.64347268485498L1672.2673398344994,48.631873839004335L1672.3343632344245,48.62039100750429L1672.9375738337517,48.60902302969593L1673.7418546328545,48.5977687565374L1680.3771712254525,48.58662705048717L1682.5554317230224,48.575596785388726L1683.024595522499,48.564676846357344L1685.7725549194336,48.55386612966617L1688.1183739168168,48.543163542635064L1692.5084066119193,48.532568003519685L1693.7483395105362,48.52207844140222L1695.5579713085176,48.5116937960825L1698.8756296048164,48.50141301797113L1699.6463987039567,48.491235067983006L1701.9251943014146,48.48115891743196L1702.226799601078,48.47118354792687L1702.4613815008163,48.46130795126821L1703.8688728992463,48.45153112934653L1704.0364313990594,48.441852094040755L1705.812551497078,48.43226986711869L1707.2535545954704,48.4227834801376L1708.2924172943115,48.413391974346325L1709.8004437926293,48.40409440058826L1712.6824499894142,48.39488981920519L1716.1006433856012,48.385777299942305L1716.8714124847413,48.37675592185372L1717.0054592845916,48.367824773209804L1717.943786883545,48.358982951404265L1718.8486027825356,48.35022956286326L1718.9156261824608,48.34156372295469L1719.6193718816755,48.33298455589844L1720.3901409808159,48.32449119467867L1723.8418460769653,48.31608278095492L1732.2197710676194,48.307758464975976L1732.6219114671708,48.29951740549344L1733.2586337664604,48.29135876967717L1735.8390346635817,48.283281733030066L1738.0843185610772,48.27528547930558L1739.6258567593575,48.267369200424696L1740.4971609583856,48.259532096393905L1741.2009066576004,48.251773375224694L1745.2893340530395,48.244092252853285L1746.7638488513946,48.23648795306098L1752.2597676452635,48.22895970739597L1752.6283963448525,48.221506755095646L1754.3039813429834,48.21412834300919L1757.6886630392073,48.206823725521545L1758.0572917387963,48.19959216447837L1761.30792663517,48.1924329291109L1761.7770904346467,48.18534529596177L1762.2462542341232,48.17832854881263L1762.8494648334504,48.17138197861121L1762.9499999333382,48.1645048833992L1763.754280732441,48.157696568242024L1764.5920732315064,48.15095634515782L1768.3453836273193,48.144283533048416L1770.8922728244781,48.13767745763011L1778.7340106157303,48.131137451365205L1778.9015691155435,48.12466285339533L1779.4042446149826,48.11825300947334L1780.1079903141974,48.1119072718985L1782.0516689120293,48.10562499944973L1782.6213678113936,48.099405557321575L1783.8948124099732,48.093248317059675L1784.1964177096365,48.08715265649734L1784.2634411095619,48.08111795969211L1786.1400963074684,48.075143616864125L1788.8210323044777,48.06922902433428L1791.3008981017113,48.06337358446279L1792.1722023007392,48.05757670558908L1793.2110649995805,48.05183780197174L1795.355813797188,48.04615629372959L1795.7579541967393,48.040531606782764L1804.8396248866081,48.034963172794534L1807.8891895832062,48.029450429114284L1812.279222278309,48.02399281872006L1812.3127339782714,48.018589790162544L1812.5138041780472,48.01324079750933L1816.4346730736731,48.007945300289656L1818.9145388709067,48.00270276343946L1823.271059866047,47.99751265724762L1823.371594965935,47.99237445730233L1823.5726651657105,47.98728764443809L1823.6732002655983,47.98225170468274L1824.041828965187,47.97726612920605L1824.745574664402,47.9723304142682L1825.9184841630936,47.9674440611687L1826.1530660628318,47.962606576195626L1833.391593254757,47.957817470576366L1834.5309910534859,47.95307626042775L1835.670388852215,47.948382466707216L1837.5135323501588,47.943735615164336L1837.9156727497102,47.93913523629306L1838.6529301488877,47.934580865283834L1839.0885822484015,47.93007204197696L1843.1434979438782,47.925608310815996" fill="none"></path></g></g></g></g><g opacity="0.2"><g><g><g><path style="fill: none;" stroke="rgb(255, 112, 67)" stroke-width="2px" d="M170.6080645096779,337.51718946386103L171.47936870870592,213.98365413121047L173.52358240642548,88.98629650135825L175.60130780410768,88.98629650135825L176.77421730279923,71.94467055135723L181.03020319805145,47.483718196373985L183.51006899528502,47.483718196373985L184.0462561946869,47.483718196373985L184.91756039371492,47.483718196373985L185.01809549360274,47.483718196373985L188.3022420899391,47.483718196373985L188.43628888978958,47.483718196373985L188.4698005897522,47.483718196373985L189.3411047887802,47.483718196373985L190.9496663869858,47.483718196373985L193.76464918384553,47.483718196373985L195.90939798145294,47.483718196373985L196.74719048051836,47.483718196373985L200.93615297584535,47.483718196373985L203.1144134734154,47.483718196373985L205.19213887109757,47.483718196373985L205.29267397098542,47.483718196373985L205.62779097061158,47.483718196373985L207.40391106863024,47.483718196373985L208.27521526765824,47.483718196373985L208.643843967247,47.483718196373985L208.91193756694796,47.483718196373985L209.1800311666489,47.483718196373985L213.36899366197585,47.483718196373985L214.50839146070481,47.483718196373985L215.24564885988238,47.483718196373985L215.84885945920945,47.483718196373985L217.85956145696642,47.483718196373985L221.74691865262986,47.483718196373985L222.98685155124664,47.483718196373985L229.05246924448014,47.483718196373985L229.1865160443306,47.483718196373985L230.49347234287262,47.483718196373985L232.57119774055482,47.483718196373985L241.51882163057326,47.483718196373985L241.55233333053587,47.483718196373985L246.94771702451706,47.483718196373985L247.81902122354506,47.483718196373985L247.98657972335815,47.483718196373985L248.42223182287213,47.483718196373985L251.30423801965713,47.483718196373985L252.00798371887205,47.483718196373985L253.01333471775052,47.483718196373985L253.61654531707762,47.483718196373985L255.72778241472247,47.483718196373985L256.63259831371306,47.483718196373985L257.1017621131897,47.483718196373985L257.9060429122925,47.483718196373985L259.98376830997466,47.483718196373985L262.9998213066101,47.483718196373985L264.27326590518953,47.483718196373985L267.89252950115207,47.483718196373985L268.56276350040434,47.483718196373985L268.6968103002548,47.483718196373985L270.4729303982735,47.483718196373985L271.8469100967407,47.483718196373985L272.0479802965164,47.483718196373985L275.23159179296493,47.483718196373985L276.10289599199297,47.483718196373985L276.50503639154437,47.483718196373985L278.88436708889003,47.483718196373985L280.15781168746946,47.483718196373985L281.36423288612366,47.483718196373985L284.07868058309555,47.483718196373985L284.44730928268433,47.483718196373985L284.98349648208614,47.483718196373985L286.25694108066557,47.483718196373985L286.5585463803292,47.483718196373985L288.0665728786468,47.483718196373985L288.66978347797397,47.483718196373985L296.07586916971206,47.483718196373985L297.58389566802975,47.483718196373985L299.0919221663475,47.483718196373985L299.8962029654503,47.483718196373985L300.53292526473996,47.483718196373985L301.4377411637306,47.483718196373985L302.6441623623848,47.483718196373985L303.1803495617866,47.483718196373985L304.65486436014174,47.483718196373985L308.1065694562912,47.483718196373985L311.8263681521415,47.483718196373985L316.7860997466087,47.483718196373985L320.20429314279556,47.483718196373985L320.37185164260865,47.483718196373985L320.6399452423096,47.483718196373985L320.80750374212266,47.483718196373985L321.6452962411881,47.483718196373985L322.4495770402908,47.483718196373985L322.91874083976745,47.483718196373985L324.9964662374496,47.483718196373985L326.26991083602906,47.483718196373985L333.8770667275429,47.483718196373985L334.0111135273933,47.483718196373985L334.51378902683257,47.483718196373985L334.9829528263092,47.483718196373985L336.18937402496334,47.483718196373985L336.89311972417835,47.483718196373985L338.5687047223091,47.483718196373985L339.27245042152407,47.483718196373985L339.6410791211128,47.483718196373985L340.74696521987914,47.483718196373985L341.2496407193184,47.483718196373985L342.154456618309,47.483718196373985L342.8246906175614,47.483718196373985L347.1812116127014,244.6513060454304L352.34201340694426,47.483718196373985L353.85003990526195,47.483718196373985L355.86074190301895,47.483718196373985L357.3017450014114,47.483718196373985L358.40763110017775,47.483718196373985L360.4183330979347,47.483718196373985L361.4236840968132,47.483718196373985L362.6301052954674,47.483718196373985L367.82441878967285,47.483718196373985L368.1260240893364,47.483718196373985L368.595187888813,47.483718196373985L369.0643516882896,47.483718196373985L372.08040468492504,47.483718196373985L372.8511737840653,47.483718196373985L373.6219428832054,47.483718196373985L375.5321097810745,47.483718196373985L376.0012735805511,244.6513060454304L377.74388197860713,47.483718196373985L381.3296338746071,47.483718196373985L382.3349848734856,47.483718196373985L382.3684965734482,47.483718196373985L382.469031673336,47.483718196373985L382.77063697299957,47.483718196373985L383.0722422726631,47.483718196373985L386.0212718693733,47.483718196373985L386.3228771690369,47.483718196373985L390.74642156410215,47.483718196373985L392.0868895626068,47.483718196373985L392.15391296253205,47.483718196373985L394.66729045972824,47.483718196373985L395.035919159317,47.483718196373985L395.27050105905533,47.483718196373985L397.08013285703663,47.483718196373985L399.4259518544197,47.483718196373985L401.06802515258784,47.483718196373985L401.3026070523262,47.483718196373985L403.34682075004577,47.483718196373985L405.72615144739154,47.483718196373985L409.2113682435036,47.483718196373985L409.5464852431297,47.483718196373985L411.95932764043806,47.483718196373985L412.0933744402885,47.483718196373985L415.2099625368118,47.483718196373985L415.77966143617635,47.483718196373985L416.7179890351295,47.483718196373985L417.0195943347931,47.483718196373985L419.5329718319893,47.483718196373985L422.8171184283256,47.483718196373985L423.99002792701725,47.483718196373985L426.53691712417606,47.483718196373985L428.07845532245636,47.483718196373985L431.36260191879273,244.6513060454304L435.2499591144562,47.483718196373985L435.3169825143814,47.483718196373985L436.65745051288604,47.483718196373985L442.1868810067177,47.483718196373985L442.6560448061943,47.483718196373985L443.6949075050354,47.483718196373985L445.8061446026802,47.483718196373985L448.5541039996147,47.483718196373985L448.85570929927826,47.483718196373985L453.74841749382017,47.483718196373985L453.94948769359587,47.483718196373985L456.89851729030613,47.483718196373985L457.4011927897453,47.483718196373985L457.9708916891098,47.483718196373985L461.22152658548356,47.483718196373985L461.35557338533397,47.483718196373985L462.8635998836517,47.483718196373985L469.39838137636184,47.483718196373985L470.80587277479174,47.483718196373985L470.97343127460476,47.483718196373985L471.8447354736328,47.483718196373985L472.4479460729599,47.483718196373985L474.45864807071683,47.483718196373985L474.8272767703056,47.483718196373985L476.6369085682869,47.483718196373985L480.3567072641373,244.6513060454304L480.4907540639877,47.483718196373985L483.87543576021193,47.483718196373985L484.74673995923996,47.483718196373985L484.7802516592026,47.483718196373985L485.8861377579689,47.483718196373985L487.1930940565109,47.483718196373985L489.23730775423047,47.483718196373985L489.27081945419314,47.483718196373985L489.3378428541184,47.483718196373985L490.41021725292205,47.483718196373985L490.5107523528099,47.483718196373985L493.96245744895936,47.483718196373985L494.1970393486977,47.483718196373985L495.63804244709013,47.483718196373985L495.7720892469406,47.483718196373985L495.8056009469032,47.483718196373985L495.8391126468659,47.483718196373985L496.0401828466415,47.483718196373985L496.609881746006,47.483718196373985L497.2801157452583,47.483718196373985L498.92218904342656,47.483718196373985L499.62593474264145,47.483718196373985L501.73717184028624,47.483718196373985L503.11115153875346,47.483718196373985L503.34573343849183,47.483718196373985L504.4851312372208,47.483718196373985L504.7867365368843,47.483718196373985L506.8979736345291,47.483718196373985L506.99850873441693,47.483718196373985L512.8630562278747,47.483718196373985L513.968942326641,47.483718196373985L515.979644324398,47.483718196373985L523.1511481163978,47.483718196373985L524.625662914753,47.483718196373985L525.7315490135193,47.483718196373985L526.8374351122857,47.483718196373985L527.7087393113137,47.483718196373985L528.4124850105285,47.483718196373985L530.2221168085098,47.483718196373985L535.4164303027153,47.483718196373985L535.4834537026405,47.483718196373985L537.4606440004349,47.483718196373985L542.7890042944908,47.483718196373985L544.5651243925095,47.483718196373985L546.5423146903038,47.483718196373985L547.3801071893691,47.483718196373985L548.2514113883972,47.483718196373985L549.6589027868271,47.483718196373985L552.5744206835747,47.483718196373985L554.3505407815933,47.483718196373985L555.691008780098,47.483718196373985L556.3612427793503,47.483718196373985L556.562312979126,47.483718196373985L560.3826467748642,47.483718196373985L561.790138173294,47.483718196373985L566.1131474684715,47.483718196373985L566.4482644680977,47.483718196373985L566.6493346678734,47.483718196373985L568.7605717655182,47.483718196373985L569.1962238650323,47.483718196373985L569.2632472649575,47.483718196373985L570.4026450636864,47.483718196373985L572.5138821613311,47.483718196373985L573.6197682600975,47.483718196373985L574.6586309589386,47.483718196373985L575.1277947584151,47.483718196373985L576.4012393569947,47.483718196373985L576.5687978568077,47.483718196373985L576.803379756546,47.483718196373985L577.9427775552749,47.483718196373985L580.1545497528076,47.483718196373985L582.7684623498917,47.483718196373985L586.0861206461906,47.483718196373985L586.9574248452186,47.483718196373985L587.5606354445458,47.483718196373985L587.9292641441345,47.483718196373985L588.5659864434242,47.483718196373985L594.3970222369195,47.483718196373985L594.53106903677,47.483718196373985L595.838025335312,47.483718196373985L598.5189613323212,47.483718196373985L598.6530081321716,47.483718196373985L598.9211017318726,47.483718196373985L599.0886602316856,47.483718196373985L599.1891953315735,47.483718196373985L604.0148801261902,47.483718196373985L606.0926055238724,47.483718196373985L608.9411000206948,47.483718196373985L609.4102638201713,47.483718196373985L610.7172201187134,47.483718196373985L611.18638391819,47.483718196373985L613.8338082152367,47.483718196373985L615.5429049133301,47.483718196373985L616.1461155126572,47.483718196373985L617.553606911087,47.483718196373985L619.296215309143,47.483718196373985L619.3967504090309,47.483718196373985L628.1768157992364,47.483718196373985L632.7008952941894,47.483718196373985L633.9408281928063,47.483718196373985L634.1754100925446,47.483718196373985L635.0467142915726,47.483718196373985L636.755810989666,47.483718196373985L636.9568811894417,47.483718196373985L641.1793553847314,47.483718196373985L641.5814957842827,47.483718196373985L641.983636183834,47.483718196373985L642.4863116832734,47.483718196373985L642.8549403828621,47.483718196373985L643.8267796817779,47.483718196373985L644.094873281479,47.483718196373985L646.1055752792358,47.483718196373985L647.4125315777778,47.483718196373985L648.8200229762077,47.483718196373985L651.0988185736655,47.483718196373985L655.5223629687309,47.483718196373985L656.6282490674972,47.483718196373985L659.61079036417,47.483718196373985L659.7783488639832,47.483718196373985L659.9794190637589,47.483718196373985L660.3480477633477,47.483718196373985L660.4820945631981,47.483718196373985L661.453933862114,47.483718196373985L662.4257731610298,47.483718196373985L664.1683815590858,47.483718196373985L666.6817590562821,47.483718196373985L667.0168760559081,47.483718196373985L667.6200866552354,47.483718196373985L668.8935312538147,47.483718196373985L669.9323939526558,47.483718196373985L675.4283127465247,47.483718196373985L676.7352690450668,47.483718196373985L677.5730615441323,47.483718196373985L678.2768072433471,47.483718196373985L679.7513220417023,47.483718196373985L683.4376090375899,47.483718196373985L688.0957353323937,47.483718196373985L688.4643640319824,47.483718196373985L692.251186127758,47.483718196373985L694.5299817252159,47.483718196373985L695.6693795239448,47.483718196373985L697.4119879220009,47.483718196373985L699.8583420192718,47.483718196373985L701.3663685175895,47.483718196373985L705.1867023133278,47.483718196373985L706.8287756114959,47.483718196373985L710.6491094072342,47.483718196373985L714.9050953024864,47.483718196373985L716.6141920005798,47.483718196373985L716.949309000206,47.483718196373985L718.1222184988976,47.483718196373985L718.4238237985611,47.483718196373985L720.9707129957199,47.483718196373985L722.9143915935516,47.483718196373985L725.930444590187,47.483718196373985L728.0751933877945,47.483718196373985L728.209240187645,47.483718196373985L730.3875006852151,47.483718196373985L731.5604101839066,47.483718196373985L731.6609452837944,47.483718196373985L734.0737876811028,47.483718196373985L736.7882353780747,47.483718196373985L737.5925161771775,47.483718196373985L738.6648905759812,47.483718196373985L739.0000075756072,47.483718196373985L744.0267625699997,47.483718196373985L748.718400564766,47.483718196373985L750.5280323627472,47.483718196373985L751.0307078621864,47.483718196373985L751.5668950615883,47.483718196373985L751.600406761551,47.483718196373985L754.3483661584854,47.483718196373985L755.5882990571023,47.483718196373985L759.1070275531769,47.483718196373985L759.3416094529151,47.483718196373985L759.3751211528778,47.483718196373985L760.7155891513825,47.483718196373985L761.1847529508591,47.483718196373985L762.1565922497749,47.483718196373985L763.5305719482421,47.483718196373985L764.5359229471206,47.483718196373985L765.5077622460365,47.483718196373985L767.8200695434571,47.483718196373985L772.6122426381111,47.483718196373985L774.6899680357933,47.483718196373985L774.9245499355317,47.483718196373985L775.1256201353074,47.483718196373985L775.6282956347466,47.483718196373985L775.8963892344475,47.483718196373985L776.901740233326,47.483718196373985L777.33739233284,47.483718196373985L778.0076263320923,47.483718196373985L778.5773252314567,47.483718196373985L784.0732440253258,47.483718196373985L784.6094312247276,47.483718196373985L786.1844811229706,47.483718196373985L788.9994639198304,47.483718196373985L789.5021394192696,47.483718196373985L793.657590214634,47.483718196373985L796.5731081113815,47.483718196373985L796.707154911232,47.483718196373985L798.0811346096992,47.483718196373985L798.9189271087646,47.483718196373985L800.1923717073441,47.483718196373985L803.8786587032317,47.483718196373985L804.1132406029701,47.483718196373985L807.2298286994935,47.483718196373985L810.4804635958671,47.483718196373985L812.7592591933251,47.483718196373985L813.6640750923157,47.483718196373985L815.1721015906334,47.483718196373985L818.791365186596,47.483718196373985L820.3664150848388,47.483718196373985L821.2377192838668,47.483718196373985L822.6452106822968,47.483718196373985L824.7229360799789,47.483718196373985L826.8676848775864,47.483718196373985L829.7496910743714,47.483718196373985L829.783202774334,47.483718196373985L829.9172495741844,47.483718196373985L830.8555771731377,47.483718196373985L831.0566473729134,47.483718196373985L833.3354429703712,47.483718196373985L834.139723769474,47.483718196373985L840.8085520620347,47.483718196373985L843.8916284585953,47.483718196373985L846.6060761555672,47.483718196373985L847.577915454483,47.483718196373985L848.3151728536606,47.483718196373985L848.616778153324,47.483718196373985L852.638182148838,47.483718196373985L855.8553053452491,47.483718196373985L856.7601212442397,47.483718196373985L857.6314254432677,47.483718196373985L858.569753042221,47.483718196373985L859.1394519415855,47.483718196373985L862.1219932382584,47.483718196373985L862.758715537548,47.483718196373985L863.1943676370621,47.483718196373985L863.898113336277,47.483718196373985L868.0535641316415,47.483718196373985L868.2211226314545,47.483718196373985L868.9583800306319,47.483718196373985L878.3081443202019,47.483718196373985L879.078913419342,47.483718196373985L879.4810538188934,47.483718196373985L879.8496825184822,47.483718196373985L883.4689461144447,47.483718196373985L883.9045982139587,244.6513060454304L884.6418556131363,47.483718196373985L884.7088790130615,47.483718196373985L886.417975711155,47.483718196373985L887.9260022094726,47.483718196373985L889.7691457074166,47.483718196373985L898.7502812973976,47.483718196373985L899.6550971963883,47.483718196373985L903.5089426920891,47.483718196373985L904.9834574904442,47.483718196373985L905.3185744900703,47.483718196373985L913.6629877807618,47.483718196373985L914.8358972794533,47.483718196373985L921.1025851724625,47.483718196373985L921.9738893714905,47.483718196373985L926.4309454665184,47.483718196373985L928.7767644639015,47.483718196373985L928.9778346636773,47.483718196373985L929.1118814635277,47.483718196373985L931.1225834612846,47.483718196373985L932.4965631597519,47.483718196373985L935.4455927564621,47.483718196373985L943.2538188477516,47.483718196373985L944.5272634463311,47.483718196373985L945.5996378451347,47.483718196373985L946.3033835443497,47.483718196373985L947.5098047430039,47.483718196373985L948.113015342331,47.483718196373985L948.2135504422188,47.483718196373985L950.5593694396019,47.483718196373985L958.4011072308541,47.483718196373985L960.7804379281997,47.483718196373985L960.8809730280876,47.483718196373985L961.3501368275643,47.483718196373985L962.5565580262185,47.483718196373985L969.4264565185547,47.483718196373985L972.6770914149284,47.483718196373985L973.1127435144424,47.483718196373985L980.3177590064048,47.483718196373985L980.9879930056572,47.483718196373985L982.1609025043488,47.483718196373985L984.5402332016945,47.483718196373985L985.4115374007225,47.483718196373985L985.7131427003861,47.483718196373985L987.2881925986289,47.483718196373985L988.2600318975449,47.483718196373985L989.3324062963485,47.483718196373985L989.5669881960869,47.483718196373985L990.2707338953018,47.483718196373985L992.1138773932457,47.483718196373985L992.180900793171,47.483718196373985L992.7505996925355,47.483718196373985L993.219763492012,47.483718196373985L996.3028398885726,47.483718196373985L998.0454482866287,47.483718196373985L1007.4287242761612,47.483718196373985L1008.1994933753012,47.483718196373985L1013.0586898698807,47.483718196373985L1016.1082545664786,47.483718196373985L1016.1752779664039,47.483718196373985L1017.91788636446,47.483718196373985L1020.3642404617309,47.483718196373985L1022.1403605597495,47.483718196373985L1022.9446413588524,47.483718196373985L1023.2797583584786,47.483718196373985L1023.3467817584038,47.483718196373985L1025.7261124557494,47.483718196373985L1028.2394899529456,47.483718196373985L1029.613469651413,47.483718196373985L1029.881563251114,244.6513060454304L1030.1496568508148,47.483718196373985L1030.7863791501047,47.483718196373985L1031.2555429495812,47.483718196373985L1032.1938705485343,47.483718196373985L1033.902967246628,47.483718196373985L1034.8748065455438,47.483718196373985L1034.941829945469,47.483718196373985L1036.2152745440483,47.483718196373985L1036.583903243637,47.483718196373985L1038.6951403412818,47.483718196373985L1040.169655139637,47.483718196373985L1040.33721363945,47.483718196373985L1044.4926644348143,47.483718196373985L1046.0677143330574,47.483718196373985L1046.4028313326835,47.483718196373985L1047.7097876312257,47.483718196373985L1048.882697129917,47.483718196373985L1049.2178141295433,47.483718196373985L1049.2848375294686,47.483718196373985L1049.418884329319,47.483718196373985L1050.625305527973,47.483718196373985L1051.2955395272256,47.483718196373985L1053.339753224945,47.483718196373985L1053.3732649249077,47.483718196373985L1053.4067766248704,47.483718196373985L1056.6909232212065,47.483718196373985L1058.567578419113,47.483718196373985L1060.0420932174682,47.483718196373985L1060.5447687169074,47.483718196373985L1061.1814910161972,47.483718196373985L1063.0581462141035,47.483718196373985L1063.6948685133934,47.483718196373985L1065.1693833117486,47.483718196373985L1069.8945330064773,47.483718196373985L1071.8717233042717,47.483718196373985L1072.810050903225,47.483718196373985L1074.4856359013556,47.483718196373985L1077.7697824976922,47.483718196373985L1080.5512535945893,47.483718196373985L1080.6853003944398,47.483718196373985L1081.3890460936548,47.483718196373985L1087.2200818871497,47.483718196373985L1100.5242267723083,47.483718196373985L1104.9812828673362,47.483718196373985L1106.221215765953,47.483718196373985L1106.9919848650932,47.483718196373985L1108.500011363411,47.483718196373985L1109.0697102627753,47.483718196373985L1109.1702453626633,47.483718196373985L1110.3431548613548,47.483718196373985L1112.6889738587379,47.483718196373985L1113.1581376582146,47.483718196373985L1114.1299769571306,47.483718196373985L1119.6258957509995,47.483718196373985L1119.6929191509246,47.483718196373985L1120.0950595504762,47.483718196373985L1122.6419487476348,47.483718196373985L1125.7250251441956,47.483718196373985L1131.958201337242,47.483718196373985L1134.4715788344383,47.483718196373985L1135.2758596335411,47.483718196373985L1136.9849563316345,47.483718196373985L1140.1350561281204,47.483718196373985L1142.078734725952,47.483718196373985L1142.2462932257654,47.483718196373985L1143.5197378243447,47.483718196373985L1144.0559250237463,47.483718196373985L1145.5304398221015,47.483718196373985L1147.9097705194472,47.483718196373985L1149.082680018139,47.483718196373985L1149.685890617466,47.483718196373985L1150.5236831165314,47.483718196373985L1152.5343851142884,47.483718196373985L1153.104084013653,47.483718196373985L1153.6737829130172,47.483718196373985L1154.4445520121576,47.483718196373985L1155.014250911522,47.483718196373985L1158.8680964072228,47.483718196373985L1159.2367251068115,47.483718196373985L1162.788965302849,47.483718196373985L1168.2513723967552,47.483718196373985L1168.6200010963441,47.483718196373985L1168.8210712961197,47.483718196373985L1170.1615392946242,47.483718196373985L1171.2674253933908,47.483718196373985L1171.8036125927924,47.483718196373985L1172.440334892082,47.483718196373985L1174.1494315901755,47.483718196373985L1174.283478390026,47.483718196373985L1174.819665589428,47.483718196373985L1180.4161194831847,47.483718196373985L1180.5166545830725,47.483718196373985L1180.684213082886,47.483718196373985L1183.2311022800445,47.483718196373985L1183.6667543795586,47.483718196373985L1184.1359181790351,47.483718196373985L1185.2753159777642,47.483718196373985L1188.6264859740256,47.483718196373985L1190.000465672493,47.483718196373985L1190.9052815714838,47.483718196373985L1192.2457495699882,47.483718196373985L1193.4186590686797,47.483718196373985L1193.8207994682311,47.483718196373985L1194.1559164678574,47.483718196373985L1194.7926387671469,47.483718196373985L1197.5741098640442,47.483718196373985L1200.6906979605674,47.483718196373985L1204.1424030567168,47.483718196373985L1204.913172155857,47.483718196373985L1209.638321850586,47.483718196373985L1210.241532449913,47.483718196373985L1210.945278149128,47.483718196373985L1212.9224684469223,47.483718196373985L1213.9613311457633,47.483718196373985L1214.6985885449408,47.483718196373985L1215.737451243782,47.483718196373985L1216.943872442436,47.483718196373985L1217.0779192422865,47.483718196373985L1219.4572499396324,47.483718196373985L1219.5577850395202,47.483718196373985L1224.5175166339875,47.483718196373985L1228.036245130062,47.483718196373985L1231.6890204259873,47.483718196373985L1234.235909623146,47.483718196373985L1236.0455414211274,47.483718196373985L1238.2238019186973,47.483718196373985L1238.25731361866,47.483718196373985L1238.6594540182114,47.483718196373985L1238.692965718174,47.483718196373985L1241.2733666152953,47.483718196373985L1243.4181154129028,47.483718196373985L1244.0883494121551,47.483718196373985L1249.2826629063607,47.483718196373985L1250.7571777047158,47.483718196373985L1256.32011989851,47.483718196373985L1258.3978452961921,47.483718196373985L1268.0492148854257,47.483718196373985L1268.3173084851267,47.483718196373985L1269.6912881835938,47.483718196373985L1269.7247998835562,47.483718196373985L1270.8306859823226,47.483718196373985L1271.4674082816123,47.483718196373985L1272.372224180603,47.483718196373985L1272.908411380005,47.483718196373985L1273.3440634795188,47.483718196373985L1273.511621979332,47.483718196373985L1278.0357014742851,47.483718196373985L1278.7729588734628,47.483718196373985L1280.9847310709954,47.483718196373985L1281.0517544709205,47.483718196373985L1281.3868714705468,47.483718196373985L1284.671018066883,47.483718196373985L1287.3184423639298,47.483718196373985L1287.4860008637427,47.483718196373985L1290.26747196064,47.483718196373985L1294.7915514555932,47.483718196373985L1297.841116152191,47.483718196373985L1297.9081395521164,47.483718196373985L1298.913490550995,47.483718196373985L1298.9470022509574,47.483718196373985L1300.4550287492752,47.483718196373985L1302.9013828465463,47.483718196373985L1305.2472018439294,47.483718196373985L1307.2243921417237,47.483718196373985L1308.5313484402657,47.483718196373985L1309.2686058394431,47.483718196373985L1309.5031877391816,47.483718196373985L1309.8718164387703,47.483718196373985L1309.9388398386955,47.483718196373985L1316.2725511316298,47.483718196373985L1317.3784372303962,47.483718196373985L1318.8529520287514,47.483718196373985L1326.39308452034,47.483718196373985L1327.1303419195176,47.483718196373985L1327.5659940190315,47.483718196373985L1329.2080673171997,47.483718196373985L1330.2469300160408,47.483718196373985L1330.9841874152185,47.483718196373985L1332.860842613125,47.483718196373985L1333.464053212452,47.483718196373985L1335.1731499105454,47.483718196373985L1337.1838519083024,47.483718196373985L1340.5350219045638,47.483718196373985L1348.4772947957038,47.483718196373985L1348.644853295517,47.483718196373985L1351.2922775925638,47.483718196373985L1353.5040497900964,47.483718196373985L1354.0737486894607,47.483718196373985L1354.1072603894233,47.483718196373985L1354.743982688713,47.483718196373985L1354.9450528884886,47.483718196373985L1355.883380487442,47.483718196373985L1356.5871261866569,47.483718196373985L1356.8552197863578,47.483718196373985L1358.061640985012,47.483718196373985L1362.5522087800025,47.483718196373985L1363.2894661791802,47.483718196373985L1363.3564895791055,47.483718196373985L1363.4570246789933,47.483718196373985L1363.8591650785447,47.483718196373985L1364.3283288780212,47.483718196373985L1365.1661213770867,47.483718196373985L1365.2666564769745,47.483718196373985L1366.975753175068,47.483718196373985L1373.2089293681145,47.483718196373985L1373.9461867672921,47.483718196373985L1379.4085938611986,47.483718196373985L1384.7034424552917,47.483718196373985L1384.770465855217,47.483718196373985L1385.6082583542825,47.483718196373985L1386.010398753834,47.483718196373985L1386.34551575346,47.483718196373985L1387.5854486520768,47.483718196373985L1388.7918698507308,47.483718196373985L1388.8253815506935,47.483718196373985L1389.1604985503195,47.483718196373985L1389.6966857497216,47.483718196373985L1392.2100632469178,47.483718196373985L1393.0813674459457,47.483718196373985L1394.019695044899,47.483718196373985L1394.1872535447121,47.483718196373985L1398.5102628398895,47.483718196373985L1399.9847776382446,47.483718196373985L1401.59333923645,47.483718196373985L1402.2635732357026,47.483718196373985L1402.4981551354408,47.483718196373985L1408.5302611287118,47.483718196373985L1411.4122673254965,47.483718196373985L1414.0596916225434,47.483718196373985L1414.093203322506,47.483718196373985L1415.5006947209358,47.483718196373985L1416.9416978193283,47.483718196373985L1417.9805605181696,47.483718196373985L1419.4885870164871,47.483718196373985L1423.509991012001,47.483718196373985L1424.4818303109168,47.483718196373985L1424.8839707104682,47.483718196373985L1427.59841840744,47.483718196373985L1428.402699206543,47.483718196373985L1428.737816206169,47.483718196373985L1429.341026805496,47.483718196373985L1429.7431672050475,47.483718196373985L1430.1117959046364,47.483718196373985L1430.7150065039634,47.483718196373985L1431.0836352035521,47.483718196373985L1434.9709923992157,47.483718196373985L1436.1439018979074,47.483718196373985L1436.8141358971595,47.483718196373985L1444.0861747890472,47.483718196373985L1444.7564087882995,47.483718196373985L1446.1639001867293,47.483718196373985L1446.5995522862436,47.483718196373985L1449.179953183365,47.483718196373985L1449.3810233831405,47.483718196373985L1450.587444581795,47.483718196373985L1452.1960061800003,47.483718196373985L1455.7482463760375,47.483718196373985L1456.3514569753647,47.483718196373985L1458.1275770733832,47.483718196373985L1458.9318578724863,47.483718196373985L1463.657007567215,47.483718196373985L1464.8299170659066,47.483718196373985L1465.0980106656075,47.483718196373985L1465.299080865383,47.483718196373985L1465.9358031646727,47.483718196373985L1466.706572263813,47.483718196373985L1469.1194146611215,47.483718196373985L1472.202491057682,47.483718196373985L1473.2078420565606,47.483718196373985L1474.1126579555512,47.483718196373985L1474.213193055439,47.483718196373985L1476.1903833532333,47.483718196373985L1476.223895053196,47.483718196373985L1477.195734352112,47.483718196373985L1477.9329917512894,47.483718196373985L1480.580416048336,47.483718196373985L1480.680951148224,47.483718196373985L1481.5187436472893,47.483718196373985L1483.2278403453827,47.483718196373985L1484.3002147441864,47.483718196373985L1484.9034253435136,47.483718196373985L1489.5280399383546,47.483718196373985L1489.7291101381302,47.483718196373985L1489.8966686379433,47.483718196373985L1490.7344611370086,47.483718196373985L1491.5387419361116,47.483718196373985L1492.2089759353637,47.483718196373985L1493.6834907337188,47.483718196373985L1494.018607733345,47.483718196373985L1494.1526545331956,47.483718196373985L1497.6378713293075,47.483718196373985L1498.9783393278124,47.483718196373985L1499.782620126915,47.483718196373985L1502.3295093240738,47.483718196373985L1503.4353954228402,47.483718196373985L1503.9380709222794,47.483718196373985L1504.2061645219803,47.483718196373985L1505.3790740206719,47.483718196373985L1505.6806793203355,47.483718196373985L1506.9876356188772,47.483718196373985L1507.0211473188401,47.483718196373985L1508.2945919174194,47.483718196373985L1508.931314216709,47.483718196373985L1509.2329195163727,47.483718196373985L1509.6685716158868,47.483718196373985L1517.510309407139,47.483718196373985L1517.6108445070267,47.483718196373985L1520.5598741037368,47.483718196373985L1520.72743260355,47.483718196373985L1523.2072984007834,47.483718196373985L1528.7032171946526,47.483718196373985L1529.4404745938302,47.483718196373985L1531.015524492073,47.483718196373985L1533.6294370891571,47.483718196373985L1533.9310423888207,47.483718196373985L1534.165624288559,47.483718196373985L1534.4002061882973,47.483718196373985L1535.0034167876242,47.483718196373985L1537.1481655852317,47.483718196373985L1537.8854229844094,47.483718196373985L1543.414853478241,47.483718196373985L1545.0234150764466,47.483718196373985L1545.2579969761848,47.483718196373985L1546.5314415747644,47.483718196373985L1548.7097020723343,47.483718196373985L1551.3906380693434,47.483718196373985L1555.277995265007,47.483718196373985L1555.6801356645585,47.483718196373985L1559.3999343604087,47.483718196373985L1560.0366566596986,47.483718196373985L1560.4723087592124,47.483718196373985L1561.9803352575302,47.483718196373985L1563.7899670555116,47.483718196373985L1568.448093350315,47.483718196373985L1569.4534443491934,47.483718196373985L1571.9668218463898,47.483718196373985L1572.0673569462776,47.483718196373985L1572.905149445343,47.483718196373985L1575.1169216428757,47.483718196373985L1575.5860854423522,244.6513060454304L1577.2616704404832,47.483718196373985L1578.065951239586,47.483718196373985L1578.9372554386139,47.483718196373985L1579.2388607382775,47.483718196373985L1579.6410011378287,47.483718196373985L1580.1771883372307,47.483718196373985L1581.3165861359596,47.483718196373985L1584.3326391325952,47.483718196373985L1585.639595431137,47.483718196373985L1587.2481570293426,47.483718196373985L1587.6838091288566,47.483718196373985L1587.8848793286322,47.483718196373985L1587.918391028595,47.483718196373985L1588.6556484277726,47.483718196373985L1588.9237420274735,47.483718196373985L1590.7333738254547,47.483718196373985L1594.0510321217537,47.483718196373985L1595.2574533204079,47.483718196373985L1598.4410648168564,47.483718196373985L1599.1112988161087,47.483718196373985L1599.949091315174,47.483718196373985L1601.7587231131554,47.483718196373985L1603.6688900110244,47.483718196373985L1605.2104282093048,47.483718196373985L1609.8350428041458,47.483718196373985L1614.6942392987253,47.483718196373985L1616.0682189971924,47.483718196373985L1617.1070816960334,47.483718196373985L1617.241128495884,47.483718196373985L1617.6432688954353,47.483718196373985L1619.8215293930054,47.483718196373985L1621.9997898905754,47.483718196373985L1622.301395190239,47.483718196373985L1623.8429333885192,47.483718196373985L1629.2048053825379,47.483718196373985L1630.4782499811172,47.483718196373985L1636.074703874874,47.483718196373985L1639.6269440709113,47.483718196373985L1645.2233979646683,47.483718196373985L1646.9324946627619,47.483718196373985L1647.334635062313,47.483718196373985L1650.8868752583503,47.483718196373985L1659.0302183492659,47.483718196373985L1659.0637300492288,47.483718196373985L1662.4819234454155,47.483718196373985L1662.6494819452284,47.483718196373985L1663.1521574446679,47.483718196373985L1663.2526925445557,47.483718196373985L1663.6213212441444,47.483718196373985L1664.191020143509,47.483718196373985L1664.3250669433594,47.483718196373985L1664.8612541427613,47.483718196373985L1665.3639296422004,47.483718196373985L1665.8330934416772,47.483718196373985L1667.1735614401819,47.483718196373985L1667.4081433399201,47.483718196373985L1668.0448656392098,47.483718196373985L1671.9992462347984,47.483718196373985L1672.2673398344994,47.483718196373985L1672.3343632344245,47.483718196373985L1672.9375738337517,47.483718196373985L1673.7418546328545,47.483718196373985L1680.3771712254525,47.483718196373985L1682.5554317230224,47.483718196373985L1683.024595522499,47.483718196373985L1685.7725549194336,47.483718196373985L1688.1183739168168,47.483718196373985L1692.5084066119193,47.483718196373985L1693.7483395105362,47.483718196373985L1695.5579713085176,47.483718196373985L1698.8756296048164,47.483718196373985L1699.6463987039567,47.483718196373985L1701.9251943014146,47.483718196373985L1702.226799601078,47.483718196373985L1702.4613815008163,47.483718196373985L1703.8688728992463,47.483718196373985L1704.0364313990594,47.483718196373985L1705.812551497078,47.483718196373985L1707.2535545954704,47.483718196373985L1708.2924172943115,47.483718196373985L1709.8004437926293,47.483718196373985L1712.6824499894142,47.483718196373985L1716.1006433856012,47.483718196373985L1716.8714124847413,47.483718196373985L1717.0054592845916,47.483718196373985L1717.943786883545,47.483718196373985L1718.8486027825356,47.483718196373985L1718.9156261824608,47.483718196373985L1719.6193718816755,47.483718196373985L1720.3901409808159,47.483718196373985L1723.8418460769653,47.483718196373985L1732.2197710676194,47.483718196373985L1732.6219114671708,47.483718196373985L1733.2586337664604,47.483718196373985L1735.8390346635817,47.483718196373985L1738.0843185610772,47.483718196373985L1739.6258567593575,47.483718196373985L1740.4971609583856,47.483718196373985L1741.2009066576004,47.483718196373985L1745.2893340530395,47.483718196373985L1746.7638488513946,47.483718196373985L1752.2597676452635,47.483718196373985L1752.6283963448525,47.483718196373985L1754.3039813429834,47.483718196373985L1757.6886630392073,47.483718196373985L1758.0572917387963,47.483718196373985L1761.30792663517,47.483718196373985L1761.7770904346467,47.483718196373985L1762.2462542341232,47.483718196373985L1762.8494648334504,47.483718196373985L1762.9499999333382,47.483718196373985L1763.754280732441,47.483718196373985L1764.5920732315064,47.483718196373985L1768.3453836273193,47.483718196373985L1770.8922728244781,47.483718196373985L1778.7340106157303,47.483718196373985L1778.9015691155435,47.483718196373985L1779.4042446149826,47.483718196373985L1780.1079903141974,47.483718196373985L1782.0516689120293,47.483718196373985L1782.6213678113936,47.483718196373985L1783.8948124099732,47.483718196373985L1784.1964177096365,47.483718196373985L1784.2634411095619,47.483718196373985L1786.1400963074684,47.483718196373985L1788.8210323044777,47.483718196373985L1791.3008981017113,47.483718196373985L1792.1722023007392,47.483718196373985L1793.2110649995805,47.483718196373985L1795.355813797188,47.483718196373985L1795.7579541967393,47.483718196373985L1804.8396248866081,47.483718196373985L1807.8891895832062,47.483718196373985L1812.279222278309,47.483718196373985L1812.3127339782714,47.483718196373985L1812.5138041780472,47.483718196373985L1816.4346730736731,47.483718196373985L1818.9145388709067,47.483718196373985L1823.271059866047,47.483718196373985L1823.371594965935,47.483718196373985L1823.5726651657105,47.483718196373985L1823.6732002655983,47.483718196373985L1824.041828965187,47.483718196373985L1824.745574664402,47.483718196373985L1825.9184841630936,47.483718196373985L1826.1530660628318,47.483718196373985L1833.391593254757,47.483718196373985L1834.5309910534859,47.483718196373985L1835.670388852215,47.483718196373985L1837.5135323501588,47.483718196373985L1837.9156727497102,47.483718196373985L1838.6529301488877,47.483718196373985L1839.0885822484015,47.483718196373985L1843.1434979438782,47.483718196373985" fill="none"></path></g></g></g></g></g><g><g opacity="0.0739817"><span fill="rgb(0, 0, 0)" stroke="none" stroke-width="1px">Alt + Scroll to Zoom</span></g></g></g><g transform="translate(72, 376)" clip-path="url(#clip_1)"><clipPath id="clip_1"><rect width="2010" height="23"></rect></clipPath><g><g><line x1="0" y1="0" x2="0" y2="5" style="visibility: inherit;" fill="rgb(0, 0, 0)" stroke="rgb(204, 204, 204)" stroke-width="1px"></line><line x1="167.55849981307983" y1="0" x2="167.55849981307983" y2="5" style="visibility: inherit;" fill="rgb(0, 0, 0)" stroke="rgb(204, 204, 204)" stroke-width="1px"></line><line x1="335.11699962615967" y1="0" x2="335.11699962615967" y2="5" style="visibility: inherit;" fill="rgb(0, 0, 0)" stroke="rgb(204, 204, 204)" stroke-width="1px"></line><line x1="502.6754994392395" y1="0" x2="502.6754994392395" y2="5" style="visibility: inherit;" fill="rgb(0, 0, 0)" stroke="rgb(204, 204, 204)" stroke-width="1px"></line><line x1="670.2339992523193" y1="0" x2="670.2339992523193" y2="5" style="visibility: inherit;" fill="rgb(0, 0, 0)" stroke="rgb(204, 204, 204)" stroke-width="1px"></line><line x1="837.7924990653992" y1="0" x2="837.7924990653992" y2="5" style="visibility: inherit;" fill="rgb(0, 0, 0)" stroke="rgb(204, 204, 204)" stroke-width="1px"></line><line x1="1005.350998878479" y1="0" x2="1005.350998878479" y2="5" style="visibility: inherit;" fill="rgb(0, 0, 0)" stroke="rgb(204, 204, 204)" stroke-width="1px"></line><line x1="1172.9094986915588" y1="0" x2="1172.9094986915588" y2="5" style="visibility: inherit;" fill="rgb(0, 0, 0)" stroke="rgb(204, 204, 204)" stroke-width="1px"></line><line x1="1340.4679985046387" y1="0" x2="1340.4679985046387" y2="5" style="visibility: inherit;" fill="rgb(0, 0, 0)" stroke="rgb(204, 204, 204)" stroke-width="1px"></line><line x1="1508.0264983177185" y1="0" x2="1508.0264983177185" y2="5" style="visibility: inherit;" fill="rgb(0, 0, 0)" stroke="rgb(204, 204, 204)" stroke-width="1px"></line><line x1="1675.5849981307983" y1="0" x2="1675.5849981307983" y2="5" style="visibility: inherit;" fill="rgb(0, 0, 0)" stroke="rgb(204, 204, 204)" stroke-width="1px"></line><line x1="1843.1434979438782" y1="0" x2="1843.1434979438782" y2="5" style="visibility: inherit;" fill="rgb(0, 0, 0)" stroke="rgb(204, 204, 204)" stroke-width="1px"></line><line x1="2010.701997756958" y1="0" x2="2010.701997756958" y2="5" style="visibility: inherit;" fill="rgb(0, 0, 0)" stroke="rgb(204, 204, 204)" stroke-width="1px"></line></g><g transform="translate(0, 8)"><text style="text-anchor: middle; visibility: hidden; font-family: Roboto, sans-serif; font-size: 12px; font-weight: 200;" x="0" y="0" dx="0em" dy="0.95em" fill="rgb(33, 33, 33)" stroke="none" stroke-width="1px">-5k</text><text style="text-anchor: middle; visibility: inherit; font-family: Roboto, sans-serif; font-size: 12px; font-weight: 200;" x="167.55849981307983" y="0" dx="0em" dy="0.95em" fill="rgb(33, 33, 33)" stroke="none" stroke-width="1px">0</text><text style="text-anchor: middle; visibility: inherit; font-family: Roboto, sans-serif; font-size: 12px; font-weight: 200;" x="335.11699962615967" y="0" dx="0em" dy="0.95em" fill="rgb(33, 33, 33)" stroke="none" stroke-width="1px">5k</text><text style="text-anchor: middle; visibility: inherit; font-family: Roboto, sans-serif; font-size: 12px; font-weight: 200;" x="502.6754994392395" y="0" dx="0em" dy="0.95em" fill="rgb(33, 33, 33)" stroke="none" stroke-width="1px">10k</text><text style="text-anchor: middle; visibility: inherit; font-family: Roboto, sans-serif; font-size: 12px; font-weight: 200;" x="670.2339992523193" y="0" dx="0em" dy="0.95em" fill="rgb(33, 33, 33)" stroke="none" stroke-width="1px">15k</text><text style="text-anchor: middle; visibility: inherit; font-family: Roboto, sans-serif; font-size: 12px; font-weight: 200;" x="837.7924990653992" y="0" dx="0em" dy="0.95em" fill="rgb(33, 33, 33)" stroke="none" stroke-width="1px">20k</text><text style="text-anchor: middle; visibility: inherit; font-family: Roboto, sans-serif; font-size: 12px; font-weight: 200;" x="1005.350998878479" y="0" dx="0em" dy="0.95em" fill="rgb(33, 33, 33)" stroke="none" stroke-width="1px">25k</text><text style="text-anchor: middle; visibility: inherit; font-family: Roboto, sans-serif; font-size: 12px; font-weight: 200;" x="1172.9094986915588" y="0" dx="0em" dy="0.95em" fill="rgb(33, 33, 33)" stroke="none" stroke-width="1px">30k</text><text style="text-anchor: middle; visibility: inherit; font-family: Roboto, sans-serif; font-size: 12px; font-weight: 200;" x="1340.4679985046387" y="0" dx="0em" dy="0.95em" fill="rgb(33, 33, 33)" stroke="none" stroke-width="1px">35k</text><text style="text-anchor: middle; visibility: inherit; font-family: Roboto, sans-serif; font-size: 12px; font-weight: 200;" x="1508.0264983177185" y="0" dx="0em" dy="0.95em" fill="rgb(33, 33, 33)" stroke="none" stroke-width="1px">40k</text><text style="text-anchor: middle; visibility: inherit; font-family: Roboto, sans-serif; font-size: 12px; font-weight: 200;" x="1675.5849981307983" y="0" dx="0em" dy="0.95em" fill="rgb(33, 33, 33)" stroke="none" stroke-width="1px">45k</text><text style="text-anchor: middle; visibility: inherit; font-family: Roboto, sans-serif; font-size: 12px; font-weight: 200;" x="1843.1434979438782" y="0" dx="0em" dy="0.95em" fill="rgb(33, 33, 33)" stroke="none" stroke-width="1px">50k</text><text style="text-anchor: middle; visibility: hidden; font-family: Roboto, sans-serif; font-size: 12px; font-weight: 200;" x="2010.701997756958" y="0" dx="0em" dy="0.95em" fill="rgb(33, 33, 33)" stroke="none" stroke-width="1px">55k</text></g><line x1="0" y1="0" x2="2010.701997756958" y2="0" fill="rgb(0, 0, 0)" stroke="rgb(204, 204, 204)" stroke-width="1px"></line></g></g></g></g></svg>