<svg viewBox="0 0 330 200" xmlns="http://www.w3.org/2000/svg"><g><g><g><g><g><line x1="72.29800224304199" y1="176.89999961853027" x2="67.29800224304199" y2="176.89999961853027" style="visibility: inherit;" fill="rgb(0, 0, 0)" stroke="rgb(204, 204, 204)" stroke-width="1px"></line><line x1="72.29800224304199" y1="159.20999965667724" x2="67.29800224304199" y2="159.20999965667724" style="visibility: inherit;" fill="rgb(0, 0, 0)" stroke="rgb(204, 204, 204)" stroke-width="1px"></line><line x1="72.29800224304199" y1="141.51999969482424" x2="67.29800224304199" y2="141.51999969482424" style="visibility: inherit;" fill="rgb(0, 0, 0)" stroke="rgb(204, 204, 204)" stroke-width="1px"></line><line x1="72.29800224304199" y1="123.82999973297119" x2="67.29800224304199" y2="123.82999973297119" style="visibility: inherit;" fill="rgb(0, 0, 0)" stroke="rgb(204, 204, 204)" stroke-width="1px"></line><line x1="72.29800224304199" y1="106.13999977111818" x2="67.29800224304199" y2="106.13999977111818" style="visibility: inherit;" fill="rgb(0, 0, 0)" stroke="rgb(204, 204, 204)" stroke-width="1px"></line><line x1="72.29800224304199" y1="88.44999980926514" x2="67.29800224304199" y2="88.44999980926514" style="visibility: inherit;" fill="rgb(0, 0, 0)" stroke="rgb(204, 204, 204)" stroke-width="1px"></line><line x1="72.29800224304199" y1="70.75999984741209" x2="67.29800224304199" y2="70.75999984741209" style="visibility: inherit;" fill="rgb(0, 0, 0)" stroke="rgb(204, 204, 204)" stroke-width="1px"></line><line x1="72.29800224304199" y1="53.06999988555909" x2="67.29800224304199" y2="53.06999988555909" style="visibility: inherit;" fill="rgb(0, 0, 0)" stroke="rgb(204, 204, 204)" stroke-width="1px"></line><line x1="72.29800224304199" y1="35.379999923706045" x2="67.29800224304199" y2="35.379999923706045" style="visibility: inherit;" fill="rgb(0, 0, 0)" stroke="rgb(204, 204, 204)" stroke-width="1px"></line><line x1="72.29800224304199" y1="17.689999961853022" x2="67.29800224304199" y2="17.689999961853022" style="visibility: inherit;" fill="rgb(0, 0, 0)" stroke="rgb(204, 204, 204)" stroke-width="1px"></line><line x1="72.29800224304199" y1="0" x2="67.29800224304199" y2="0" style="visibility: inherit;" fill="rgb(0, 0, 0)" stroke="rgb(204, 204, 204)" stroke-width="1px"></line></g><g transform="translate(62.29800224304199, 0)"><text style="text-anchor: end; visibility: hidden; font-family: Roboto, sans-serif; font-size: 12px; font-weight: 200;" x="0" y="176.89999961853027" dx="0em" dy="0.3em" fill="rgb(33, 33, 33)" stroke="none" stroke-width="1px">-2e-4</text><text style="text-anchor: end; visibility: inherit; font-family: Roboto, sans-serif; font-size: 12px; font-weight: 200;" x="0" y="159.20999965667724" dx="0em" dy="0.3em" fill="rgb(33, 33, 33)" stroke="none" stroke-width="1px">0</text><text style="text-anchor: end; visibility: hidden; font-family: Roboto, sans-serif; font-size: 12px; font-weight: 200;" x="0" y="141.51999969482424" dx="0em" dy="0.3em" fill="rgb(33, 33, 33)" stroke="none" stroke-width="1px">2e-4</text><text style="text-anchor: end; visibility: inherit; font-family: Roboto, sans-serif; font-size: 12px; font-weight: 200;" x="0" y="123.82999973297119" dx="0em" dy="0.3em" fill="rgb(33, 33, 33)" stroke="none" stroke-width="1px">4e-4</text><text style="text-anchor: end; visibility: hidden; font-family: Roboto, sans-serif; font-size: 12px; font-weight: 200;" x="0" y="106.13999977111818" dx="0em" dy="0.3em" fill="rgb(33, 33, 33)" stroke="none" stroke-width="1px">6e-4</text><text style="text-anchor: end; visibility: inherit; font-family: Roboto, sans-serif; font-size: 12px; font-weight: 200;" x="0" y="88.44999980926514" dx="0em" dy="0.3em" fill="rgb(33, 33, 33)" stroke="none" stroke-width="1px">8e-4</text><text style="text-anchor: end; visibility: hidden; font-family: Roboto, sans-serif; font-size: 12px; font-weight: 200;" x="0" y="70.75999984741209" dx="0em" dy="0.3em" fill="rgb(33, 33, 33)" stroke="none" stroke-width="1px">1e-3</text><text style="text-anchor: end; visibility: inherit; font-family: Roboto, sans-serif; font-size: 12px; font-weight: 200;" x="0" y="53.06999988555909" dx="0em" dy="0.3em" fill="rgb(33, 33, 33)" stroke="none" stroke-width="1px">1.2e-3</text><text style="text-anchor: end; visibility: hidden; font-family: Roboto, sans-serif; font-size: 12px; font-weight: 200;" x="0" y="35.379999923706045" dx="0em" dy="0.3em" fill="rgb(33, 33, 33)" stroke="none" stroke-width="1px">1.4e-3</text><text style="text-anchor: end; visibility: inherit; font-family: Roboto, sans-serif; font-size: 12px; font-weight: 200;" x="0" y="17.689999961853022" dx="0em" dy="0.3em" fill="rgb(33, 33, 33)" stroke="none" stroke-width="1px">1.6e-3</text><text style="text-anchor: end; visibility: hidden; font-family: Roboto, sans-serif; font-size: 12px; font-weight: 200;" x="0" y="0" dx="0em" dy="0.3em" fill="rgb(33, 33, 33)" stroke="none" stroke-width="1px">1.8e-3</text></g><line x1="72.29800224304199" y1="0" x2="72.29800224304199" y2="176.89999961853027" fill="rgb(0, 0, 0)" stroke="rgb(204, 204, 204)" stroke-width="1px"></line></g></g><g transform="translate(72, 0)" clip-path="url(#clip_0)"><clipPath id="clip_0"><rect width="257" height="176"></rect></clipPath><g><g><g><line x1="0" y1="0" x2="0" y2="176.89999961853027" fill="rgb(0, 0, 0)" stroke="rgb(66, 66, 66)" stroke-width="1px" opacity="0.25"></line><line x1="25.7701997756958" y1="0" x2="25.7701997756958" y2="176.89999961853027" fill="rgb(0, 0, 0)" stroke="rgb(66, 66, 66)" stroke-width="1px" opacity="0.25"></line><line x1="51.5403995513916" y1="0" x2="51.5403995513916" y2="176.89999961853027" fill="rgb(0, 0, 0)" stroke="rgb(66, 66, 66)" stroke-width="1px" opacity="0.25"></line><line x1="77.3105993270874" y1="0" x2="77.3105993270874" y2="176.89999961853027" fill="rgb(0, 0, 0)" stroke="rgb(66, 66, 66)" stroke-width="1px" opacity="0.25"></line><line x1="103.0807991027832" y1="0" x2="103.0807991027832" y2="176.89999961853027" fill="rgb(0, 0, 0)" stroke="rgb(66, 66, 66)" stroke-width="1px" opacity="0.25"></line><line x1="128.850998878479" y1="0" x2="128.850998878479" y2="176.89999961853027" fill="rgb(0, 0, 0)" stroke="rgb(66, 66, 66)" stroke-width="1px" opacity="0.25"></line><line x1="154.6211986541748" y1="0" x2="154.6211986541748" y2="176.89999961853027" fill="rgb(0, 0, 0)" stroke="rgb(66, 66, 66)" stroke-width="1px" opacity="0.25"></line><line x1="180.3913984298706" y1="0" x2="180.3913984298706" y2="176.89999961853027" fill="rgb(0, 0, 0)" stroke="rgb(66, 66, 66)" stroke-width="1px" opacity="0.25"></line><line x1="206.1615982055664" y1="0" x2="206.1615982055664" y2="176.89999961853027" fill="rgb(0, 0, 0)" stroke="rgb(66, 66, 66)" stroke-width="1px" opacity="0.25"></line><line x1="231.9317979812622" y1="0" x2="231.9317979812622" y2="176.89999961853027" fill="rgb(0, 0, 0)" stroke="rgb(66, 66, 66)" stroke-width="1px" opacity="0.25"></line><line x1="257.701997756958" y1="0" x2="257.701997756958" y2="176.89999961853027" fill="rgb(0, 0, 0)" stroke="rgb(66, 66, 66)" stroke-width="1px" opacity="0.25"></line></g><g><line x1="0" y1="176.89999961853027" x2="257.701997756958" y2="176.89999961853027" fill="rgb(0, 0, 0)" stroke="rgb(66, 66, 66)" stroke-width="1px" opacity="0.25"></line><line x1="0" y1="159.20999965667724" x2="257.701997756958" y2="159.20999965667724" fill="rgb(0, 0, 0)" stroke="rgb(66, 66, 66)" stroke-width="1px" opacity="0.25"></line><line x1="0" y1="141.51999969482424" x2="257.701997756958" y2="141.51999969482424" fill="rgb(0, 0, 0)" stroke="rgb(66, 66, 66)" stroke-width="1px" opacity="0.25"></line><line x1="0" y1="123.82999973297119" x2="257.701997756958" y2="123.82999973297119" fill="rgb(0, 0, 0)" stroke="rgb(66, 66, 66)" stroke-width="1px" opacity="0.25"></line><line x1="0" y1="106.13999977111818" x2="257.701997756958" y2="106.13999977111818" fill="rgb(0, 0, 0)" stroke="rgb(66, 66, 66)" stroke-width="1px" opacity="0.25"></line><line x1="0" y1="88.44999980926514" x2="257.701997756958" y2="88.44999980926514" fill="rgb(0, 0, 0)" stroke="rgb(66, 66, 66)" stroke-width="1px" opacity="0.25"></line><line x1="0" y1="70.75999984741209" x2="257.701997756958" y2="70.75999984741209" fill="rgb(0, 0, 0)" stroke="rgb(66, 66, 66)" stroke-width="1px" opacity="0.25"></line><line x1="0" y1="53.06999988555909" x2="257.701997756958" y2="53.06999988555909" fill="rgb(0, 0, 0)" stroke="rgb(66, 66, 66)" stroke-width="1px" opacity="0.25"></line><line x1="0" y1="35.379999923706045" x2="257.701997756958" y2="35.379999923706045" fill="rgb(0, 0, 0)" stroke="rgb(66, 66, 66)" stroke-width="1px" opacity="0.25"></line><line x1="0" y1="17.689999961853022" x2="257.701997756958" y2="17.689999961853022" fill="rgb(0, 0, 0)" stroke="rgb(66, 66, 66)" stroke-width="1px" opacity="0.25"></line><line x1="0" y1="0" x2="257.701997756958" y2="0" fill="rgb(0, 0, 0)" stroke="rgb(66, 66, 66)" stroke-width="1px" opacity="0.25"></line></g></g></g><g><g><line x1="0" y1="159.20999965667724" x2="257.701997756958" y2="159.20999965667724" fill="rgb(0, 0, 0)" stroke="rgb(153, 153, 153)" stroke-width="1.5px"></line></g></g><g><g><line x1="25.7701997756958" y1="0" x2="25.7701997756958" y2="176.89999961853027" fill="rgb(0, 0, 0)" stroke="rgb(153, 153, 153)" stroke-width="1.5px"></line></g></g><g><g><g><g><g><path style="fill: none;" stroke="rgb(255, 112, 67)" stroke-width="2px" d="M25.96347627401352,158.47179499658512L26.27271867132187,142.25324784365262L26.51753556919098,129.66685024119332L26.58196106863022,122.13331468988923L26.64638656806946,116.57627636599096L26.83966306638718,109.91602320685328L26.942743865489962,104.0298615053457L27.148905463695527,97.79751625442287L27.277756462574004,90.03030596810835L27.677194559097288,79.45432535859413L27.896241257190702,70.91860160834476L28.063747555732725,63.9456964074235L28.16682835483551,58.17178540249162L28.29567935371399,53.336834529453576L28.811083349227903,49.25002195201642L28.8626237487793,45.76812692192858L29.055900247097018,42.78154605582322L29.313602244853975,39.73441373552182L29.33937244462967,37.09246472578749L29.609959542274474,34.79190431429414L30.12536353778839,32.13649874976143L30.164018837451934,29.80786883620487L30.344410235881803,27.759909218449305L30.421720835208895,25.954221684190387L30.834044031620028,24.358585795947572L30.92423973083496,22.945781428756092L30.950009930610655,21.692671959297517L31.207711928367615,20.579482938980323L31.388103326797488,19.589229073070573L31.504069225788115,18.707254919319254L31.52983942556381,17.920863653952644L31.710230823993683,17.2190146731632L31.774656323432925,16.59207546624916L31.9035073223114,16.031616627715216L32.10966892051697,15.530241423418731L32.44468151760102,15.081443235690733L32.48333681726456,14.679485656779718L32.728153715133665,14.319301101531652L32.74103881502151,13.996404656936406L33.140476911544795,13.706820541837846L33.48837460851669,13.447019061412997L33.746076606273654,13.213862342415643L33.79761700582504,13.004557452298947L33.81050210571289,12.816615757386534L34.02954880380631,12.647817576779273L34.14551470279694,12.496181350692183L34.17128490257263,12.35993667287172L34.763999497413636,12.237500643142816L35.34382899236679,12.127457083028549L35.356714092254634,12.028538228688763L35.69172668933869,11.93960857421837L35.83346278810501,11.859650587050197L35.846347887992856,11.787752057729877L36.64522408103943,11.723094880201721L36.67099428081513,11.66494508716769L36.99312177801132,11.612643989039661L37.80488307094574,11.56560028527535L38.48779336500168,11.523283034106422L38.59087416410446,11.48521538134886L38.60375926399231,11.450968961546925L38.69395496320725,11.420158895488852L38.74549536275864,11.39243931742453L39.0031973605156,11.36749937334594L39.132048359394076,11.345059638652002L39.338209957599645,11.324868909570831L39.44129075670242,11.306701327985479L39.5959119553566,11.290353803919206L39.71187785434723,11.27564370397258L39.78918845367432,11.262406777547628L40.05977555131912,11.25049529581362L40.240166949748996,11.239776381114604L40.278822249412535,11.230130506946416L40.40767324829101,11.22145015077628L40.45921364784241,11.21363858387873L40.57517954683304,11.206608784047951L40.7813411450386,11.200282458544391L40.94884744358063,11.194589165965338L41.090583542346955,11.189465526914748L41.425596139431,11.184854514404604L41.46425143909454,11.18070481586292L41.567332238197324,11.176970259463909L41.61887263774872,11.17360929824927L41.670413037300115,11.17058454618048L41.760608736515046,11.167862360863447L41.77349383640289,11.165412468225835L41.79926403617859,11.163207624909102L41.876574635505676,11.161223314568407L42.30178293180465,11.159437474662358L42.868727326869966,11.15783025066036L43.10065912485123,11.156383774907692L43.38413132238388,11.155081967667593L43.50009722137451,15.781278166779652L43.82222471857071,15.31746125232606L44.10569691610336,14.900030923445208L44.33762871408463,14.52434759162931L44.389169113636015,14.186235803929975L44.60821581172943,18.509188674687085L44.63398601150512,17.77258231203474L44.72418171072007,17.109641175173376L45.110734707355505,16.512997869477285L45.22670060634613,15.97602190548211L45.25247080612183,15.492745976883374L45.27824100589752,15.057799616717736L45.71633440208435,19.29351241321135L45.793645001411434,18.478485048307153L45.84518540096283,17.744962848713836L46.0255767993927,17.084794836415114L46.60540629434586,16.49064521888107L46.87599339199066,15.955911853858701L46.9919592909813,15.47465287084919L47.03061459064484,15.041520633001506L47.08215499019623,14.65170230489411L47.24966128873825,14.300866365219948L47.713524884700774,13.98511446956646L48.203158680438996,13.700938128020656L48.31912457942963,13.445179715908264L48.383550078868865,13.2149973841825L49.00203487348557,13.007833479361109L49.388587870121,12.821386121944437L49.4143580698967,12.653583627376511L49.46589846944809,12.502561485222062L49.65917496776581,12.366641640677834L49.80091106653214,12.24431384813779L49.82668126630783,12.134218889566966L49.96841736507415,12.035133471172589L50.13592366361618,11.94595663051623L50.29054486227035,11.865697503003382L50.72863825845718,11.793464311794882L50.76729355812073,11.728454458785196L51.84964194869995,11.669945606529616L51.90118234825134,11.617287652016644L51.97849294757843,11.56989550309378L52.081573746681215,11.527242577275626L52.32639064455032,11.488854950691367L52.455241643428806,11.454306092153706L52.97064563894272,11.423212123834222L53.511819834232334,11.395227555881867L54.20761522817612,11.370041447588243L54.22050032806396,11.347373952443387L54.28492582750321,11.326973208691788L54.568398025035854,11.308612540837132L55.03226162099838,11.292087941000553L55.71517191505432,11.277215802146065L56.29500141000748,11.263830877985784L56.565588507652286,11.251784446896588L56.630014007091525,11.240942659446928L56.69443950653076,11.231185051172027L56.70732460641861,11.222403204072755L56.73309480619431,11.214499541965406L56.861945805072786,11.207386246297204L57.158303102493285,11.200984280380823L57.54485609912872,11.195222511205923L57.570626298904415,11.190036919069922L57.828328296661375,11.185369886245846L57.970064395427706,11.18116955678382L58.24065149307251,11.17738926033249L58.588549190044404,11.173986993578563L58.62720448970795,11.170924953542324L58.8591362876892,11.168169117544005L59.116838285446164,11.165688865173307L59.27145948410035,11.163456638062156L59.42608068275452,11.16144763368033L59.490506182193755,11.159639529751445L59.54204658174515,11.158012236227403L59.67089758062363,11.156547672065456L59.812633679389954,11.155229564327586L59.87705917882919,11.154043267369776L59.95436977815628,11.152975600112953L60.01879527759552,11.152014699585973L60.147646276474,11.151149889115072L60.160531376361845,11.150371559693964L60.19918667602539,11.149671063217198L60.224956875801084,11.14904061638992L60.37957807445526,11.148473214246795L60.508429073333744,11.147962552319175L60.99806286907196,11.147502956585292L61.30730526638031,11.147089320425525L61.48769666481018,11.146717047882387L61.590777463912964,11.146382002594043L61.77116886234283,11.146080461834993L61.9773304605484,11.145809075152119L62.36388345718384,11.145564827137852L62.46696425628662,11.145345003925199L62.5958152551651,11.145147163034009L62.66024075460434,11.144969106232082L62.87928745269775,11.144808855110446L62.95659805202484,11.14466462910111L63.87144014406204,11.144534825692743L64.2064527411461,11.144418002625299L64.25799314069748,11.144312861864636L64.34818883991241,11.144218235180084L64.48992493867874,11.144133071163997L64.55435043811798,11.14405642354958L64.60589083766936,11.143987440696579L64.65743123722076,11.143925356128943L64.70897163677215,11.143869480018044L64.82493753576279,11.143819191518283L65.03109913396835,11.143773931868482L65.27591603183747,11.143733198183668L65.28880113172532,11.143696537867356L65.3403415312767,11.143663543582695L65.79132002735139,11.143633848726463L65.82997532701492,11.143607123355872L65.86863062667847,11.143583070522341L65.94594122600556,11.143561422972194L65.97171142578125,11.143541940177052L66.50000052118301,11.143524405661394L67.1700257153511,11.143508624597327L67.33753201389312,11.143494421639666L67.50503831243516,11.143481638977773L67.65965951108933,11.143470134582085L67.94313170862198,11.14345978062594L67.96890190839767,11.14345046206541L68.35545490503311,11.143442075360957L68.57450160312652,11.143434527326939L68.84508870077133,11.143427734096305L69.06413539886475,11.143421620188748L69.50222879505158,11.143416117671952L69.52799899482727,11.143411165406823L69.72127549314499,11.143406708368227L70.12071358966827,11.14340269703349L70.18513908910751,11.143399086832225L70.24956458854676,11.143395837651045L70.57169208574295,11.14339291338803L70.71342818450927,11.143390281551293L70.75208348417283,11.143387912898241L70.906704682827,11.143385781110466L70.91958978271484,11.143383862501503L71.07421098136902,15.770464419083948L71.08709608125686,15.307754636663786L71.11286628103255,14.891315832488292L71.33191297912597,14.516520908732442L71.40922357845307,14.179205477353912L71.42210867834092,13.87562158911465L71.5251894774437,13.60239608970045L71.58961497688293,13.356493140228558L71.77000637531282,13.13518048570462L71.96328287363052,12.935999096633646L72.10501897239685,12.756735846470296L72.33695077037811,12.595398921323655L72.55599746847153,12.450195688691993L72.92966536521911,12.31951277932377L72.95543556499481,12.201898160892592L73.12294186353684,12.096045004304662L73.40641406106948,12.000777163375714L73.9218180565834,11.91503610653973L74.28260085344314,11.83786915538747L74.35991145277022,11.76841889935046L74.72069424962997,11.705913668917262L74.9397409477234,11.649658961527383L75.02993664693832,11.599029724876564L75.18455784559251,11.55346341189083L75.22321314525604,11.512453730203731L75.27475354480744,11.475545016685325L75.76438734054565,11.442327174518807L75.89323833942413,11.412431116568948L75.95766383886338,11.385524664414074L76.34421683549881,11.361308857474699L76.35710193538667,11.339514631229301L76.65345923280715,11.319899827608406L76.89827613067627,11.302246504349627L77.0142420296669,11.286358513416724L77.0400122294426,11.272059321577112L77.14309302854538,11.259190048921479L77.24617382764816,11.247607703531392L77.6069566245079,11.237183592680326L77.71003742361069,11.22780189291436L77.91619902181625,11.219358363125005L78.17390101957321,11.211759186314563L78.38006261777878,11.204919927185177L78.48314341688156,11.19876459396871L78.61199441576004,11.193224794073938L79.43664080858231,11.188238974168616L79.81030870532989,11.183751736253841L80.04224050331115,11.179713222130516L80.1324362025261,11.176078559419565L80.29994250106812,11.172807362979675L81.240554792881,11.169863286183775L81.2920951924324,11.167213617067484L81.3951759915352,11.16482891486281L82.2069372844696,11.162682682878605L82.63214558076858,11.160751074092818L82.94138797807695,11.159012626185612L83.09600917673112,11.157448023069117L83.1475495762825,11.156039880264286L83.25063037538528,11.154772551739946L83.4696770734787,11.15363195606803L83.57275787258148,11.152605419963264L83.90777046966552,11.151681537469024L83.93354066944121,11.150850043224194L84.16547246742249,11.150101698403835L84.39740426540375,11.149428188065528L84.46182976484299,11.148822028761037L84.52625526428223,11.148276485386997L84.62933606338501,11.147785496350389L84.69376156282425,11.147343606217428L85.01588906002046,11.146945905097741L85.3251314573288,11.14658797409007L85.42821225643158,11.146265836183135L85.50552285575866,11.145975912066891L85.5957185549736,11.145714980362282L86.04669705104827,11.145480141828125L86.09823745059967,11.145268787147396L86.14977785015105,11.145078567934736L86.27862884902953,11.144907370643326L86.30439904880524,11.144753293081072L86.56210104656219,11.144614623275048L86.79403284454345,11.144489820449603L86.87134344387054,11.14437749790673L87.24501134061813,11.144276407618124L87.38674743938446,11.14418542635841L87.63156433725358,11.14410354322463L87.70887493658066,11.144029848404246L87.79907063579559,11.143963523065903L88.32735973119736,11.143903830261385L88.84276372671127,11.143850106737311L88.85564882659912,11.14380175556568L89.16489122390746,11.143758239511195L89.66741011953353,11.143719075062116L89.71895051908493,11.143683827057977L89.73183561897278,11.143652103854281L89.77049091863633,11.143623552970897L89.79626111841202,11.14359785717589L89.96376741695404,11.143574730960392L90.11838861560823,11.143553917366427L90.14415881538392,11.143535185131853L90.28589491415023,11.14351832612074L90.45340121269226,11.143503153010734L90.60802241134644,11.143489497211759L90.68533301067352,11.143477206992669L90.7884138097763,11.143466145795482L90.87860950899125,11.143456190717997L90.93014990854263,11.143447231148285L90.94303500843048,11.14343916753551L90.98169030809402,11.143431910284052L91.1363115067482,11.143425378757733L91.52286450338364,11.143419500384027L91.53574960327148,11.143414209847702L91.79345160102845,11.14340944836499L91.93518769979477,11.14340516303057L92.0511535987854,11.1434013062296L92.36039599609374,11.143397835108702L92.55367249441147,11.143394711099898L92.75983409261703,11.143391899491977L92.81137449216844,11.14338936904488L92.90157019138336,11.14338709164246L93.09484668970109,11.143385041980286L93.13350198936462,11.143383197284312L93.15927218914031,11.143381537057959L93.2881231880188,11.143380042854231L93.79064208364487,11.143378698070876L94.4993225774765,11.143377487765864L94.58951827669144,11.14337639849134L94.71836927556991,11.143375418144286L94.83433517456055,15.77045681900868L94.87299047422408,15.307747796609913L95.04049677276612,14.891309676450991L96.16150046300888,14.516515368307974L96.81864055728911,14.179200490979262L97.39847005224227,13.875617101383416L98.17157604551316,13.602392050747122L98.72563534069062,13.356489505174482L98.84160123968124,13.135177214159116L99.08641813755035,12.935996152245288L99.15084363698959,12.756733196522832L99.40854563474655,12.595396536372617L99.92394963026047,12.450193542237455L100.3105026268959,12.31951084751577L100.51666422510148,12.201896422266275L100.77436622285843,12.096043439541726L100.85167682218551,12.00077575508963L101.26400001859666,11.915034839082749L101.3026553182602,11.837868014676562L101.47016161680222,11.768417872710975L101.62478281545638,11.705912744941966L101.83094441366195,11.64965812994984L101.95979541254043,11.599028976456935L102.3850037088394,11.553462738313309L102.61693550682068,11.512453123984045L102.77155670547485,11.475544471087733L102.88752260446549,11.442326683481019L103.0292587032318,11.412430674634976L103.06791400289536,11.385524266673563L103.24830540132523,11.361308499508292L103.3256160006523,11.339514309059538L103.64774349784851,11.319899537655669L103.9698709950447,11.302246243392176L104.40796439123154,11.28635827855503L104.51104519033433,11.272059110201608L104.70432168865204,11.259189858683534L104.91048328685761,11.24760753231725L105.00067898607253,11.237183438587593L105.10375978517533,11.227801754230912L105.33569158315659,11.21935823830988L105.49031278181076,11.211759073980971L105.73512967967987,11.204919826084968L105.91552107810973,15.825846786155306L106.147452876091,15.357598767041864L106.17322307586669,14.93617554983976L106.34072937440872,14.556894654357853L106.4180399737358,14.215541848424143L106.48246547317505,13.908324323083793L106.52112077283859,13.63182855027749L106.58554627227784,13.38298235475182L107.52615856409074,13.159020778778718L107.62923936319352,12.957455360402918L107.96425196027755,12.776046483864702L108.19618375825883,12.612778494980324L108.350804956913,12.46583730498438L108.36369005680083,12.333590233988003L108.4023453564644,12.214567870091281L108.518311255455,12.107447742584242L108.63427715444564,12.011039627827884L108.6729324541092,11.92427232454716L108.85332385253906,11.846181751594525L108.91774935197832,11.775900235937131L108.9692897515297,11.712646871845497L109.35584274816513,11.655718844163019L109.57488944625855,11.604483619248786L109.76816594457627,11.558371916826L109.88413184356689,11.516871384645453L110.46396133852005,11.479520905682987L110.65723783683777,11.445905474616776L110.91493983459473,11.415651586657168L111.05667593336105,11.388423087493532L111.0953312330246,11.363917438246254L111.3659183306694,11.341862353923712L111.58496502876281,11.32201277803342L112.10036902427673,11.304148159732147L112.12613922405242,11.288070003261003L112.20344982337951,11.27359966243699L112.46115182113648,11.260576355695356L112.5255773205757,11.248855379627907L113.02809621620177,11.23830650116719L113.05386641597747,11.228812510552544L113.09252171564103,11.220267918999356L113.23425781440736,11.212577786601502L113.32445351362227,11.205656667443435L113.8140873093605,11.199427660201154L114.02024890756607,11.193821553683124L114.49699760341643,11.188776057816906L114.5098827033043,11.184235111537285L114.81912510061264,11.180148259885621L114.83201020050049,11.176470093399134L114.92220589971542,11.173159743561289L115.16702279758454,11.17018042870724L115.25721849679947,11.167499045338586L115.55357579421998,11.16508580030681L115.6437714934349,11.162913879778218L116.42976258659363,11.160959151302468L116.57149868535994,11.1591998956743L117.03536228132248,11.15761656560894L117.34460467863082,11.15619156855012L117.49922587728501,11.154909071197183L117.66673217582702,11.153754823579549L117.92443417358399,11.152716000723677L118.10482557201385,11.151781060153377L118.24656167078018,11.150939613640109L118.4398381690979,11.150182311778178L118.51714876842499,11.149500740102429L118.68465506696701,11.14888732559425L118.81350606584549,11.148335252536913L119.50930145978927,11.1478383867853L119.59949715900422,11.14739120760884L119.74123325777055,11.146988746350043L119.75411835765838,11.146626531217118L119.79277365732193,11.146300537597456L120.11490115451814,11.146007143339794L120.16644155406952,11.145743088507876L120.19221175384521,11.14550543915917L120.3468329524994,11.145291554745329L120.57876475048064,11.145099058772884L120.65607534980774,11.144925812397654L120.9137773475647,11.14476989065998L120.99108794689178,11.144629561096075L121.13282404565811,11.144503264488527L121.2101346449852,11.144389597541762L121.2616750445366,11.144287297289662L121.41629624319077,11.144195227062786L121.57091744184494,11.144112363858559L121.68688334083558,11.1440377869748L122.35690853500367,11.143970667779378L122.43421913433076,11.14391026050353L122.64038073253631,15.770938177132011L122.65326583242415,15.308181018920884L122.96250822973252,14.89169957653087L123.51656752490997,14.51686627837986L123.54233772468567,14.179516310043946L123.87735032176973,13.87590133854162L123.89023542165756,13.60264786418955L123.91600562143326,13.356719737272666L123.92889072132111,13.13538442304747L123.98043112087251,12.936182640244812L124.25101821851732,12.756901035722382L124.36698411750793,12.595547591652233L124.71488181447982,12.450329491989091L125.1658603105545,12.319633202292264L125.34625170898437,12.202006541565114L125.51375800752639,12.096142546910677L125.93896630382538,12.00086495172168L126.28686400079727,11.915115116051581L126.68630209732055,11.837940263948497L127.11151039361954,11.76848289705573L127.20170609283447,16.333053550028982L127.24036139249802,15.814084854528158L127.45940809059142,15.347013028577415L127.56248888969421,14.926648385221748L127.65268458890915,14.548320206201659L127.96192698621749,14.207824845083556L128.43867568206787,13.90137902007728L128.69637767982482,13.625577777571614L128.72214787960053,13.377356659316549L128.97984987735748,13.153957652886959L129.23755187511443,12.952898547100343L129.25043697500232,12.771945351892375L129.34063267421723,12.609087476205216L129.45659857320786,12.462515388086759L129.50813897275927,12.330600508780147L129.64987507152557,12.211877117404212L130.15239396715165,12.105026065165871L130.51317676401138,12.008860118151379L130.6806830625534,11.922310765838304L130.74510856199262,11.844416348756557L131.36359335660936,11.774311373382982L131.54398475503922,11.711216895546748L131.58264005470278,11.654431865494143L131.84034205245973,11.603325338446814L131.91765265178682,11.55732946410421L131.9434228515625,11.515933177195862L131.98207815122603,11.478676518978356L132.20112484931946,11.445145526582591L132.22689504909516,11.414967633426405L132.74229904460907,16.014889812762597L132.75518414449692,15.527737490988407L133.36078383922575,15.089300401391657L133.81176233530044,14.694707020754548L133.9277282342911,14.339572978181176L134.017923933506,14.01995233986514L134.12100473260878,13.73229376538069L134.27562593126297,13.4734010483447L134.610638528347,13.2403976030123L134.67506402778625,13.030694502213137L134.82968522644043,12.841961711493893L134.94565112543106,12.672102199846586L135.3579743218422,12.519228639364021L135.78318261814118,12.381642434929688L135.8089528179169,12.257814850938804L135.88626341724395,12.146370025346998L136.45320781230924,12.046069682314368L136.58205881118775,11.955799373585014L136.72379490995405,11.874556095728579L136.8913012084961,11.801437145657804L137.02015220737457,11.735630090594094L137.1618883061409,11.676403741036752L137.21342870569228,11.623100026435148L137.32939460468293,11.575126683293716L137.4324754037857,11.531950674466422L137.59998170232774,11.493092266521854L138.30866219615936,11.458119699371741L138.3730876955986,11.426644388936653L138.38597279548645,11.39831660954506L138.68233009290697,11.372821608092615L138.73387049245835,11.349876106785429L138.97868739032745,11.329225155608967L139.3136999874115,11.310639299550147L139.48120628595353,11.293912029097214L139.5585168852806,11.278857485689578L139.57140198516845,11.26530839662268L139.62294238471983,11.253114216462498L141.25935007047653,11.242139454318318L141.3108904700279,11.232262168388566L141.82629446554185,11.223372611051781L141.86494976520538,11.215372009448684L141.96803056430815,11.208171468005885L142.19996236228943,11.201690980707367L142.238617661953,11.195858542138707L142.36746866083146,11.190609347426905L142.43189416027067,11.185885072186291L142.48343455982206,11.18163322446974L142.61228555870056,11.177806561524848L142.66382595825195,11.17436256487444L142.76690675735475,11.171262967889067L142.998838555336,11.168473330602234L143.01172365522385,11.165962657044096L143.50135745096205,11.16370305084176L143.65597864961623,11.161669405259648L143.68174884939194,11.15983912423575L143.77194454860685,11.15819187131426L143.90079554748536,11.156709343684918L143.9136806473732,11.155375068818477L144.04253164625166,11.154174221438712L144.08118694591522,11.153093458796903L144.2873485441208,11.152120772419282L144.46773994255065,11.151245354679437L144.609476041317,11.150457478713564L144.86717803907396,11.149748390344277L144.94448863840103,11.14911021081191L145.39546713447572,11.1485358492328L145.61451383256914,11.148018923811588L145.62739893245697,11.1475536909325L145.73047973155977,11.147134981341345L146.0397221288681,15.773840425886036L146.05260722875593,15.310793042799494L146.06549232864378,14.894050398021632L146.0912625284195,14.518982017721525L146.45204532527924,14.18142047545146L146.49070062494278,13.87761508740837L146.68397712326052,13.604190238169604L147.3024619178772,13.358107873854731L147.3926576170921,13.136633745971347L147.4957384161949,12.937307030876285L147.573049015522,12.757912987290725L147.7276702141762,12.59645834806372L147.74055531406404,12.451149172759427L148.165763610363,12.320370914985546L148.35904010868072,12.20267048298905L148.4105805082321,12.096740094192237L148.44923580789566,12.001402744275094L148.66828250598905,11.915599129349658L148.82290370464327,11.838375875916762L148.8357888045311,11.768874947827168L149.23522690105438,11.706324112546532L149.4542735991478,11.650028360793959L149.46715869903562,11.59936218421663L149.49292889881133,11.553762625297047L149.54446929836274,11.512723022269416L149.58312459802627,11.475787379544535L149.90525209522247,11.442545301092167L149.943907394886,11.41262743048503L150.70412828826903,11.385701346938607L150.88451968669892,11.361467871746813L150.92317498636245,11.339657744074206L151.27107268333435,11.320028629168862L151.3612683825493,11.302362425754055L151.39992368221283,11.286462842680722L151.43857898187636,11.272153217914719L151.91532767772676,11.259274555625312L151.96686807727815,11.247683759564877L151.97975317716597,11.237252043110457L151.99263827705383,11.22786349830149L152.06994887638092,11.219413807973421L152.28899557447434,11.21180908667815L152.36630617380143,11.204964837512401L152.5466975722313,11.19880501326324L153.10075686740873,11.19326117143898L153.17806746673585,11.18827171379715L153.44865456438066,11.183781201919523L154.24753075742723,11.179739741229643L154.26041585731508,11.176102426608756L154.78870495271684,11.172828843449947L154.87890065193176,11.169882618607032L155.09794735002518,11.167231016248405L155.3169940481186,11.164844574125642L155.40718974733352,11.162696776215155L155.43295994710923,11.160763758095714L156.24472124004362,11.159024041788205L156.2833765397072,11.157458297111459L156.45088283824919,11.156049126902387L156.54107853746416,11.154780873714218L157.08225273275377,11.153639445844886L157.48169082927703,11.152612160762462L157.72650772714616,11.151687604188297L157.84247362613678,11.150855503271533L158.44807332086563,11.15010661244645L158.46095842075349,11.149432610703894L158.48672862052916,11.148826009135561L158.53826902008055,11.148280067724096L158.96347731637954,11.147788720453743L159.09232831525802,11.147346507910433L159.73658330965043,11.146948516621478L159.86543430852888,11.146590324461409L160.12313630628586,11.146267951517338L160.1875618057251,11.145977815867685L160.31641280460357,11.145716693783L160.54834460258485,11.145481683906766L160.58699990224838,11.145270175018155L160.92201249933242,11.145079817018406L161.7466588921547,11.14490849481864L161.83685459136964,11.144754304838855L162.32648838710784,11.144615533857051L162.46822448587417,11.144490639973407L162.49399468564988,11.144378235478152L163.0609390807152,11.144277071432404L163.21556027936936,11.14418602379125L163.48614737701416,11.144104080914197L163.78250467443465,11.14403033232483L163.91135567331315,11.143963958594437L164.24636827039717,11.143904222237051L164.51695536804198,11.143850459515438L165.21275076198577,11.143802073065972L165.80546535682677,11.143758525261457L165.81835045671463,11.143719332237385L165.8827759561539,11.143684058515714L165.9729716553688,11.143652312166225L165.98585675525666,15.770706023628446L166.2177885532379,15.307972080767664L166.79761804819105,14.89151153219296L167.04243494606018,14.516697038475737L167.1326306452751,14.179363994130247L167.20994124460222,13.875764254219298L167.2357114443779,13.602524488299437L167.57072404146194,13.356608698971556L167.71246014022827,13.135284488576485L167.99593233776093,12.936092699220895L168.1505535364151,12.756820088800875L168.20209393596647,17.222557022599634L168.2536343355179,16.614637979841735L168.33094493484498,16.06751084135963L168.4211406340599,15.575096416725748L168.43402573394775,15.131923434555258L168.58864693260193,14.733067750601807L168.8205787305832,14.374097635043697L169.60656982374192,14.05102453104141L169.77407612228396,13.76025873743934L169.78696122217178,13.49856952319749L170.04466321992876,13.263049230379814L170.21216951847074,13.051080966843893L170.72757351398468,12.860309529661583L170.7662288136482,12.688615236197487L170.79199901342392,12.534090372079824L171.10124141073229,12.395017994373916L171.23009240961073,12.269852854438597L171.32028810882568,12.157204228496802L171.41048380804062,12.05582046514921L171.462024207592,11.964575078136356L171.48779440736772,11.882454229824807L171.8099219045639,11.808545466344409L172.00319840288162,11.742027579212046L172.14493450164795,11.682161480792919L172.2995557003021,11.6282819922157L172.31244080018996,11.57979045249622L172.68610869693757,11.53614806674866L172.86650009536743,11.496869919575865L172.96958089447023,11.461519587120357L173.3947891907692,11.429704287910393L173.80711238718033,11.40107051862142L173.84576768684386,11.375300126261342L174.41271208190918,11.352106773137283L174.49002268123627,11.331232755325628L174.7090693793297,11.312446139295146L175.0054266767502,11.295538184867699L175.18581807518004,11.280321025883L175.26312867450716,11.266625582796774L175.34043927383422,11.254299684019175L175.37909457349778,11.243206375119318L175.6496816711426,11.233222397109481L176.04911976766587,11.224236816900598L176.07488996744158,11.216149794712605L176.12643036699296,11.20887147474343L176.29393666553497,11.20232098677115L176.39701746463774,11.196425547596117L176.4356727643013,11.19111965233859L176.69337476205826,11.186344346606807L176.8093406610489,11.182046571448204L176.88665126037597,11.178178573805452L177.35051485633852,11.17469737592697L177.36339995622635,11.171564297836357L177.646872153759,11.168744527554795L177.8272635521889,11.166206734301399L177.84014865207672,11.16392272037333L178.0463102502823,11.161867107838072L178.11073574972153,11.160017056556331L178.6390248451233,11.158352010402776L178.7549907441139,11.156853468864565L179.01269274187086,11.155504781480191L179.14154374074937,11.154290962834253L179.21885434007646,11.153198526052892L179.28327983951567,15.77929761612645L179.38636063861847,15.315704514015891L179.55386693716048,14.898470722116377L180.03061563301085,14.522960309406812L180.14658153200148,14.185000937968196L180.1981219315529,13.880837503673453L180.2238921313286,13.60709041280818L180.57178982830047,13.360718031029446L180.6619855275154,13.138982887428579L181.11296402359008,12.939421258187801L181.43509152078627,12.759815791871098L181.47374682044983,12.598170872186067L181.5768276195526,12.452690444469528L181.7829892177582,12.321758059524637L181.8989551167488,12.203918913074249L182.2983932132721,12.097863681268885L182.32416341304778,12.002413972644078L182.37570381259917,11.916509234881747L182.45301441192626,11.83919497089564L182.47878461170194,11.769612133308168L182.72360150957107,11.706987579479428L182.85245250844955,11.650625481033556L182.96841840744017,11.599899592432276L183.03284390687944,11.55424629269112L183.12303960609435,11.51315832292408L183.4838224029541,11.476179150133746L183.5611330022812,11.442897894622456L183.831720099926,11.412944764662276L183.84460519981386,11.385986947698104L183.8574902997017,11.361724912430358L184.19250289678573,11.339889080689419L184.41154959487915,11.320236832122562L184.43731979465485,11.302549808412381L185.00426418972015,11.286631487073215L185.19754068803786,11.272304997867959L185.41658738613128,11.259411157583234L186.02218708086014,11.247806701326972L186.5504761762619,11.237362690696367L186.69221227502823,11.227963081128804L187.02722487211227,11.219503432518005L187.1174205713272,11.211889748768282L187.25915667009355,11.20503743339351L187.40089276885985,11.19887034955624L187.64570966672898,11.193319974102705L188.3543901605606,11.188324636194517L188.47035605955122,11.18382883207714L188.71517295742035,11.179782608371504L189.19192165327073,11.176141007036419L189.70732564878463,11.17286356583485L189.88771704721452,11.169913868753433L189.9392574467659,11.167259141380168L189.9907978463173,11.164869886744222L190.1583041448593,11.16271955757186L190.44177634239196,11.160784261316765L190.80255913925168,11.159042494687146L190.8798697385788,11.157474904720514L190.91852503824234,11.156064073750533L191.2921929349899,11.154794325877557L191.4468141336441,11.153651552791873L191.4725843334198,11.152623057014763L191.5241247329712,11.15169741081538L191.627205532074,11.150864329235914L191.64009063196184,11.15011455581441L191.69163103151323,11.149439759735051L191.73028633117676,11.148832443263606L191.78182673072814,11.14828585843932L192.01375852870942,15.774876215274222L192.29723072624205,15.311725253248868L192.34877112579343,14.894889387426067L192.79974962186813,14.519737108185526L193.58574071502684,14.182100056869048L193.8692129125595,13.87822671068422L194.08825961065293,13.604740699117876L194.17845530986784,13.35860328870816L194.3846169080734,13.137079619339412L194.52635300683977,12.93770831690756L194.96444640302656,12.75827414471888L195.0804123020172,12.596783389749056L195.4798503985405,12.451441710276232L195.66024179697035,12.320634198750698L196.16276069259644,12.202907438377691L196.34315209102633,12.096953354042007L196.5493136892319,12.001594678139888L197.02606238508224,11.915771869827987L197.3610749821663,11.838531342347263L197.39973028182985,11.7690148676146L197.50281108093262,11.706450040355199L197.88936407756808,11.650141695821763L198.00532997655867,11.599464185741656L198.01821507644652,11.553854426669565L198.2501468744278,11.51280564350468L198.3532276735306,11.475861738656308L198.58515947151182,11.442612224292736L198.73978067016603,11.41268766136553L198.7913210697174,11.385755554731048L199.1907591662407,11.361516658760017L199.43557606410982,11.33970165238609L199.4613462638855,11.32006814664958L199.4871164636612,11.30239799148668L199.50000156354903,11.286494851840093L199.66750786209107,11.272182026158164L200.38907345581055,11.259300483044425L200.6467754535675,11.247707094242054L200.93024765110013,11.237273044319934L201.20083474874497,11.227882399390007L201.75489404392243,11.219430818953061L201.96105564212797,11.21182439655984L202.15433214044572,11.204978616405935L202.29606823921205,11.198817414267417L202.47645963764188,11.19327233234275L202.8758977341652,11.188281758610543L203.00474873304367,11.183790242251577L203.1207146320343,11.179747877528504L203.45572722911834,11.17610974927773L203.82939512586594,11.172835433852024L203.97113122463224,11.169888549968883L204.4092246208191,11.167236354474085L204.44787992048265,11.16484937852874L204.61538621902466,11.16270110017793L204.69269681835175,11.160767649662215L204.83443291711805,11.159027544198066L204.87308821678164,11.157461449280325L205.092134914875,11.15605196385437L205.16944551420212,11.154783426970992L205.18233061408998,11.153641743775975L205.41426241207122,11.152614228900447L205.517343211174,11.151689465512483L205.65907930994035,11.15085717846331L205.71061970949174,11.150108120119047L205.80081540870665,11.149433967609234L205.87812600803377,11.14882723035037L206.03274720668793,11.148281166817405L206.17448330545426,11.147789709637745L206.25179390478135,11.147347398176056L206.26467900466918,11.146949317860507L206.70277240085602,11.146591045576526L206.79296810007096,11.146268600520953L207.2568316960335,11.145978399970941L207.7722356915474,11.145717219475921L207.87531649065016,11.145482157030402L207.9397419900894,11.145270600829443L208.02993768930435,11.145080200248566L208.10724828863144,11.144908839725787L208.1845588879585,11.144754615255271L208.2103290877342,11.144615813231827L208.37783538627625,11.144490891410719L208.51957148504258,11.14437846177173L208.53245658493043,11.144277275096636L208.59688208436967,11.144186207089042L208.8803542819023,11.14410424588222L208.89323938179015,11.144030480796069L208.99632018089295,11.143964092218523L209.7436559743881,11.143904342498756L209.7694261741638,11.14385056775094L210.07866857147218,11.143802170477935L210.27194506978987,11.143758612932194L210.28483016967772,11.143719411141053L210.4394513683319,11.143684129529033L210.8131192650795,11.14365237607821L211.4058338599205,11.143623797972467L211.68930605745317,11.143598077677304L212.3722163515091,11.14357492941164L212.68145874881745,11.143554095972554L212.8618501472473,11.14353534587737L212.97781604623796,11.143518470791708L213.17109254455568,11.143503283214601L213.39013924264907,11.143489614395232L213.49322004175187,11.143477312457794L213.81534753894806,11.143466240714089L213.9313134379387,11.143456276144763L214.34363663434982,11.143447308032368L214.51114293289186,11.143439236731203L214.56268333244324,11.143431972560155L214.9621214289665,11.143425434806218L215.02654692840576,11.143419550827653L215.10385752773286,11.143414255246972L215.2455936264992,11.143409489224373L215.29713402605057,11.143405199804L215.67080192279815,11.143401339325685L216.04446981954575,11.14339786489518L216.50833341550825,11.143394737907737L216.71449501371384,11.143391923619056L217.11393311023713,11.143389390759223L217.52625630664824,11.143387111185362L217.68087750530242,11.143385059568907L217.8097285041809,11.143383213114085L217.8612689037323,11.143381551304742L218.0030050024986,11.143380055676358L218.04166030216217,11.143378709610777L218.2349368004799,11.143377498151787L218.53129409790037,11.143376407838687L218.64725999689102,11.143375426556876L218.82765139532088,11.143374543403272L218.85342159509656,11.143373748565027L218.93073219442368,11.143373033210588L220.05173588466644,11.143372389391597L220.36097828197478,11.143371809954532L220.56713988018035,11.143371288461138L220.74753127861024,11.143370819117091L220.9279226770401,11.143370396707464L221.04388857603072,11.143370016538801L221.4175564727783,11.143369674386989L221.5464074716568,11.14336936645036L221.66237337064743,11.143369089307397L221.868534968853,11.143368839878748L221.94584556818006,11.14336861539296L222.1391220664978,11.143368413355732L222.21643266582487,11.143368231522247L222.22931776571272,11.143368067872098L222.57721546268465,11.143367920586966L222.60298566246033,11.143367788030345L222.7060664615631,11.143367668729402L223.0797343583107,11.143367561358524L224.1234274492264,11.14336746472475L224.41978474664688,11.143367377754371L224.48421024608612,11.143367299481005L224.87076324272158,11.14336722903498L225.2830864391327,11.143367165633554L225.43770763778687,11.143367108572262L225.56655863666535,11.14336705721711L225.91445633363725,11.143367010997485L226.05619243240355,11.143366969399802L226.35254972982406,11.143366931961916L226.442745429039,11.143366898267796L226.48140072870254,11.14336686794309L226.5844815278053,11.143366840650854L226.64890702724455,11.14336681608785L226.75198782634735,11.143366793981142L226.82929842567444,11.143366774085095L226.97103452444077,11.143366756178663L227.51220871973038,11.143366740062854L227.5379789195061,11.143366725558652L228.13069351434706,11.14336671250485" fill="none"></path></g></g></g></g><g opacity="0.2"><g><g><g><path style="fill: none;" stroke="rgb(255, 112, 67)" stroke-width="2px" d="M25.96347627401352,158.47179499658512L26.27271867132187,127.65655540601338L26.51753556919098,108.14411034098791L26.58196106863022,103.75902148025855L26.64638656806946,99.37668704969343L26.83966306638718,85.36906076606707L26.942743865489962,79.2077351390755L27.148905463695527,68.53461171533236L27.277756462574004,50.21717746417552L27.677194559097288,21.14666408749887L27.896241257190702,20.88309343735372L28.063747555732725,20.88309343735372L28.16682835483551,20.88309343735372L28.29567935371399,20.88309343735372L28.811083349227903,20.88309343735372L28.8626237487793,20.88309343735372L29.055900247097018,20.88309343735372L29.313602244853975,16.883804995982622L29.33937244462967,16.883804995982622L29.609959542274474,16.883804995982622L30.12536353778839,11.143366595020789L30.164018837451934,11.143366595020789L30.344410235881803,11.143366595020789L30.421720835208895,11.143366595020789L30.834044031620028,11.143366595020789L30.92423973083496,11.143366595020789L30.950009930610655,11.143366595020789L31.207711928367615,11.143366595020789L31.388103326797488,11.143366595020789L31.504069225788115,11.143366595020789L31.52983942556381,11.143366595020789L31.710230823993683,11.143366595020789L31.774656323432925,11.143366595020789L31.9035073223114,11.143366595020789L32.10966892051697,11.143366595020789L32.44468151760102,11.143366595020789L32.48333681726456,11.143366595020789L32.728153715133665,11.143366595020789L32.74103881502151,11.143366595020789L33.140476911544795,11.143366595020789L33.48837460851669,11.143366595020789L33.746076606273654,11.143366595020789L33.79761700582504,11.143366595020789L33.81050210571289,11.143366595020789L34.02954880380631,11.143366595020789L34.14551470279694,11.143366595020789L34.17128490257263,11.143366595020789L34.763999497413636,11.143366595020789L35.34382899236679,11.143366595020789L35.356714092254634,11.143366595020789L35.69172668933869,11.143366595020789L35.83346278810501,11.143366595020789L35.846347887992856,11.143366595020789L36.64522408103943,11.143366595020789L36.67099428081513,11.143366595020789L36.99312177801132,11.143366595020789L37.80488307094574,11.143366595020789L38.48779336500168,11.143366595020789L38.59087416410446,11.143366595020789L38.60375926399231,11.143366595020789L38.69395496320725,11.143366595020789L38.74549536275864,11.143366595020789L39.0031973605156,11.143366595020789L39.132048359394076,11.143366595020789L39.338209957599645,11.143366595020789L39.44129075670242,11.143366595020789L39.5959119553566,11.143366595020789L39.71187785434723,11.143366595020789L39.78918845367432,11.143366595020789L40.05977555131912,11.143366595020789L40.240166949748996,11.143366595020789L40.278822249412535,11.143366595020789L40.40767324829101,11.143366595020789L40.45921364784241,11.143366595020789L40.57517954683304,11.143366595020789L40.7813411450386,11.143366595020789L40.94884744358063,11.143366595020789L41.090583542346955,11.143366595020789L41.425596139431,11.143366595020789L41.46425143909454,11.143366595020789L41.567332238197324,11.143366595020789L41.61887263774872,11.143366595020789L41.670413037300115,11.143366595020789L41.760608736515046,11.143366595020789L41.77349383640289,11.143366595020789L41.79926403617859,11.143366595020789L41.876574635505676,11.143366595020789L42.30178293180465,11.143366595020789L42.868727326869966,11.143366595020789L43.10065912485123,11.143366595020789L43.38413132238388,11.143366595020789L43.50009722137451,57.41418942678843L43.82222471857071,11.143366595020789L44.10569691610336,11.143366595020789L44.33762871408463,11.143366595020789L44.389169113636015,11.143366595020789L44.60821581172943,57.41418942678843L44.63398601150512,11.143366595020789L44.72418171072007,11.143366595020789L45.110734707355505,11.143366595020789L45.22670060634613,11.143366595020789L45.25247080612183,11.143366595020789L45.27824100589752,11.143366595020789L45.71633440208435,57.41418942678843L45.793645001411434,11.143366595020789L45.84518540096283,11.143366595020789L46.0255767993927,11.143366595020789L46.60540629434586,11.143366595020789L46.87599339199066,11.143366595020789L46.9919592909813,11.143366595020789L47.03061459064484,11.143366595020789L47.08215499019623,11.143366595020789L47.24966128873825,11.143366595020789L47.713524884700774,11.143366595020789L48.203158680438996,11.143366595020789L48.31912457942963,11.143366595020789L48.383550078868865,11.143366595020789L49.00203487348557,11.143366595020789L49.388587870121,11.143366595020789L49.4143580698967,11.143366595020789L49.46589846944809,11.143366595020789L49.65917496776581,11.143366595020789L49.80091106653214,11.143366595020789L49.82668126630783,11.143366595020789L49.96841736507415,11.143366595020789L50.13592366361618,11.143366595020789L50.29054486227035,11.143366595020789L50.72863825845718,11.143366595020789L50.76729355812073,11.143366595020789L51.84964194869995,11.143366595020789L51.90118234825134,11.143366595020789L51.97849294757843,11.143366595020789L52.081573746681215,11.143366595020789L52.32639064455032,11.143366595020789L52.455241643428806,11.143366595020789L52.97064563894272,11.143366595020789L53.511819834232334,11.143366595020789L54.20761522817612,11.143366595020789L54.22050032806396,11.143366595020789L54.28492582750321,11.143366595020789L54.568398025035854,11.143366595020789L55.03226162099838,11.143366595020789L55.71517191505432,11.143366595020789L56.29500141000748,11.143366595020789L56.565588507652286,11.143366595020789L56.630014007091525,11.143366595020789L56.69443950653076,11.143366595020789L56.70732460641861,11.143366595020789L56.73309480619431,11.143366595020789L56.861945805072786,11.143366595020789L57.158303102493285,11.143366595020789L57.54485609912872,11.143366595020789L57.570626298904415,11.143366595020789L57.828328296661375,11.143366595020789L57.970064395427706,11.143366595020789L58.24065149307251,11.143366595020789L58.588549190044404,11.143366595020789L58.62720448970795,11.143366595020789L58.8591362876892,11.143366595020789L59.116838285446164,11.143366595020789L59.27145948410035,11.143366595020789L59.42608068275452,11.143366595020789L59.490506182193755,11.143366595020789L59.54204658174515,11.143366595020789L59.67089758062363,11.143366595020789L59.812633679389954,11.143366595020789L59.87705917882919,11.143366595020789L59.95436977815628,11.143366595020789L60.01879527759552,11.143366595020789L60.147646276474,11.143366595020789L60.160531376361845,11.143366595020789L60.19918667602539,11.143366595020789L60.224956875801084,11.143366595020789L60.37957807445526,11.143366595020789L60.508429073333744,11.143366595020789L60.99806286907196,11.143366595020789L61.30730526638031,11.143366595020789L61.48769666481018,11.143366595020789L61.590777463912964,11.143366595020789L61.77116886234283,11.143366595020789L61.9773304605484,11.143366595020789L62.36388345718384,11.143366595020789L62.46696425628662,11.143366595020789L62.5958152551651,11.143366595020789L62.66024075460434,11.143366595020789L62.87928745269775,11.143366595020789L62.95659805202484,11.143366595020789L63.87144014406204,11.143366595020789L64.2064527411461,11.143366595020789L64.25799314069748,11.143366595020789L64.34818883991241,11.143366595020789L64.48992493867874,11.143366595020789L64.55435043811798,11.143366595020789L64.60589083766936,11.143366595020789L64.65743123722076,11.143366595020789L64.70897163677215,11.143366595020789L64.82493753576279,11.143366595020789L65.03109913396835,11.143366595020789L65.27591603183747,11.143366595020789L65.28880113172532,11.143366595020789L65.3403415312767,11.143366595020789L65.79132002735139,11.143366595020789L65.82997532701492,11.143366595020789L65.86863062667847,11.143366595020789L65.94594122600556,11.143366595020789L65.97171142578125,11.143366595020789L66.50000052118301,11.143366595020789L67.1700257153511,11.143366595020789L67.33753201389312,11.143366595020789L67.50503831243516,11.143366595020789L67.65965951108933,11.143366595020789L67.94313170862198,11.143366595020789L67.96890190839767,11.143366595020789L68.35545490503311,11.143366595020789L68.57450160312652,11.143366595020789L68.84508870077133,11.143366595020789L69.06413539886475,11.143366595020789L69.50222879505158,11.143366595020789L69.52799899482727,11.143366595020789L69.72127549314499,11.143366595020789L70.12071358966827,11.143366595020789L70.18513908910751,11.143366595020789L70.24956458854676,11.143366595020789L70.57169208574295,11.143366595020789L70.71342818450927,11.143366595020789L70.75208348417283,11.143366595020789L70.906704682827,11.143366595020789L70.91958978271484,11.143366595020789L71.07421098136902,57.41418942678843L71.08709608125686,11.143366595020789L71.11286628103255,11.143366595020789L71.33191297912597,11.143366595020789L71.40922357845307,11.143366595020789L71.42210867834092,11.143366595020789L71.5251894774437,11.143366595020789L71.58961497688293,11.143366595020789L71.77000637531282,11.143366595020789L71.96328287363052,11.143366595020789L72.10501897239685,11.143366595020789L72.33695077037811,11.143366595020789L72.55599746847153,11.143366595020789L72.92966536521911,11.143366595020789L72.95543556499481,11.143366595020789L73.12294186353684,11.143366595020789L73.40641406106948,11.143366595020789L73.9218180565834,11.143366595020789L74.28260085344314,11.143366595020789L74.35991145277022,11.143366595020789L74.72069424962997,11.143366595020789L74.9397409477234,11.143366595020789L75.02993664693832,11.143366595020789L75.18455784559251,11.143366595020789L75.22321314525604,11.143366595020789L75.27475354480744,11.143366595020789L75.76438734054565,11.143366595020789L75.89323833942413,11.143366595020789L75.95766383886338,11.143366595020789L76.34421683549881,11.143366595020789L76.35710193538667,11.143366595020789L76.65345923280715,11.143366595020789L76.89827613067627,11.143366595020789L77.0142420296669,11.143366595020789L77.0400122294426,11.143366595020789L77.14309302854538,11.143366595020789L77.24617382764816,11.143366595020789L77.6069566245079,11.143366595020789L77.71003742361069,11.143366595020789L77.91619902181625,11.143366595020789L78.17390101957321,11.143366595020789L78.38006261777878,11.143366595020789L78.48314341688156,11.143366595020789L78.61199441576004,11.143366595020789L79.43664080858231,11.143366595020789L79.81030870532989,11.143366595020789L80.04224050331115,11.143366595020789L80.1324362025261,11.143366595020789L80.29994250106812,11.143366595020789L81.240554792881,11.143366595020789L81.2920951924324,11.143366595020789L81.3951759915352,11.143366595020789L82.2069372844696,11.143366595020789L82.63214558076858,11.143366595020789L82.94138797807695,11.143366595020789L83.09600917673112,11.143366595020789L83.1475495762825,11.143366595020789L83.25063037538528,11.143366595020789L83.4696770734787,11.143366595020789L83.57275787258148,11.143366595020789L83.90777046966552,11.143366595020789L83.93354066944121,11.143366595020789L84.16547246742249,11.143366595020789L84.39740426540375,11.143366595020789L84.46182976484299,11.143366595020789L84.52625526428223,11.143366595020789L84.62933606338501,11.143366595020789L84.69376156282425,11.143366595020789L85.01588906002046,11.143366595020789L85.3251314573288,11.143366595020789L85.42821225643158,11.143366595020789L85.50552285575866,11.143366595020789L85.5957185549736,11.143366595020789L86.04669705104827,11.143366595020789L86.09823745059967,11.143366595020789L86.14977785015105,11.143366595020789L86.27862884902953,11.143366595020789L86.30439904880524,11.143366595020789L86.56210104656219,11.143366595020789L86.79403284454345,11.143366595020789L86.87134344387054,11.143366595020789L87.24501134061813,11.143366595020789L87.38674743938446,11.143366595020789L87.63156433725358,11.143366595020789L87.70887493658066,11.143366595020789L87.79907063579559,11.143366595020789L88.32735973119736,11.143366595020789L88.84276372671127,11.143366595020789L88.85564882659912,11.143366595020789L89.16489122390746,11.143366595020789L89.66741011953353,11.143366595020789L89.71895051908493,11.143366595020789L89.73183561897278,11.143366595020789L89.77049091863633,11.143366595020789L89.79626111841202,11.143366595020789L89.96376741695404,11.143366595020789L90.11838861560823,11.143366595020789L90.14415881538392,11.143366595020789L90.28589491415023,11.143366595020789L90.45340121269226,11.143366595020789L90.60802241134644,11.143366595020789L90.68533301067352,11.143366595020789L90.7884138097763,11.143366595020789L90.87860950899125,11.143366595020789L90.93014990854263,11.143366595020789L90.94303500843048,11.143366595020789L90.98169030809402,11.143366595020789L91.1363115067482,11.143366595020789L91.52286450338364,11.143366595020789L91.53574960327148,11.143366595020789L91.79345160102845,11.143366595020789L91.93518769979477,11.143366595020789L92.0511535987854,11.143366595020789L92.36039599609374,11.143366595020789L92.55367249441147,11.143366595020789L92.75983409261703,11.143366595020789L92.81137449216844,11.143366595020789L92.90157019138336,11.143366595020789L93.09484668970109,11.143366595020789L93.13350198936462,11.143366595020789L93.15927218914031,11.143366595020789L93.2881231880188,11.143366595020789L93.79064208364487,11.143366595020789L94.4993225774765,11.143366595020789L94.58951827669144,11.143366595020789L94.71836927556991,11.143366595020789L94.83433517456055,57.41418942678843L94.87299047422408,11.143366595020789L95.04049677276612,11.143366595020789L96.16150046300888,11.143366595020789L96.81864055728911,11.143366595020789L97.39847005224227,11.143366595020789L98.17157604551316,11.143366595020789L98.72563534069062,11.143366595020789L98.84160123968124,11.143366595020789L99.08641813755035,11.143366595020789L99.15084363698959,11.143366595020789L99.40854563474655,11.143366595020789L99.92394963026047,11.143366595020789L100.3105026268959,11.143366595020789L100.51666422510148,11.143366595020789L100.77436622285843,11.143366595020789L100.85167682218551,11.143366595020789L101.26400001859666,11.143366595020789L101.3026553182602,11.143366595020789L101.47016161680222,11.143366595020789L101.62478281545638,11.143366595020789L101.83094441366195,11.143366595020789L101.95979541254043,11.143366595020789L102.3850037088394,11.143366595020789L102.61693550682068,11.143366595020789L102.77155670547485,11.143366595020789L102.88752260446549,11.143366595020789L103.0292587032318,11.143366595020789L103.06791400289536,11.143366595020789L103.24830540132523,11.143366595020789L103.3256160006523,11.143366595020789L103.64774349784851,11.143366595020789L103.9698709950447,11.143366595020789L104.40796439123154,11.143366595020789L104.51104519033433,11.143366595020789L104.70432168865204,11.143366595020789L104.91048328685761,11.143366595020789L105.00067898607253,11.143366595020789L105.10375978517533,11.143366595020789L105.33569158315659,11.143366595020789L105.49031278181076,11.143366595020789L105.73512967967987,11.143366595020789L105.91552107810973,57.41418942678843L106.147452876091,11.143366595020789L106.17322307586669,11.143366595020789L106.34072937440872,11.143366595020789L106.4180399737358,11.143366595020789L106.48246547317505,11.143366595020789L106.52112077283859,11.143366595020789L106.58554627227784,11.143366595020789L107.52615856409074,11.143366595020789L107.62923936319352,11.143366595020789L107.96425196027755,11.143366595020789L108.19618375825883,11.143366595020789L108.350804956913,11.143366595020789L108.36369005680083,11.143366595020789L108.4023453564644,11.143366595020789L108.518311255455,11.143366595020789L108.63427715444564,11.143366595020789L108.6729324541092,11.143366595020789L108.85332385253906,11.143366595020789L108.91774935197832,11.143366595020789L108.9692897515297,11.143366595020789L109.35584274816513,11.143366595020789L109.57488944625855,11.143366595020789L109.76816594457627,11.143366595020789L109.88413184356689,11.143366595020789L110.46396133852005,11.143366595020789L110.65723783683777,11.143366595020789L110.91493983459473,11.143366595020789L111.05667593336105,11.143366595020789L111.0953312330246,11.143366595020789L111.3659183306694,11.143366595020789L111.58496502876281,11.143366595020789L112.10036902427673,11.143366595020789L112.12613922405242,11.143366595020789L112.20344982337951,11.143366595020789L112.46115182113648,11.143366595020789L112.5255773205757,11.143366595020789L113.02809621620177,11.143366595020789L113.05386641597747,11.143366595020789L113.09252171564103,11.143366595020789L113.23425781440736,11.143366595020789L113.32445351362227,11.143366595020789L113.8140873093605,11.143366595020789L114.02024890756607,11.143366595020789L114.49699760341643,11.143366595020789L114.5098827033043,11.143366595020789L114.81912510061264,11.143366595020789L114.83201020050049,11.143366595020789L114.92220589971542,11.143366595020789L115.16702279758454,11.143366595020789L115.25721849679947,11.143366595020789L115.55357579421998,11.143366595020789L115.6437714934349,11.143366595020789L116.42976258659363,11.143366595020789L116.57149868535994,11.143366595020789L117.03536228132248,11.143366595020789L117.34460467863082,11.143366595020789L117.49922587728501,11.143366595020789L117.66673217582702,11.143366595020789L117.92443417358399,11.143366595020789L118.10482557201385,11.143366595020789L118.24656167078018,11.143366595020789L118.4398381690979,11.143366595020789L118.51714876842499,11.143366595020789L118.68465506696701,11.143366595020789L118.81350606584549,11.143366595020789L119.50930145978927,11.143366595020789L119.59949715900422,11.143366595020789L119.74123325777055,11.143366595020789L119.75411835765838,11.143366595020789L119.79277365732193,11.143366595020789L120.11490115451814,11.143366595020789L120.16644155406952,11.143366595020789L120.19221175384521,11.143366595020789L120.3468329524994,11.143366595020789L120.57876475048064,11.143366595020789L120.65607534980774,11.143366595020789L120.9137773475647,11.143366595020789L120.99108794689178,11.143366595020789L121.13282404565811,11.143366595020789L121.2101346449852,11.143366595020789L121.2616750445366,11.143366595020789L121.41629624319077,11.143366595020789L121.57091744184494,11.143366595020789L121.68688334083558,11.143366595020789L122.35690853500367,11.143366595020789L122.43421913433076,11.143366595020789L122.64038073253631,57.41418942678843L122.65326583242415,11.143366595020789L122.96250822973252,11.143366595020789L123.51656752490997,11.143366595020789L123.54233772468567,11.143366595020789L123.87735032176973,11.143366595020789L123.89023542165756,11.143366595020789L123.91600562143326,11.143366595020789L123.92889072132111,11.143366595020789L123.98043112087251,11.143366595020789L124.25101821851732,11.143366595020789L124.36698411750793,11.143366595020789L124.71488181447982,11.143366595020789L125.1658603105545,11.143366595020789L125.34625170898437,11.143366595020789L125.51375800752639,11.143366595020789L125.93896630382538,11.143366595020789L126.28686400079727,11.143366595020789L126.68630209732055,11.143366595020789L127.11151039361954,11.143366595020789L127.20170609283447,57.41418942678843L127.24036139249802,11.143366595020789L127.45940809059142,11.143366595020789L127.56248888969421,11.143366595020789L127.65268458890915,11.143366595020789L127.96192698621749,11.143366595020789L128.43867568206787,11.143366595020789L128.69637767982482,11.143366595020789L128.72214787960053,11.143366595020789L128.97984987735748,11.143366595020789L129.23755187511443,11.143366595020789L129.25043697500232,11.143366595020789L129.34063267421723,11.143366595020789L129.45659857320786,11.143366595020789L129.50813897275927,11.143366595020789L129.64987507152557,11.143366595020789L130.15239396715165,11.143366595020789L130.51317676401138,11.143366595020789L130.6806830625534,11.143366595020789L130.74510856199262,11.143366595020789L131.36359335660936,11.143366595020789L131.54398475503922,11.143366595020789L131.58264005470278,11.143366595020789L131.84034205245973,11.143366595020789L131.91765265178682,11.143366595020789L131.9434228515625,11.143366595020789L131.98207815122603,11.143366595020789L132.20112484931946,11.143366595020789L132.22689504909516,11.143366595020789L132.74229904460907,57.41418942678843L132.75518414449692,11.143366595020789L133.36078383922575,11.143366595020789L133.81176233530044,11.143366595020789L133.9277282342911,11.143366595020789L134.017923933506,11.143366595020789L134.12100473260878,11.143366595020789L134.27562593126297,11.143366595020789L134.610638528347,11.143366595020789L134.67506402778625,11.143366595020789L134.82968522644043,11.143366595020789L134.94565112543106,11.143366595020789L135.3579743218422,11.143366595020789L135.78318261814118,11.143366595020789L135.8089528179169,11.143366595020789L135.88626341724395,11.143366595020789L136.45320781230924,11.143366595020789L136.58205881118775,11.143366595020789L136.72379490995405,11.143366595020789L136.8913012084961,11.143366595020789L137.02015220737457,11.143366595020789L137.1618883061409,11.143366595020789L137.21342870569228,11.143366595020789L137.32939460468293,11.143366595020789L137.4324754037857,11.143366595020789L137.59998170232774,11.143366595020789L138.30866219615936,11.143366595020789L138.3730876955986,11.143366595020789L138.38597279548645,11.143366595020789L138.68233009290697,11.143366595020789L138.73387049245835,11.143366595020789L138.97868739032745,11.143366595020789L139.3136999874115,11.143366595020789L139.48120628595353,11.143366595020789L139.5585168852806,11.143366595020789L139.57140198516845,11.143366595020789L139.62294238471983,11.143366595020789L141.25935007047653,11.143366595020789L141.3108904700279,11.143366595020789L141.82629446554185,11.143366595020789L141.86494976520538,11.143366595020789L141.96803056430815,11.143366595020789L142.19996236228943,11.143366595020789L142.238617661953,11.143366595020789L142.36746866083146,11.143366595020789L142.43189416027067,11.143366595020789L142.48343455982206,11.143366595020789L142.61228555870056,11.143366595020789L142.66382595825195,11.143366595020789L142.76690675735475,11.143366595020789L142.998838555336,11.143366595020789L143.01172365522385,11.143366595020789L143.50135745096205,11.143366595020789L143.65597864961623,11.143366595020789L143.68174884939194,11.143366595020789L143.77194454860685,11.143366595020789L143.90079554748536,11.143366595020789L143.9136806473732,11.143366595020789L144.04253164625166,11.143366595020789L144.08118694591522,11.143366595020789L144.2873485441208,11.143366595020789L144.46773994255065,11.143366595020789L144.609476041317,11.143366595020789L144.86717803907396,11.143366595020789L144.94448863840103,11.143366595020789L145.39546713447572,11.143366595020789L145.61451383256914,11.143366595020789L145.62739893245697,11.143366595020789L145.73047973155977,11.143366595020789L146.0397221288681,57.41418942678843L146.05260722875593,11.143366595020789L146.06549232864378,11.143366595020789L146.0912625284195,11.143366595020789L146.45204532527924,11.143366595020789L146.49070062494278,11.143366595020789L146.68397712326052,11.143366595020789L147.3024619178772,11.143366595020789L147.3926576170921,11.143366595020789L147.4957384161949,11.143366595020789L147.573049015522,11.143366595020789L147.7276702141762,11.143366595020789L147.74055531406404,11.143366595020789L148.165763610363,11.143366595020789L148.35904010868072,11.143366595020789L148.4105805082321,11.143366595020789L148.44923580789566,11.143366595020789L148.66828250598905,11.143366595020789L148.82290370464327,11.143366595020789L148.8357888045311,11.143366595020789L149.23522690105438,11.143366595020789L149.4542735991478,11.143366595020789L149.46715869903562,11.143366595020789L149.49292889881133,11.143366595020789L149.54446929836274,11.143366595020789L149.58312459802627,11.143366595020789L149.90525209522247,11.143366595020789L149.943907394886,11.143366595020789L150.70412828826903,11.143366595020789L150.88451968669892,11.143366595020789L150.92317498636245,11.143366595020789L151.27107268333435,11.143366595020789L151.3612683825493,11.143366595020789L151.39992368221283,11.143366595020789L151.43857898187636,11.143366595020789L151.91532767772676,11.143366595020789L151.96686807727815,11.143366595020789L151.97975317716597,11.143366595020789L151.99263827705383,11.143366595020789L152.06994887638092,11.143366595020789L152.28899557447434,11.143366595020789L152.36630617380143,11.143366595020789L152.5466975722313,11.143366595020789L153.10075686740873,11.143366595020789L153.17806746673585,11.143366595020789L153.44865456438066,11.143366595020789L154.24753075742723,11.143366595020789L154.26041585731508,11.143366595020789L154.78870495271684,11.143366595020789L154.87890065193176,11.143366595020789L155.09794735002518,11.143366595020789L155.3169940481186,11.143366595020789L155.40718974733352,11.143366595020789L155.43295994710923,11.143366595020789L156.24472124004362,11.143366595020789L156.2833765397072,11.143366595020789L156.45088283824919,11.143366595020789L156.54107853746416,11.143366595020789L157.08225273275377,11.143366595020789L157.48169082927703,11.143366595020789L157.72650772714616,11.143366595020789L157.84247362613678,11.143366595020789L158.44807332086563,11.143366595020789L158.46095842075349,11.143366595020789L158.48672862052916,11.143366595020789L158.53826902008055,11.143366595020789L158.96347731637954,11.143366595020789L159.09232831525802,11.143366595020789L159.73658330965043,11.143366595020789L159.86543430852888,11.143366595020789L160.12313630628586,11.143366595020789L160.1875618057251,11.143366595020789L160.31641280460357,11.143366595020789L160.54834460258485,11.143366595020789L160.58699990224838,11.143366595020789L160.92201249933242,11.143366595020789L161.7466588921547,11.143366595020789L161.83685459136964,11.143366595020789L162.32648838710784,11.143366595020789L162.46822448587417,11.143366595020789L162.49399468564988,11.143366595020789L163.0609390807152,11.143366595020789L163.21556027936936,11.143366595020789L163.48614737701416,11.143366595020789L163.78250467443465,11.143366595020789L163.91135567331315,11.143366595020789L164.24636827039717,11.143366595020789L164.51695536804198,11.143366595020789L165.21275076198577,11.143366595020789L165.80546535682677,11.143366595020789L165.81835045671463,11.143366595020789L165.8827759561539,11.143366595020789L165.9729716553688,11.143366595020789L165.98585675525666,57.41418942678843L166.2177885532379,11.143366595020789L166.79761804819105,11.143366595020789L167.04243494606018,11.143366595020789L167.1326306452751,11.143366595020789L167.20994124460222,11.143366595020789L167.2357114443779,11.143366595020789L167.57072404146194,11.143366595020789L167.71246014022827,11.143366595020789L167.99593233776093,11.143366595020789L168.1505535364151,11.143366595020789L168.20209393596647,57.41418942678843L168.2536343355179,11.143366595020789L168.33094493484498,11.143366595020789L168.4211406340599,11.143366595020789L168.43402573394775,11.143366595020789L168.58864693260193,11.143366595020789L168.8205787305832,11.143366595020789L169.60656982374192,11.143366595020789L169.77407612228396,11.143366595020789L169.78696122217178,11.143366595020789L170.04466321992876,11.143366595020789L170.21216951847074,11.143366595020789L170.72757351398468,11.143366595020789L170.7662288136482,11.143366595020789L170.79199901342392,11.143366595020789L171.10124141073229,11.143366595020789L171.23009240961073,11.143366595020789L171.32028810882568,11.143366595020789L171.41048380804062,11.143366595020789L171.462024207592,11.143366595020789L171.48779440736772,11.143366595020789L171.8099219045639,11.143366595020789L172.00319840288162,11.143366595020789L172.14493450164795,11.143366595020789L172.2995557003021,11.143366595020789L172.31244080018996,11.143366595020789L172.68610869693757,11.143366595020789L172.86650009536743,11.143366595020789L172.96958089447023,11.143366595020789L173.3947891907692,11.143366595020789L173.80711238718033,11.143366595020789L173.84576768684386,11.143366595020789L174.41271208190918,11.143366595020789L174.49002268123627,11.143366595020789L174.7090693793297,11.143366595020789L175.0054266767502,11.143366595020789L175.18581807518004,11.143366595020789L175.26312867450716,11.143366595020789L175.34043927383422,11.143366595020789L175.37909457349778,11.143366595020789L175.6496816711426,11.143366595020789L176.04911976766587,11.143366595020789L176.07488996744158,11.143366595020789L176.12643036699296,11.143366595020789L176.29393666553497,11.143366595020789L176.39701746463774,11.143366595020789L176.4356727643013,11.143366595020789L176.69337476205826,11.143366595020789L176.8093406610489,11.143366595020789L176.88665126037597,11.143366595020789L177.35051485633852,11.143366595020789L177.36339995622635,11.143366595020789L177.646872153759,11.143366595020789L177.8272635521889,11.143366595020789L177.84014865207672,11.143366595020789L178.0463102502823,11.143366595020789L178.11073574972153,11.143366595020789L178.6390248451233,11.143366595020789L178.7549907441139,11.143366595020789L179.01269274187086,11.143366595020789L179.14154374074937,11.143366595020789L179.21885434007646,11.143366595020789L179.28327983951567,57.41418942678843L179.38636063861847,11.143366595020789L179.55386693716048,11.143366595020789L180.03061563301085,11.143366595020789L180.14658153200148,11.143366595020789L180.1981219315529,11.143366595020789L180.2238921313286,11.143366595020789L180.57178982830047,11.143366595020789L180.6619855275154,11.143366595020789L181.11296402359008,11.143366595020789L181.43509152078627,11.143366595020789L181.47374682044983,11.143366595020789L181.5768276195526,11.143366595020789L181.7829892177582,11.143366595020789L181.8989551167488,11.143366595020789L182.2983932132721,11.143366595020789L182.32416341304778,11.143366595020789L182.37570381259917,11.143366595020789L182.45301441192626,11.143366595020789L182.47878461170194,11.143366595020789L182.72360150957107,11.143366595020789L182.85245250844955,11.143366595020789L182.96841840744017,11.143366595020789L183.03284390687944,11.143366595020789L183.12303960609435,11.143366595020789L183.4838224029541,11.143366595020789L183.5611330022812,11.143366595020789L183.831720099926,11.143366595020789L183.84460519981386,11.143366595020789L183.8574902997017,11.143366595020789L184.19250289678573,11.143366595020789L184.41154959487915,11.143366595020789L184.43731979465485,11.143366595020789L185.00426418972015,11.143366595020789L185.19754068803786,11.143366595020789L185.41658738613128,11.143366595020789L186.02218708086014,11.143366595020789L186.5504761762619,11.143366595020789L186.69221227502823,11.143366595020789L187.02722487211227,11.143366595020789L187.1174205713272,11.143366595020789L187.25915667009355,11.143366595020789L187.40089276885985,11.143366595020789L187.64570966672898,11.143366595020789L188.3543901605606,11.143366595020789L188.47035605955122,11.143366595020789L188.71517295742035,11.143366595020789L189.19192165327073,11.143366595020789L189.70732564878463,11.143366595020789L189.88771704721452,11.143366595020789L189.9392574467659,11.143366595020789L189.9907978463173,11.143366595020789L190.1583041448593,11.143366595020789L190.44177634239196,11.143366595020789L190.80255913925168,11.143366595020789L190.8798697385788,11.143366595020789L190.91852503824234,11.143366595020789L191.2921929349899,11.143366595020789L191.4468141336441,11.143366595020789L191.4725843334198,11.143366595020789L191.5241247329712,11.143366595020789L191.627205532074,11.143366595020789L191.64009063196184,11.143366595020789L191.69163103151323,11.143366595020789L191.73028633117676,11.143366595020789L191.78182673072814,11.143366595020789L192.01375852870942,57.41418942678843L192.29723072624205,11.143366595020789L192.34877112579343,11.143366595020789L192.79974962186813,11.143366595020789L193.58574071502684,11.143366595020789L193.8692129125595,11.143366595020789L194.08825961065293,11.143366595020789L194.17845530986784,11.143366595020789L194.3846169080734,11.143366595020789L194.52635300683977,11.143366595020789L194.96444640302656,11.143366595020789L195.0804123020172,11.143366595020789L195.4798503985405,11.143366595020789L195.66024179697035,11.143366595020789L196.16276069259644,11.143366595020789L196.34315209102633,11.143366595020789L196.5493136892319,11.143366595020789L197.02606238508224,11.143366595020789L197.3610749821663,11.143366595020789L197.39973028182985,11.143366595020789L197.50281108093262,11.143366595020789L197.88936407756808,11.143366595020789L198.00532997655867,11.143366595020789L198.01821507644652,11.143366595020789L198.2501468744278,11.143366595020789L198.3532276735306,11.143366595020789L198.58515947151182,11.143366595020789L198.73978067016603,11.143366595020789L198.7913210697174,11.143366595020789L199.1907591662407,11.143366595020789L199.43557606410982,11.143366595020789L199.4613462638855,11.143366595020789L199.4871164636612,11.143366595020789L199.50000156354903,11.143366595020789L199.66750786209107,11.143366595020789L200.38907345581055,11.143366595020789L200.6467754535675,11.143366595020789L200.93024765110013,11.143366595020789L201.20083474874497,11.143366595020789L201.75489404392243,11.143366595020789L201.96105564212797,11.143366595020789L202.15433214044572,11.143366595020789L202.29606823921205,11.143366595020789L202.47645963764188,11.143366595020789L202.8758977341652,11.143366595020789L203.00474873304367,11.143366595020789L203.1207146320343,11.143366595020789L203.45572722911834,11.143366595020789L203.82939512586594,11.143366595020789L203.97113122463224,11.143366595020789L204.4092246208191,11.143366595020789L204.44787992048265,11.143366595020789L204.61538621902466,11.143366595020789L204.69269681835175,11.143366595020789L204.83443291711805,11.143366595020789L204.87308821678164,11.143366595020789L205.092134914875,11.143366595020789L205.16944551420212,11.143366595020789L205.18233061408998,11.143366595020789L205.41426241207122,11.143366595020789L205.517343211174,11.143366595020789L205.65907930994035,11.143366595020789L205.71061970949174,11.143366595020789L205.80081540870665,11.143366595020789L205.87812600803377,11.143366595020789L206.03274720668793,11.143366595020789L206.17448330545426,11.143366595020789L206.25179390478135,11.143366595020789L206.26467900466918,11.143366595020789L206.70277240085602,11.143366595020789L206.79296810007096,11.143366595020789L207.2568316960335,11.143366595020789L207.7722356915474,11.143366595020789L207.87531649065016,11.143366595020789L207.9397419900894,11.143366595020789L208.02993768930435,11.143366595020789L208.10724828863144,11.143366595020789L208.1845588879585,11.143366595020789L208.2103290877342,11.143366595020789L208.37783538627625,11.143366595020789L208.51957148504258,11.143366595020789L208.53245658493043,11.143366595020789L208.59688208436967,11.143366595020789L208.8803542819023,11.143366595020789L208.89323938179015,11.143366595020789L208.99632018089295,11.143366595020789L209.7436559743881,11.143366595020789L209.7694261741638,11.143366595020789L210.07866857147218,11.143366595020789L210.27194506978987,11.143366595020789L210.28483016967772,11.143366595020789L210.4394513683319,11.143366595020789L210.8131192650795,11.143366595020789L211.4058338599205,11.143366595020789L211.68930605745317,11.143366595020789L212.3722163515091,11.143366595020789L212.68145874881745,11.143366595020789L212.8618501472473,11.143366595020789L212.97781604623796,11.143366595020789L213.17109254455568,11.143366595020789L213.39013924264907,11.143366595020789L213.49322004175187,11.143366595020789L213.81534753894806,11.143366595020789L213.9313134379387,11.143366595020789L214.34363663434982,11.143366595020789L214.51114293289186,11.143366595020789L214.56268333244324,11.143366595020789L214.9621214289665,11.143366595020789L215.02654692840576,11.143366595020789L215.10385752773286,11.143366595020789L215.2455936264992,11.143366595020789L215.29713402605057,11.143366595020789L215.67080192279815,11.143366595020789L216.04446981954575,11.143366595020789L216.50833341550825,11.143366595020789L216.71449501371384,11.143366595020789L217.11393311023713,11.143366595020789L217.52625630664824,11.143366595020789L217.68087750530242,11.143366595020789L217.8097285041809,11.143366595020789L217.8612689037323,11.143366595020789L218.0030050024986,11.143366595020789L218.04166030216217,11.143366595020789L218.2349368004799,11.143366595020789L218.53129409790037,11.143366595020789L218.64725999689102,11.143366595020789L218.82765139532088,11.143366595020789L218.85342159509656,11.143366595020789L218.93073219442368,11.143366595020789L220.05173588466644,11.143366595020789L220.36097828197478,11.143366595020789L220.56713988018035,11.143366595020789L220.74753127861024,11.143366595020789L220.9279226770401,11.143366595020789L221.04388857603072,11.143366595020789L221.4175564727783,11.143366595020789L221.5464074716568,11.143366595020789L221.66237337064743,11.143366595020789L221.868534968853,11.143366595020789L221.94584556818006,11.143366595020789L222.1391220664978,11.143366595020789L222.21643266582487,11.143366595020789L222.22931776571272,11.143366595020789L222.57721546268465,11.143366595020789L222.60298566246033,11.143366595020789L222.7060664615631,11.143366595020789L223.0797343583107,11.143366595020789L224.1234274492264,11.143366595020789L224.41978474664688,11.143366595020789L224.48421024608612,11.143366595020789L224.87076324272158,11.143366595020789L225.2830864391327,11.143366595020789L225.43770763778687,11.143366595020789L225.56655863666535,11.143366595020789L225.91445633363725,11.143366595020789L226.05619243240355,11.143366595020789L226.35254972982406,11.143366595020789L226.442745429039,11.143366595020789L226.48140072870254,11.143366595020789L226.5844815278053,11.143366595020789L226.64890702724455,11.143366595020789L226.75198782634735,11.143366595020789L226.82929842567444,11.143366595020789L226.97103452444077,11.143366595020789L227.51220871973038,11.143366595020789L227.5379789195061,11.143366595020789L228.13069351434706,11.143366595020789" fill="none"></path></g></g></g></g></g></g><g transform="translate(72, 176)" clip-path="url(#clip_1)"><clipPath id="clip_1"><rect width="257" height="23"></rect></clipPath><g><g><line x1="0" y1="0" x2="0" y2="5" style="visibility: inherit;" fill="rgb(0, 0, 0)" stroke="rgb(204, 204, 204)" stroke-width="1px"></line><line x1="25.7701997756958" y1="0" x2="25.7701997756958" y2="5" style="visibility: inherit;" fill="rgb(0, 0, 0)" stroke="rgb(204, 204, 204)" stroke-width="1px"></line><line x1="51.5403995513916" y1="0" x2="51.5403995513916" y2="5" style="visibility: inherit;" fill="rgb(0, 0, 0)" stroke="rgb(204, 204, 204)" stroke-width="1px"></line><line x1="77.3105993270874" y1="0" x2="77.3105993270874" y2="5" style="visibility: inherit;" fill="rgb(0, 0, 0)" stroke="rgb(204, 204, 204)" stroke-width="1px"></line><line x1="103.0807991027832" y1="0" x2="103.0807991027832" y2="5" style="visibility: inherit;" fill="rgb(0, 0, 0)" stroke="rgb(204, 204, 204)" stroke-width="1px"></line><line x1="128.850998878479" y1="0" x2="128.850998878479" y2="5" style="visibility: inherit;" fill="rgb(0, 0, 0)" stroke="rgb(204, 204, 204)" stroke-width="1px"></line><line x1="154.6211986541748" y1="0" x2="154.6211986541748" y2="5" style="visibility: inherit;" fill="rgb(0, 0, 0)" stroke="rgb(204, 204, 204)" stroke-width="1px"></line><line x1="180.3913984298706" y1="0" x2="180.3913984298706" y2="5" style="visibility: inherit;" fill="rgb(0, 0, 0)" stroke="rgb(204, 204, 204)" stroke-width="1px"></line><line x1="206.1615982055664" y1="0" x2="206.1615982055664" y2="5" style="visibility: inherit;" fill="rgb(0, 0, 0)" stroke="rgb(204, 204, 204)" stroke-width="1px"></line><line x1="231.9317979812622" y1="0" x2="231.9317979812622" y2="5" style="visibility: inherit;" fill="rgb(0, 0, 0)" stroke="rgb(204, 204, 204)" stroke-width="1px"></line><line x1="257.701997756958" y1="0" x2="257.701997756958" y2="5" style="visibility: inherit;" fill="rgb(0, 0, 0)" stroke="rgb(204, 204, 204)" stroke-width="1px"></line></g><g transform="translate(0, 8)"><text style="text-anchor: middle; visibility: hidden; font-family: Roboto, sans-serif; font-size: 12px; font-weight: 200;" x="0" y="0" dx="0em" dy="0.95em" fill="rgb(33, 33, 33)" stroke="none" stroke-width="1px">-2k</text><text style="text-anchor: middle; visibility: inherit; font-family: Roboto, sans-serif; font-size: 12px; font-weight: 200;" x="25.7701997756958" y="0" dx="0em" dy="0.95em" fill="rgb(33, 33, 33)" stroke="none" stroke-width="1px">0</text><text style="text-anchor: middle; visibility: hidden; font-family: Roboto, sans-serif; font-size: 12px; font-weight: 200;" x="51.5403995513916" y="0" dx="0em" dy="0.95em" fill="rgb(33, 33, 33)" stroke="none" stroke-width="1px">2k</text><text style="text-anchor: middle; visibility: inherit; font-family: Roboto, sans-serif; font-size: 12px; font-weight: 200;" x="77.3105993270874" y="0" dx="0em" dy="0.95em" fill="rgb(33, 33, 33)" stroke="none" stroke-width="1px">4k</text><text style="text-anchor: middle; visibility: hidden; font-family: Roboto, sans-serif; font-size: 12px; font-weight: 200;" x="103.0807991027832" y="0" dx="0em" dy="0.95em" fill="rgb(33, 33, 33)" stroke="none" stroke-width="1px">6k</text><text style="text-anchor: middle; visibility: inherit; font-family: Roboto, sans-serif; font-size: 12px; font-weight: 200;" x="128.850998878479" y="0" dx="0em" dy="0.95em" fill="rgb(33, 33, 33)" stroke="none" stroke-width="1px">8k</text><text style="text-anchor: middle; visibility: hidden; font-family: Roboto, sans-serif; font-size: 12px; font-weight: 200;" x="154.6211986541748" y="0" dx="0em" dy="0.95em" fill="rgb(33, 33, 33)" stroke="none" stroke-width="1px">10k</text><text style="text-anchor: middle; visibility: inherit; font-family: Roboto, sans-serif; font-size: 12px; font-weight: 200;" x="180.3913984298706" y="0" dx="0em" dy="0.95em" fill="rgb(33, 33, 33)" stroke="none" stroke-width="1px">12k</text><text style="text-anchor: middle; visibility: hidden; font-family: Roboto, sans-serif; font-size: 12px; font-weight: 200;" x="206.1615982055664" y="0" dx="0em" dy="0.95em" fill="rgb(33, 33, 33)" stroke="none" stroke-width="1px">14k</text><text style="text-anchor: middle; visibility: inherit; font-family: Roboto, sans-serif; font-size: 12px; font-weight: 200;" x="231.9317979812622" y="0" dx="0em" dy="0.95em" fill="rgb(33, 33, 33)" stroke="none" stroke-width="1px">16k</text><text style="text-anchor: middle; visibility: hidden; font-family: Roboto, sans-serif; font-size: 12px; font-weight: 200;" x="257.701997756958" y="0" dx="0em" dy="0.95em" fill="rgb(33, 33, 33)" stroke="none" stroke-width="1px">18k</text></g><line x1="0" y1="0" x2="257.701997756958" y2="0" fill="rgb(0, 0, 0)" stroke="rgb(204, 204, 204)" stroke-width="1px"></line></g></g></g></g></svg>