<svg viewBox="0 0 330 200" xmlns="http://www.w3.org/2000/svg"><g><g><g><g><g><line x1="61.91500186920166" y1="176.89999961853027" x2="56.91500186920166" y2="176.89999961853027" style="visibility: inherit;" fill="rgb(0, 0, 0)" stroke="rgb(204, 204, 204)" stroke-width="1px"></line><line x1="61.91500186920166" y1="154.787499666214" x2="56.91500186920166" y2="154.787499666214" style="visibility: inherit;" fill="rgb(0, 0, 0)" stroke="rgb(204, 204, 204)" stroke-width="1px"></line><line x1="61.91500186920166" y1="132.6749997138977" x2="56.91500186920166" y2="132.6749997138977" style="visibility: inherit;" fill="rgb(0, 0, 0)" stroke="rgb(204, 204, 204)" stroke-width="1px"></line><line x1="61.91500186920166" y1="110.56249976158142" x2="56.91500186920166" y2="110.56249976158142" style="visibility: inherit;" fill="rgb(0, 0, 0)" stroke="rgb(204, 204, 204)" stroke-width="1px"></line><line x1="61.91500186920166" y1="88.44999980926512" x2="56.91500186920166" y2="88.44999980926512" style="visibility: inherit;" fill="rgb(0, 0, 0)" stroke="rgb(204, 204, 204)" stroke-width="1px"></line><line x1="61.91500186920166" y1="66.33749985694885" x2="56.91500186920166" y2="66.33749985694885" style="visibility: inherit;" fill="rgb(0, 0, 0)" stroke="rgb(204, 204, 204)" stroke-width="1px"></line><line x1="61.91500186920166" y1="44.22499990463257" x2="56.91500186920166" y2="44.22499990463257" style="visibility: inherit;" fill="rgb(0, 0, 0)" stroke="rgb(204, 204, 204)" stroke-width="1px"></line><line x1="61.91500186920166" y1="22.112499952316263" x2="56.91500186920166" y2="22.112499952316263" style="visibility: inherit;" fill="rgb(0, 0, 0)" stroke="rgb(204, 204, 204)" stroke-width="1px"></line><line x1="61.91500186920166" y1="0" x2="56.91500186920166" y2="0" style="visibility: inherit;" fill="rgb(0, 0, 0)" stroke="rgb(204, 204, 204)" stroke-width="1px"></line></g><g transform="translate(51.91500186920166, 0)"><text style="text-anchor: end; visibility: hidden; font-family: Roboto, sans-serif; font-size: 12px; font-weight: 200;" x="0" y="176.89999961853027" dx="0em" dy="0.3em" fill="rgb(33, 33, 33)" stroke="none" stroke-width="1px">0.015</text><text style="text-anchor: end; visibility: inherit; font-family: Roboto, sans-serif; font-size: 12px; font-weight: 200;" x="0" y="154.787499666214" dx="0em" dy="0.3em" fill="rgb(33, 33, 33)" stroke="none" stroke-width="1px">0.02</text><text style="text-anchor: end; visibility: hidden; font-family: Roboto, sans-serif; font-size: 12px; font-weight: 200;" x="0" y="132.6749997138977" dx="0em" dy="0.3em" fill="rgb(33, 33, 33)" stroke="none" stroke-width="1px">0.025</text><text style="text-anchor: end; visibility: inherit; font-family: Roboto, sans-serif; font-size: 12px; font-weight: 200;" x="0" y="110.56249976158142" dx="0em" dy="0.3em" fill="rgb(33, 33, 33)" stroke="none" stroke-width="1px">0.03</text><text style="text-anchor: end; visibility: hidden; font-family: Roboto, sans-serif; font-size: 12px; font-weight: 200;" x="0" y="88.44999980926512" dx="0em" dy="0.3em" fill="rgb(33, 33, 33)" stroke="none" stroke-width="1px">0.035</text><text style="text-anchor: end; visibility: inherit; font-family: Roboto, sans-serif; font-size: 12px; font-weight: 200;" x="0" y="66.33749985694885" dx="0em" dy="0.3em" fill="rgb(33, 33, 33)" stroke="none" stroke-width="1px">0.04</text><text style="text-anchor: end; visibility: hidden; font-family: Roboto, sans-serif; font-size: 12px; font-weight: 200;" x="0" y="44.22499990463257" dx="0em" dy="0.3em" fill="rgb(33, 33, 33)" stroke="none" stroke-width="1px">0.045</text><text style="text-anchor: end; visibility: inherit; font-family: Roboto, sans-serif; font-size: 12px; font-weight: 200;" x="0" y="22.112499952316263" dx="0em" dy="0.3em" fill="rgb(33, 33, 33)" stroke="none" stroke-width="1px">0.05</text><text style="text-anchor: end; visibility: hidden; font-family: Roboto, sans-serif; font-size: 12px; font-weight: 200;" x="0" y="0" dx="0em" dy="0.3em" fill="rgb(33, 33, 33)" stroke="none" stroke-width="1px">0.055</text></g><line x1="61.91500186920166" y1="0" x2="61.91500186920166" y2="176.89999961853027" fill="rgb(0, 0, 0)" stroke="rgb(204, 204, 204)" stroke-width="1px"></line></g></g><g transform="translate(61, 0)" clip-path="url(#clip_0)"><clipPath id="clip_0"><rect width="268" height="176"></rect></clipPath><g><g><g><line x1="0" y1="0" x2="0" y2="176.89999961853027" fill="rgb(0, 0, 0)" stroke="rgb(66, 66, 66)" stroke-width="1px" opacity="0.25"></line><line x1="26.808499813079834" y1="0" x2="26.808499813079834" y2="176.89999961853027" fill="rgb(0, 0, 0)" stroke="rgb(66, 66, 66)" stroke-width="1px" opacity="0.25"></line><line x1="53.61699962615967" y1="0" x2="53.61699962615967" y2="176.89999961853027" fill="rgb(0, 0, 0)" stroke="rgb(66, 66, 66)" stroke-width="1px" opacity="0.25"></line><line x1="80.4254994392395" y1="0" x2="80.4254994392395" y2="176.89999961853027" fill="rgb(0, 0, 0)" stroke="rgb(66, 66, 66)" stroke-width="1px" opacity="0.25"></line><line x1="107.23399925231934" y1="0" x2="107.23399925231934" y2="176.89999961853027" fill="rgb(0, 0, 0)" stroke="rgb(66, 66, 66)" stroke-width="1px" opacity="0.25"></line><line x1="134.04249906539917" y1="0" x2="134.04249906539917" y2="176.89999961853027" fill="rgb(0, 0, 0)" stroke="rgb(66, 66, 66)" stroke-width="1px" opacity="0.25"></line><line x1="160.850998878479" y1="0" x2="160.850998878479" y2="176.89999961853027" fill="rgb(0, 0, 0)" stroke="rgb(66, 66, 66)" stroke-width="1px" opacity="0.25"></line><line x1="187.65949869155884" y1="0" x2="187.65949869155884" y2="176.89999961853027" fill="rgb(0, 0, 0)" stroke="rgb(66, 66, 66)" stroke-width="1px" opacity="0.25"></line><line x1="214.46799850463867" y1="0" x2="214.46799850463867" y2="176.89999961853027" fill="rgb(0, 0, 0)" stroke="rgb(66, 66, 66)" stroke-width="1px" opacity="0.25"></line><line x1="241.2764983177185" y1="0" x2="241.2764983177185" y2="176.89999961853027" fill="rgb(0, 0, 0)" stroke="rgb(66, 66, 66)" stroke-width="1px" opacity="0.25"></line><line x1="268.08499813079834" y1="0" x2="268.08499813079834" y2="176.89999961853027" fill="rgb(0, 0, 0)" stroke="rgb(66, 66, 66)" stroke-width="1px" opacity="0.25"></line></g><g><line x1="0" y1="176.89999961853027" x2="268.08499813079834" y2="176.89999961853027" fill="rgb(0, 0, 0)" stroke="rgb(66, 66, 66)" stroke-width="1px" opacity="0.25"></line><line x1="0" y1="154.787499666214" x2="268.08499813079834" y2="154.787499666214" fill="rgb(0, 0, 0)" stroke="rgb(66, 66, 66)" stroke-width="1px" opacity="0.25"></line><line x1="0" y1="132.6749997138977" x2="268.08499813079834" y2="132.6749997138977" fill="rgb(0, 0, 0)" stroke="rgb(66, 66, 66)" stroke-width="1px" opacity="0.25"></line><line x1="0" y1="110.56249976158142" x2="268.08499813079834" y2="110.56249976158142" fill="rgb(0, 0, 0)" stroke="rgb(66, 66, 66)" stroke-width="1px" opacity="0.25"></line><line x1="0" y1="88.44999980926512" x2="268.08499813079834" y2="88.44999980926512" fill="rgb(0, 0, 0)" stroke="rgb(66, 66, 66)" stroke-width="1px" opacity="0.25"></line><line x1="0" y1="66.33749985694885" x2="268.08499813079834" y2="66.33749985694885" fill="rgb(0, 0, 0)" stroke="rgb(66, 66, 66)" stroke-width="1px" opacity="0.25"></line><line x1="0" y1="44.22499990463257" x2="268.08499813079834" y2="44.22499990463257" fill="rgb(0, 0, 0)" stroke="rgb(66, 66, 66)" stroke-width="1px" opacity="0.25"></line><line x1="0" y1="22.112499952316263" x2="268.08499813079834" y2="22.112499952316263" fill="rgb(0, 0, 0)" stroke="rgb(66, 66, 66)" stroke-width="1px" opacity="0.25"></line><line x1="0" y1="0" x2="268.08499813079834" y2="0" fill="rgb(0, 0, 0)" stroke="rgb(66, 66, 66)" stroke-width="1px" opacity="0.25"></line></g></g></g><g><g><line x1="0" y1="243.23749947547913" x2="268.08499813079834" y2="243.23749947547913" fill="rgb(0, 0, 0)" stroke="rgb(153, 153, 153)" stroke-width="1.5px"></line></g></g><g><g><line x1="26.808499813079834" y1="0" x2="26.808499813079834" y2="176.89999961853027" fill="rgb(0, 0, 0)" stroke="rgb(153, 153, 153)" stroke-width="1.5px"></line></g></g><g><g><g><g><g><path style="fill: none;" stroke="rgb(255, 112, 67)" stroke-width="2px" d="M27.009563561677936,27.655756986853632L27.33126555943489,34.746439003051876L27.58594630765915,53.800545096934556L27.65296755719185,57.56009698887817L27.71998880672455,60.82254569858909L27.92105255532265,62.13325014553147L28.02828655457497,60.276926184672135L28.242754553079603,60.62857896315148L28.376797052145005,64.17417660025149L28.79232879924774,66.2486797961159L29.02020104765892,70.14355981445004L29.19445629644394,70.63481216621068L29.301690295696257,72.9440816128185L29.435732794761655,73.25532473304283L29.971902791023254,76.49154309203368L30.025519790649415,78.877144666781L30.226583539247514,79.90177713305579L30.494668537378313,79.63237384904403L30.521477037191392,80.60424754340858L30.80296628522873,82.13343280893196L31.339136281490326,80.72040118189916L31.379349031209944,83.39380296260101L31.567008529901504,85.78837079997001L31.647434029340744,87.1644757189695L32.07637002635002,88.36989617317462L32.1701997756958,91.1417576226116L32.19700827550888,88.78472978516626L32.46509327363968,91.77140059143295L32.65275277233124,90.0394931521773L32.7733910214901,90.74034308230284L32.80019952130318,91.6426846686043L32.98785901999474,92.89882078153684L33.05488026952744,91.34294658953608L33.18892276859283,88.19286187033042L33.40339076709748,88.24735249617322L33.75190126466752,89.5552724294859L33.79211401438713,89.53046788714164L34.04679476261139,92.12652339182759L34.06019901251793,92.75889246365014L34.47573075962067,92.82146083734659L34.83764550709725,94.32206543183233L35.105730505228046,95.34713515725991L35.159347504854196,98.41726286154187L35.172751754760746,97.53187742359444L35.40062400317192,96.95637646402233L35.52126225233078,98.17651418015065L35.54807075214386,94.34335841976133L36.16466624784469,92.12973945129835L36.76785749363899,91.74012335854599L36.78126174354553,92.44172834068164L37.129772241115575,92.45946090396771L37.27721899008751,92.62387016298983L37.29062323999405,93.21195507913535L38.12168673419952,94.87701690720799L38.14849523401261,97.12735983074556L38.483601481676104,98.86095834852945L39.32806922578811,99.88819704892988L40.038494470834735,97.26721946481281L40.14572847008705,99.29811210497287L40.159132719993586,97.87808055848735L40.25296246933937,96.48188666315214L40.30657946896553,96.74632308361775L40.57466446709633,97.55469712355116L40.70870696616173,95.65144620031369L40.923174964666366,95.60701502147965L41.03040896391868,94.93670305468983L41.19125996279717,92.8338400638448L41.31189821195602,93.47020029631345L41.392323711395264,95.61559898522889L41.6738129594326,94.60775220976075L41.86147245812416,95.72646667596868L41.90168520784378,99.42118255666216L42.03572770690918,100.15633599420441L42.08934470653534,98.03615676948174L42.2099829556942,97.57685645160142L42.42445095419884,96.7781793332855L42.59870620298386,96.40570391677872L42.7461529519558,96.8395265825233L43.09466344952583,100.81386728625458L43.13487619924545,98.15249021037911L43.24211019849777,96.25414033666073L43.295727198123934,96.93242112351152L43.34934419775009,97.17554450257148L43.44317394709587,96.94344254171055L43.45657819700241,94.94479959910603L43.483386696815494,91.57856425885923L43.56381219625473,92.87349119768709L44.00615244317054,96.7468200032248L44.595939439058306,96.69218772455093L44.83721593737602,96.43241223782915L45.1321094353199,97.37369425395792L45.25274768447876,101.7273464202272L45.58785393214226,103.75405467535408L45.882747430086134,100.96603157665444L46.12402392840386,102.87603745382592L46.17764092803001,102.08767391226108L46.4055131764412,104.37176050162986L46.43232167625427,104.79769136708707L46.526151425600055,100.37477531779524L46.92827892279625,97.19521448694512L47.048917171955104,95.94748077684562L47.07572567176819,97.36555547232452L47.10253417158127,97.87802076562491L47.558278668403624,103.10727374249001L47.63870416784287,102.77429784011464L47.692321167469025,104.75430189110133L47.879980666160584,101.2362438359286L48.483171911954884,96.01533931726006L48.76466115999222,96.20622744826994L48.88529940915108,96.19778387501435L48.925512158870696,97.99315351426657L48.97912915849686,98.64110207001559L49.15338440728188,98.47977646324985L49.63593740391732,101.54531438532138L50.14529890036583,103.87547470532678L50.26593714952469,102.8425511625618L50.33295839905739,103.52876682727619L50.97636239457131,105.79236989353863L51.3784898917675,104.8361443938121L51.40529839158058,107.69668938405279L51.458915391206745,106.98813742053157L51.65997913980484,105.74372920847588L51.807425888776784,106.49438304865956L51.834234388589856,108.24429717673918L51.98168113756179,105.28583572463741L52.155936386346816,106.85725848821585L52.3167873852253,104.6159832561909L52.77253188204765,105.43825627692166L52.81274463176727,99.69847930847816L53.93870162391662,101.2558059092397L53.992318623542786,98.69607474429431L54.07274412298202,97.85758723067869L54.179978122234346,98.94974582055181L54.434658870458605,96.829684074371L54.56870136952401,95.02314511631964L55.1048713657856,96.74863626402212L55.667849861860276,100.12366954230909L56.391679356813434,101.37887129198774L56.40508360671997,101.8237395378731L56.47210485625267,102.2806124022122L56.766998354196545,102.37511353288012L57.249551350831986,102.0541027162682L57.9599765958786,100.97540301775116L58.5631678416729,99.87761787039196L58.84465708971024,100.42579163900962L58.91167833924293,102.17723110605914L58.97869958877563,99.65154559877112L58.992103838682176,100.57380879926319L59.018912338495255,98.1784941373901L59.15295483756066,96.92104871036582L59.461252585411074,96.68139205832486L59.86338008260727,95.04509125753793L59.89018858242034,96.16891989767177L60.158273580551146,95.72458894286655L60.30572032952309,97.74972084703194L60.58720957756043,98.54664608910443L60.949124325037005,99.79811018891996L60.98933707475663,103.65761684680442L61.230613573074336,105.77264699077763L61.49869857120514,104.34812870024398L61.65954957008362,108.37707255296077L61.8204005689621,108.17434323113065L61.88742181849479,109.64956001850845L61.94103881812096,110.16048489342654L62.07508131718636,110.18604690693364L62.2225280661583,108.17051733420959L62.289549315691,108.13752751159815L62.369974815130234,107.21697465157335L62.436996064662935,106.93000197428184L62.57103856372833,105.49563696851966L62.58444281363487,104.6891504445559L62.624655563354494,105.94653279919359L62.651464063167566,106.13234821458626L62.81231506204605,103.12627174170771L62.946357561111455,103.7106655114238L63.45571905755997,102.15729797947421L63.77742105531693,100.65089401894393L63.96508055400849,100.61707901400659L64.0723145532608,101.02284675234824L64.25997405195236,101.73529485585486L64.474442050457,102.87435990995466L64.87656954765319,103.74781494622913L64.98380354690552,105.7130306508531L65.11784604597092,107.20539540577842L65.18486729550362,107.99591764933713L65.4127395439148,111.3083514944007L65.49316504335403,112.18614910250409L66.44486678671836,113.85221289892492L66.79337728428841,113.2280163920223L66.84699428391457,111.46607407402178L66.94082403326034,112.93910473119809L67.08827078223227,113.53887038215973L67.15529203176499,113.64282726942614L67.20890903139114,112.97878692942604L67.2625260310173,114.17957131512371L67.31614303064346,114.35368648504415L67.43678127980232,111.16984194416891L67.65124927830696,109.01449804975228L67.90593002653122,107.50728997685623L67.91933427643777,107.97398794315966L67.97295127606392,110.26362157571772L68.44210002279283,109.84622977217727L68.48231277251244,108.29235734084274L68.52252552223206,108.83852167914355L68.6029510216713,108.38669238841877L68.62975952148437,110.97287413077218L69.17933376765251,110.9366238296253L69.87635476279259,111.1301340830976L70.0506100115776,110.86819339300786L70.22486526036263,110.35769076696609L70.38571625924111,111.06286872820684L70.68060975718498,107.98269864030623L70.70741825699805,109.87441961852619L71.10954575419426,110.44739141294349L71.33741800260545,111.54375880507509L71.61890725064278,111.4315832351301L71.84677949905397,110.1275502604062L72.30252399587631,112.68625974442931L72.32933249568939,112.35146748704686L72.53039624428749,112.45579439171624L72.94592799139023,112.58438268748286L73.01294924092292,112.95603959477852L73.07997049045564,111.96470732081394L73.41507673811913,111.36504749813749L73.56252348709106,111.6505343928335L73.60273623681068,111.83465596738547L73.76358723568916,111.49602232244263L73.7769914855957,113.36168040612513L73.93784248447417,118.66906501916463L73.95124673438072,114.60393556372463L73.97805523419379,113.99770462994029L74.20592748260498,113.67652302273429L74.28635298204422,112.32053975302235L74.29975723195076,112.13250905770026L74.40699123120308,111.83307627451101L74.47401248073578,112.4525450737906L74.66167197942734,111.37775481476562L74.86273572802544,109.01061890109212L75.01018247699737,107.83542925286159L75.25145897531509,107.85522410182034L75.47933122372628,105.17691549122044L75.86805447101592,108.26291868282738L75.89486297082901,108.60433111379037L76.06911821961403,106.79688447576407L76.3640117175579,107.47144949045612L76.9001817138195,106.59571778409538L77.27550071120262,106.8707375772098L77.35592621064185,106.43650190189376L77.73124520802497,109.30693428481791L77.95911745643616,110.53688026379172L78.05294720578195,108.31659697964885L78.21379820466042,108.40306858448409L78.25401095438004,107.7614890021222L78.30762795400621,107.74032182097685L78.81698945045471,109.0814429529325L78.9510319495201,109.54315485986429L79.01805319905282,109.7674015853441L79.420180696249,110.79674466076449L79.43358494615555,112.4439586622963L79.74188269400597,112.67827654964597L79.99656344223023,110.71094897744885L80.11720169138908,109.7912549941328L80.14401019120216,108.02733141385524L80.25124419045449,108.21750921366338L80.3584781897068,108.25818564696513L80.73379718708992,107.7636694583584L80.84103118634224,107.5838440541365L81.05549918484688,109.62053936370938L81.32358418297768,110.87442349555276L81.53805218148231,113.9502928968372L81.64528618073463,113.34762814350105L81.77932867980003,112.24198256789114L82.6372006738186,111.29665469318716L83.02592392110824,109.63041153404156L83.26720041942596,109.75834603759348L83.36103016877175,110.34550766135818L83.53528541755676,108.80733104552412L84.51379566073417,109.46108813310639L84.56741266036033,109.3462003707893L84.67464665961266,110.11740081865041L85.51911440372467,110.76084089444431L85.96145465064049,111.30488454775085L86.28315664839745,110.95906840685667L86.44400764727592,109.66777488336444L86.49762464690208,109.4771990381414L86.6048586461544,111.15893964864314L86.83273089456559,113.35325882510959L86.9399648938179,116.7576267615771L87.28847539138793,117.98886324840885L87.31528389120102,118.22202573305967L87.55656038951874,116.79848231959521L87.79783688783645,116.40364024884705L87.86485813736915,117.55441674342023L87.93187938690185,116.85663643378696L88.03911338615418,114.60163931409937L88.10613463568687,113.07359935527933L88.44124088335037,112.19058160722969L88.76294288110734,110.74616362098452L88.87017688035965,109.88057970771582L88.95060237979888,112.400971474618L89.04443212914467,112.73343846686183L89.51358087587356,111.53742844412716L89.56719787549973,113.14169881926816L89.62081487512589,112.51621816387838L89.75485737419127,113.30046078928747L89.78166587400436,115.03400060246622L90.04975087213515,115.68890213350444L90.29102737045288,113.97403075616023L90.37145286989212,111.6561868367468L90.76017611718179,109.96754946750835L90.90762286615372,111.54020083776096L91.16230361437798,112.97291969606064L91.2427291138172,111.11697670259281L91.33655886316299,111.01073740687626L91.88613310933113,108.99916389550435L92.42230310559273,111.86609759667348L92.43570735549926,111.98275911374094L92.75740935325622,110.89293024569871L93.28017509961128,112.67626686195234L93.33379209923744,112.07582363532667L93.34719634914399,108.34719045371858L93.3874090988636,110.65971866326824L93.41421759867667,112.28192043572984L93.5884728474617,113.07010197126493L93.74932384634019,114.13473185879839L93.77613234615326,115.01335616884182L93.92357909512519,117.25575361129061L94.09783434391021,115.40847478808935L94.25868534278871,117.27679235030986L94.33911084222794,117.7250224657444L94.44634484148025,115.6750150663188L94.54017459082604,116.32496486549665L94.5937915904522,116.23913449100901L94.60719584035873,113.915974841161L94.64740859007834,113.13430985693923L94.80825958895684,113.05782223399318L95.21038708615303,110.77847027621786L95.22379133605958,109.48489805939562L95.49187633419038,109.9050609498948L95.63932308316231,113.03292748554047L95.75996133232117,112.55492804832787L96.08166333007813,113.40589053044897L96.28272707867623,114.23087352869024L96.49719507718086,114.42250267318933L96.55081207680703,117.28253736036243L96.64464182615279,115.93175581031386L96.84570557475091,114.5582012225103L96.88591832447052,115.03656701391814L96.9127268242836,114.88491162912516L97.046769323349,115.69937587435861L97.56953506970406,117.58526162445528L98.30676881456375,118.10362973905869L98.40059856390953,119.82934029680854L98.53464106297493,120.9843129661966L98.65527931213379,126.68211196507674L98.6954920618534,126.30365550579717L98.86974731063843,125.50750086569667L100.0359170525074,124.19368178555267L100.71953379774094,125.09748194031093L101.32272504353523,124.70329481896394L102.12698003792764,125.51442696407379L102.70336278390884,123.6772214260505L102.8240010330677,120.6956830471012L103.07868178129196,118.5781356887939L103.14570303082466,117.35047615301903L103.41378802895545,119.8124714007394L103.94995802521706,119.00949074415254L104.35208552241325,116.00828503478034L104.56655352091789,115.14305035703231L104.8346385190487,114.25604916277206L104.91506401848793,114.89348435965417L105.34400001549722,115.29046250632356L105.38421276521683,114.2840562815449L105.55846801400185,114.70730869086132L105.71931901288032,116.35440879223626L105.93378701138496,116.61351721621551L106.06782951045037,115.49261839457739L106.51016975736617,117.67994601269285L106.7514462556839,118.31514212927088L106.91229725456238,117.89786061423219L107.03293550372123,118.17847903401858L107.18038225269318,120.08922440019617L107.22059500241281,120.64968933081926L107.40825450110435,120.01305413055694L107.48868000054358,119.41351306250264L107.8237862482071,120.27092200775334L108.15889249587059,118.16831262989963L108.61463699269295,117.07056549862799L108.72187099194527,117.47409124734459L108.92293474054337,119.66382292755794L109.13740273904801,121.31426767477332L109.23123248839377,120.70340387676539L109.3384664876461,118.44651075292347L109.57974298596382,118.31214491367092L109.74059398484229,119.38643447030313L109.99527473306655,119.71066664087206L110.18293423175811,124.43917701901552L110.42421073007583,121.00953096166158L110.45101922988891,119.41588781423322L110.62527447867394,120.25924326854576L110.70569997811317,118.55485652819874L110.77272122764587,115.16363955224244L110.81293397736549,117.70954640594569L110.8799552268982,115.91964347896075L111.85846547007561,115.05208966141984L111.96569946932793,116.47438888190804L112.31420996689796,116.08422856783986L112.55548646521568,119.77168148258903L112.71633746409415,119.30016387037504L112.7297417140007,116.93004301497021L112.76995446372032,117.88660131655084L112.89059271287917,119.65911040700482L113.01123096203804,117.97386882890676L113.05144371175767,119.52629792385527L113.23910321044922,119.74050299888802L113.30612445998193,118.1691960352159L113.35974145960807,119.28972569143758L113.76186895680428,119.00502594244104L113.98974120521547,120.67116312603552L114.19080495381355,122.25233881608968L114.31144320297241,124.35793958336733L114.9146344487667,124.27718457889436L115.11569819736481,124.22074869607498L115.38378319549561,121.18360218778446L115.53122994446754,120.17547701354778L115.57144269418716,121.75277198364888L115.8529319422245,121.35373312686964L116.08080419063567,122.17739639262021L116.61697418689728,120.79618525662784L116.64378268671035,123.25295209520132L116.7242081861496,125.55880206136038L116.9922931842804,124.93005560390797L117.05931443381309,125.80333452762727L117.58208018016815,125.47566542777122L117.60888867998122,125.52500708026685L117.64910142970086,127.07402086057671L117.7965481786728,126.73859083236965L117.89037792801857,126.67002576842692L118.39973942446709,125.70147024717089L118.61420742297173,126.08665784675057L119.1101646695137,124.69437779964854L119.12356891942025,124.96108666766068L119.4452709171772,124.38723347356103L119.45867516708374,122.33242901737847L119.55250491642953,125.02651645399652L119.80718566465379,125.8773086026434L119.90101541399956,126.25570684977781L120.20931316184998,126.56328871942581L120.30314291119575,127.88830251207439L121.12080215549469,129.8552828428099L121.26824890446662,130.45376155914207L121.75080190110207,131.09509897798875L122.07250389885901,129.73396638640668L122.23335489773751,130.68347524574767L122.40761014652253,130.09685192810795L122.67569514465332,129.78409112149035L122.86335464334488,128.51715180480574L123.01080139231681,128.5282396939549L123.21186514091492,126.54708148948298L123.29229064035415,127.8725207368886L123.46654588913918,128.13613907597562L123.60058838820459,128.70851222016458L124.32441788315774,128.67408249605762L124.41824763250351,128.533490223634L124.56569438147545,128.74195190175075L124.579098631382,128.56075096354425L124.61931138110161,127.1949856173062L124.95441762876511,126.78352585468784L125.00803462839126,127.64541335273142L125.03484312820434,128.19464460334655L125.19569412708283,127.35485379758107L125.43697062540053,126.53289785572909L125.51739612483978,128.17611108959844L125.78548112297058,128.89211130915086L125.86590662240981,130.48631481281802L126.01335337138177,130.6989357816545L126.093778870821,131.052258030406L126.14739587044717,129.82625392471678L126.30824686932564,131.0917359562784L126.46909786820412,132.70458169630805L126.58973611736297,132.10526273963654L127.28675711250305,131.05711893831355L127.3671826119423,129.80782473727692L127.58165061044693,132.58815086597076L127.59505486035347,131.07830207028354L127.91675685811043,129.78966737095803L128.49313960409165,128.25969743247313L128.5199481039047,128.58064379471153L128.86845860147477,129.69015960812948L128.8818628513813,128.4592174283014L128.90867135119439,127.64927874796159L128.92207560110091,127.45468638560072L128.9756926007271,124.63477639375128L129.25718184876442,122.57384603694675L129.37782009792326,122.65950734075741L129.73973484539985,124.41633084347178L130.20888359212876,126.0989890681089L130.3965430908203,126.66703793443735L130.57079833960532,127.50318399343173L131.01313858652117,128.41829087315324L131.37505333399773,127.76070259250713L131.79058508110046,128.1976671190059L132.23292532801628,125.7158125918348L132.32675507736207,130.98106285549608L132.36696782708168,129.5274007310953L132.59484007549287,127.25956555490056L132.70207407474518,127.24257750476065L132.79590382409097,128.468854812532L133.11760582184792,126.98756095482324L133.6135630683899,127.76038497898377L133.88164806652068,126.63647215588846L133.90845656633377,127.19398277228447L134.17654156446454,127.38305241288143L134.44462656259535,127.54432512745011L134.45803081250193,129.01379812225986L134.5518605618477,126.03718120959276L134.67249881100653,125.15036554710595L134.7261158106327,125.09612570824338L134.87356255960464,122.96619463382181L135.3963283059597,121.90210979741511L135.7716473033428,119.05663947656303L135.94590255212785,120.1573928368205L136.01292380166052,121.01718281091243L136.65632779717447,120.93094021618037L136.84398729586601,124.20437871163773L136.88420004558566,124.38749673710755L137.15228504371643,125.57956722641836L137.2327105431557,126.83959435091163L137.25951904296875,128.66419466614497L137.29973179268836,128.91212415838652L137.52760404109955,129.00592707660093L137.55441254091264,129.18731388232297L138.0905825371742,130.13584417804208L138.10398678708077,129.68083864394674L138.73398653268814,131.50593829371812L139.20313527941704,131.8730408498237L139.3237735285759,130.7057216850604L139.41760327792167,129.01449455049791L139.524837277174,126.91992336788972L139.68568827605247,128.2561115707448L140.0341987736225,128.25184472719224L140.1012200231552,128.79838811040372L140.2620710220337,130.29899540576653L140.38270927119254,128.12615728098996L140.81164526820183,129.82954969425697L141.25398551511765,130.2261128300519L141.28079401493073,126.61211285930847L141.36121951436996,127.6184027145773L141.9510065102577,124.74460400051439L142.08504900932311,126.15832618546288L142.23249575829504,125.26100481854368L142.4067510070801,123.93752018876688L142.54079350614546,121.58012513430094L142.68824025511742,122.1573350159449L142.74185725474356,124.99110128187917L142.86249550390244,126.57738476028902L142.96972950315475,125.26712930569605L143.1439847519398,128.6945175507358L143.88121849679945,127.11977249358058L143.94823974633218,127.42650462149278L143.9616439962387,127.5836224025627L144.26994174408912,126.9618656992614L144.3235587437153,127.53832657981593L144.57823949193954,129.8214701449035L144.92674998950957,130.05754098146156L145.1010052382946,125.99269986652612L145.18143073773385,125.96603730808985L145.19483498764038,126.07337141197293L145.24845198726652,124.27840204530754L146.95079172539712,125.25201818424303L147.00440872502327,124.83973483305482L147.54057872128487,127.61877836544818L147.5807914710045,127.21140321838224L147.6880254702568,127.25944952641477L147.92930196857452,126.5198605274056L147.96951471829416,129.14228649072626L148.10355721735954,130.28523455080227L148.17057846689224,129.73166486182876L148.22419546651838,128.06080585924659L148.3582379655838,128.43604467492096L148.41185496520995,129.14004877776563L148.5190889644623,129.1203737139165L148.76036546278,128.6616426558358L148.77376971268654,128.49923747014935L149.28313120913504,128.3620154853083L149.44398220801352,129.5832624850152L149.4707907078266,130.29179896773138L149.56462045717237,130.71950093342863L149.6986629562378,132.2873767440104L149.71206720614433,132.33974483453528L149.84610970520973,133.45691549869863L149.88632245492937,132.30835404709563L150.10079045343397,133.20235692456785L150.28844995212555,133.94457820962685L150.4358967010975,134.3229427017959L150.7039816992283,134.50446629524654L150.78440719866754,135.60288409165776L151.25355594539644,135.66375732030215L151.4814281938076,134.07178403577694L151.49483244371416,131.66716438979154L151.60206644296647,133.06256659172917L151.92376844072342,137.7732369113204L151.93717269062995,138.0316871317214L151.95057694053648,136.68358427214605L151.97738544034956,135.37941506728546L152.3527044377327,135.49834991214667L152.39291718745233,135.02164071755743L152.59398093605043,136.93131320646353L153.23738493156432,135.45777001161824L153.3312146809101,135.63696587762186L153.43844868016242,135.886439937608L153.51887417960168,134.53737000898124L153.67972517848017,131.59739295702602L153.6931294283867,133.28057466749277L154.1354696753025,133.340696264094L154.3365334239006,133.54121823442728L154.39015042352676,131.2273032349083L154.43036317324638,130.23885051726393L154.65823542165757,126.68029559186375L154.81908642053605,128.01109042196248L154.83249067044258,128.90175198533933L155.24802241754531,129.24432649655355L155.47589466595647,125.48612518976543L155.48929891586303,127.3234556930757L155.51610741567612,128.45054943199182L155.5697244153023,131.3612577462166L155.6099371650219,132.75763580314074L155.94504341268538,130.61983814947644L155.985256162405,129.5228865710078L156.77610690689087,129.05160463039783L156.96376640558245,129.39683458647954L157.00397915530206,130.425131665561L157.36589390277862,129.21686894971526L157.4597236521244,129.7241658128786L157.49993640184402,131.68592744372762L157.54014915156364,132.93404249273505L158.03610639810563,132.88943963954398L158.08972339773177,132.37740994938426L158.10312764763833,130.29582832995013L158.11653189754486,129.77056941725266L158.1969573969841,131.43320822619114L158.42482964539528,131.47541701603296L158.50525514483454,130.3355689890471L158.69291464352608,131.90144929546446L159.26929738950727,133.18538503468616L159.34972288894653,131.15707776922346L159.6312121369839,131.4967971037674L160.46227563118936,130.8556185743574L160.47567988109589,130.91489448900793L161.02525412726402,127.84710583553299L161.1190838766098,127.17058371906535L161.34695612502097,129.39983993899202L161.57482837343215,132.29627715527363L161.66865812277794,135.483510534288L161.695466622591,133.06213981328986L162.53993436670302,132.34448197715955L162.58014711642267,132.82690007547L162.75440236520765,132.75377272712527L162.84823211455347,133.92390830618038L163.41121061062813,134.99686469577685L163.82674235773086,135.23406917803484L164.0814231059551,133.6035797051448L164.20206135511398,133.98629249509167L164.83206110072135,131.89677164893973L164.8454653506279,131.1909719860685L164.872273850441,132.42736606548493L164.92589085006713,131.2104234981142L165.36823109698295,131.5142840250818L165.50227359604835,132.58138448244785L166.17248609137536,134.58020598074373L166.30652859044073,135.60388084095172L166.57461358857154,135.62758707548016L166.64163483810427,136.12581741436676L166.77567733716964,135.86522142095322L167.01695383548736,138.64149569735065L167.05716658520697,137.95882121887473L167.405677082777,137.95678528051945L168.26354907679558,136.68207711007605L168.35737882614137,134.6578456674821L168.8667403225899,134.05209635418365L169.0141870715618,134.207856592209L169.0409955713749,134.86455896462178L169.63078256726266,131.31909229007363L169.79163356614112,130.95074015052805L170.07312281417845,129.52794332432921L170.38142056202886,131.22743912993377L170.5154630610943,129.37747273791612L170.86397355866433,130.66449509048073L171.14546280670166,132.33040056875987L171.8692923016548,133.8483142354348L172.48588779735564,132.88351519694095L172.49929204726217,133.5925160166767L172.5663132967949,132.39640556583475L172.66014304614066,133.36569135924154L172.67354729604722,137.25085437794027L172.91482379436493,135.52504631181404L173.5180150401592,134.60820424495404L173.7726957883835,134.66581252396696L173.86652553772925,134.97683218638653L173.9469510371685,135.64606382214907L173.9737595369816,136.7735431731071L174.32227003455162,137.36468338775782L174.46971678352358,137.71580313840818L174.76461028146744,136.59443866521372L174.9254612803459,136.4517158584682L174.97907827997207,138.3215215262187L175.03269527959824,138.33059546285048L175.11312077903747,135.66551534991692L175.20695052838323,136.44164405805833L175.2203547782898,136.23057888944544L175.38120577716828,135.95324703568124L175.622482275486,135.22207224086617L176.44014151978493,135.40926397540372L176.61439676856995,133.0379093292731L176.6278010184765,133.46346128280734L176.8958860166073,133.14219298027527L177.0701412653923,133.72761222546643L177.6063112616539,133.79329805637477L177.64652401137351,135.74860498135763L177.67333251118657,135.14324933785437L177.99503450894358,135.2032391055233L178.12907700800895,136.5286040173203L178.22290675735474,134.03607778049738L178.31673650670052,133.48994914470498L178.37035350632667,136.5512648264836L178.39716200613975,136.58596653555347L178.73226825380326,137.6160419752157L178.93333200240136,139.36175823028168L179.0807787513733,140.21441649599385L179.24162975025178,140.5301894763269L179.2550340001583,140.39903644809874L179.64375724744798,139.0599362509081L179.83141674613952,137.76596589819914L179.93865074539184,136.62774779232723L180.38099099230766,140.01576368718491L180.80992698931695,140.320228594917L180.85013973903656,140.2789490899706L181.4399267349243,140.42702869083533L181.52035223436357,140.51907057934443L181.74822448277476,139.22424507426737L182.05652223062515,138.47543538965058L182.2441817293167,137.01100436866056L182.32460722875595,137.23249557919146L182.40503272819518,138.85315658360523L182.4452454779148,136.51530360821332L182.72673472595216,136.3088993048908L183.1422664730549,136.37763530589515L183.16907497286797,134.2332730772445L183.22269197249412,134.76959320353617L183.39694722127916,134.60815530054404L183.50418122053145,135.6016099597005L183.54439397025106,136.18133559888128L183.81247896838187,139.6044948200612L183.93311721754074,138.4532079653658L184.01354271697997,139.04732153381346L184.49609571361543,139.5340952189878L184.50949996352196,140.35332888493127L184.80439346146585,139.21018240033575L184.9920529601574,139.80532963883792L185.00545721006395,140.61670748793028L185.21992520856855,141.2464642922126L185.28694645810128,140.7800707088777L185.83652070426942,139.92944246634124L185.95715895342826,139.33956582759245L186.22524395155907,141.29605641458667L186.35928645062447,138.46909022991937L186.4397119500637,140.43319122856062L186.5067331995964,144.11190392183303L186.61396719884874,144.32647217259054L186.78822244763373,143.5285612487458L187.28417969417572,143.91779854062693L187.40481794333456,143.32274801195058L187.45843494296074,141.60924468258568L187.48524344277382,140.7815647165435L187.84715819025038,141.04332561437113L187.94098793959617,139.80272037546672L188.41013668632507,140.0833577355406L188.74524293398855,139.58256474560844L188.7854556837082,137.52502173153465L188.8926896829605,140.07248984460756L189.10715768146517,139.56294059747862L189.227795930624,141.64013296490705L189.64332767772675,140.4877637006343L189.67013617753983,139.4212966300551L189.72375317716597,142.0154667435509L189.8041786766052,142.72299435333122L189.8309871764183,139.9281376178968L190.08566792464256,139.79295996503976L190.21971042370797,139.76833839473088L190.3403486728668,141.26518203742668L190.40736992239954,140.58975881857577L190.5011996717453,140.6251258156312L190.87651866912842,140.6397882388719L190.95694416856767,138.87337417161825L191.238433416605,136.76825637975722L191.25183766651153,138.34166308274422L191.2652419164181,137.9001480027135L191.61375241398812,138.12319125118375L191.84162466239928,137.42790323060063L191.86843316221237,136.3591393811281L192.45822015810012,137.10045972939295L192.65928390669822,139.31074675091241L192.8871561551094,138.47117996115387L193.51715590071677,137.95604859365162L194.0667301468849,138.89457226573137L194.21417689585687,138.72027863398105L194.5626873934269,139.5895163137491L194.65651714277266,138.32078864689834L194.80396389174462,140.16398313285796L194.95141064071655,139.53707859560816L195.2060913889408,136.96211854774967L195.9433251338005,138.8371777031517L196.06396338295934,137.0065985131139L196.31864413118362,136.26248750069732L196.81460137772558,136.76210919759313L197.3507713739872,135.8914059050283L197.53843087267876,137.23955896737448L197.5920478723049,139.35115357197787L197.64566487193107,139.2893857993082L197.8199201207161,138.62593788802124L198.11481361865998,139.88652708748214L198.49013261604307,140.55489781194112L198.57055811548233,140.4906711745809L198.61077086520194,140.35317963137248L198.9994941124916,138.91198557223169L199.16034511137008,139.29764677712103L199.18715361118316,138.3445223182531L199.2407706108093,139.18332643202865L199.34800461006165,139.2496504190396L199.3614088599682,139.39371344681444L199.41502585959435,138.69958981994148L199.45523860931397,138.02892209835548L199.5088556089401,139.03496359475778L199.75013210725783,142.03328020348488L200.04502560520172,139.52325983242932L200.09864260482786,136.7939022114898L200.56779135155676,137.25414326149883L201.3854505958557,137.3624341431373L201.6803440937996,139.56466939435757L201.90821634221078,140.22983985252083L202.00204609155654,140.9609406828733L202.21651409006117,142.70126041097342L202.36396083903313,142.41962640251074L202.81970533585547,139.30469269622444L202.94034358501435,138.99902029441284L203.35587533211708,140.30673035553662L203.54353483080862,141.54997590690974L204.0663005771637,142.51329703229644L204.25396007585528,143.93296621597878L204.4684280743599,144.53514175482735L204.96438532090187,144.0408474846115L205.31289581847193,142.46868323774808L205.35310856819154,142.82742780914694L205.46034256744383,144.20653447040883L205.86247006464006,143.80253064310503L205.9831083137989,143.82656891584114L205.99651256370544,144.45073470230585L206.23778906202315,144.51117885586623L206.3450230612755,145.11969539330312L206.5862995595932,145.9103860701662L206.74715055847167,144.82796277554118L206.80076755809785,143.96031802066358L207.21629930520058,143.89488280234215L207.47098005342485,144.27255315038883L207.4977885532379,145.9086527883804L207.524597053051,146.85490070254107L207.53800130295753,147.1249438642601L207.71225655174257,147.3139954667109L208.46289454650878,148.12694744660203L208.73097954463958,150.19246262341701L209.02587304258344,147.8208258414855L209.30736229062083,148.3776519804303L209.88374503660202,148.9791008343413L210.09821303510665,148.6796616918307L210.29927678370476,145.18338869811024L210.4467235326767,146.55486188308998L210.63438303136823,146.81160413610482L211.049914778471,144.42028577773283L211.18395727753636,143.81781024318295L211.30459552669527,144.81068478217537L211.65310602426527,144.73063898189667L212.04182927155495,144.56787352504392L212.18927602052688,143.93530584362776L212.64502051734925,144.741343384057L212.68523326706887,146.32650947748002L212.85948851585388,145.4803419927235L212.9399140152931,145.18064751634245L213.08736076426504,147.33913174107235L213.1275735139847,144.8526067702787L213.35544576239585,145.04440489107992L213.4358712618351,144.83399121443887L213.44927551174163,144.2735774951937L213.69055201005938,142.64944310076552L213.79778600931166,144.15965488397876L213.94523275828362,142.1549504393554L213.99884975790977,143.4715939330879L214.09267950725555,143.50588150828307L214.1731050066948,145.1013102033051L214.33395600557327,148.260280633435L214.48140275454523,148.40402769906933L214.56182825398446,146.44946100718752L214.575232503891,147.58409621062725L215.03097700071336,144.9362828919758L215.12480675005912,144.13106181743976L215.60735974669458,144.02088311894386L216.14352974295616,144.4524650466411L216.25076374220848,144.9187846844292L216.31778499174118,143.15956096730048L216.41161474108696,143.49499299708503L216.4920402405262,144.57803121655115L216.57246573996542,143.52786095196868L216.5992742397785,141.98771455315864L216.77352948856353,141.88719634086485L216.92097623753548,142.78333862102568L216.934380487442,143.13169177354095L217.0014017369747,140.8446560223486L217.2962952349186,141.2488185989231L217.30969948482513,141.65991763965272L217.41693348407748,142.0744397853885L218.19437997865677,143.25297717511827L218.22118847846983,142.55689329873786L218.54289047622683,143.04910732833332L218.7439542248249,142.46885066955184L218.75735847473143,143.96018617747035L218.91820947360992,147.19687181553954L219.3069327208996,148.02600008789287L219.92352821660043,147.51237068451314L220.2184217145443,149.00509104610063L220.9288469595909,148.03923418314082L221.2505489573479,146.29250843834023L221.4382084560394,145.33113189663732L221.5588467051983,146.3755461349741L221.7599104537964,145.3198617020985L221.98778270220754,145.04077720894801L222.09501670145988,146.66847304479228L222.4301229491234,146.6308581573107L222.55076119828226,147.24749839995548L222.97969719529152,147.33873607868267L223.15395244407654,144.88067762905507L223.2075694437027,144.30488727950203L223.62310119080541,143.59544128449267L223.69012244033814,143.33092869398217L223.77054793977737,142.5317914826091L223.91799468874933,140.97128779320315L223.97161168837548,141.8052094289854L224.36033493566512,143.1355832108187L224.7490581829548,145.13019483139644L225.2316111795902,146.0388294188094L225.44607917809486,146.13467912605338L225.8616109251976,147.68674141877028L226.29054692220686,146.8766034656633L226.45139792108537,147.0998189550138L226.58544042015075,145.18162587401005L226.63905741977692,144.17083802424858L226.78650416874885,144.87943153966796L226.82671691846846,145.71694272139345L227.02778066706657,145.81155807049615L227.33607841491698,147.0250656945215L227.45671666407586,146.2726674783223L227.6443761627674,145.17909278697425L227.6711846625805,144.32592507084468L227.75161016201974,143.5235999873006L228.91777990388871,144.0814304604809L229.23948190164566,144.71669633885597L229.4539499001503,143.74336073351012L229.64160939884187,143.48174715651493L229.8292688975334,142.14846289080916L229.94990714669228,144.38056122213095L230.33863039398193,144.20788995745087L230.47267289304733,144.8127143108503L230.59331114220618,145.71713181507445L230.80777914071084,146.60551816511247L230.88820464015006,145.98661280821378L231.08926838874817,144.75758127980814L231.1696938881874,143.85390053520283L231.18309813809392,144.52366862103875L231.54501288557054,144.41491366876426L231.5718213853836,140.78328256676144L231.67905538463592,142.12060320803315L232.0677786319256,143.06372051252572L233.15352287435533,143.90290133530507L233.46182062220575,140.4146438642157L233.52884187173842,139.8152535237016L233.93096936893465,139.02016309033456L234.35990536594392,139.3178759087766L234.5207563648224,140.3391288678005L234.65479886388778,140.36769355240662L235.01671361136437,140.44985945234006L235.1641603603363,141.2696495522847L235.47245810818671,140.88746464875967L235.5662878575325,140.22193977708434L235.60650060725212,141.9251866420424L235.71373460650443,140.8934824745705L235.78075585603713,142.09095610946974L235.88798985528948,141.8972291795218L235.9684153547287,140.92895487900432L236.11586210370064,144.7948301036506L236.67884059977533,144.58702955638282L236.70564909958838,144.84014290925762L237.32224459528922,142.56384643724198" fill="none"></path></g></g></g></g><g opacity="0.2"><g><g><g><path style="fill: none;" stroke="rgb(255, 112, 67)" stroke-width="2px" d="M27.009563561677936,27.655756986853632L27.33126555943489,41.12805281763037L27.58594630765915,86.38306651747399L27.65296755719185,66.7296440533288L27.71998880672455,70.92015070001518L27.92105255532265,66.96396934813768L28.02828655457497,52.448750495685694L28.242754553079603,62.27970406505796L28.376797052145005,82.34818363052639L28.79232879924774,77.68586317573082L29.02020104765892,92.9749337769326L29.19445629644394,73.66864159202692L29.301690295696257,87.85765353755238L29.435732794761655,75.34448838862119L29.971902791023254,98.95442170657006L30.025519790649415,95.92699095894352L30.226583539247514,87.41467114798468L30.494668537378313,77.61210416955353L30.521477037191392,88.03825354329624L30.80296628522873,94.03696791032678L31.339136281490326,69.54924146101197L31.379349031209944,104.82173070543666L31.567008529901504,105.21719067969984L31.647434029340744,98.45175004307332L32.07637002635002,98.35331134262452L32.1701997756958,114.29758828650382L32.19700827550888,68.9420847367209L32.46509327363968,117.08837075074183L32.65275277233124,75.26807689193808L32.7733910214901,96.75089405028135L32.80019952130318,99.41949720028869L32.98785901999474,103.77272837322323L33.05488026952744,77.82089306508283L33.18892276859283,60.71822738704369L33.40339076709748,88.72412827775374L33.75190126466752,101.03189840099537L33.79211401438713,89.31225626580743L34.04679476261139,115.01729463123272L34.06019901251793,98.34635885198196L34.47573075962067,93.37532804254045L34.83764550709725,107.62788443453135L35.105730505228046,104.45003605759982L35.159347504854196,125.71759784511234L35.172751754760746,89.64927083591294L35.40062400317192,91.82709734195896L35.52126225233078,109.06190976749595L35.54807075214386,60.1159472912602L36.16466624784469,72.34801434696006L36.76785749363899,88.2558895655437L36.78126174354553,98.72001403627962L37.129772241115575,92.61823146673734L37.27721899008751,94.09669013444844L37.29062323999405,98.48262437355717L38.12168673419952,109.80627109385188L38.14849523401261,117.31196252030514L38.483601481676104,114.41586300290916L39.32806922578811,109.10802356206602L40.038494470834735,73.73656841411065L40.14572847008705,117.5355954776092L40.159132719993586,85.12331475327045L40.25296246933937,83.93872237843047L40.30657946896553,99.12240178854091L40.57466446709633,104.81947361724227L40.70870696616173,78.54462757085936L40.923174964666366,95.20760587859267L41.03040896391868,88.91029686605019L41.19125996279717,73.92614734734315L41.31189821195602,99.1925197984338L41.392323711395264,114.90925094963553L41.6738129594326,85.54344618425698L41.86147245812416,105.78858820745131L41.90168520784378,132.65487373624612L42.03572770690918,106.76935892829928L42.08934470653534,78.96325976808174L42.2099829556942,93.4448529489662L42.42445095419884,89.59274478047533L42.59870620298386,93.05454144229972L42.7461529519558,100.74276046076506L43.09466344952583,136.57328592983427L43.13487619924545,74.20591095777343L43.24211019849777,79.17272414255972L43.295727198123934,103.03574789001391L43.34934419775009,99.36326769658464L43.44317394709587,94.85485759151166L43.45657819700241,76.95959150512262L43.483386696815494,61.28635460817775L43.56381219625473,104.52648050447553L44.00615244317054,131.6031365380453L44.595939439058306,96.20054345806514L44.83721593737602,94.09463074740975L45.1321094353199,105.84458705980704L45.25274768447876,140.9075295542722L45.58785393214226,121.99330347378994L45.882747430086134,75.87521714113285L46.12402392840386,120.06523119024659L46.17764092803001,94.99272119742889L46.4055131764412,124.92770759010531L46.43232167625427,108.63092948558966L46.526151425600055,60.56983619458474L46.92827892279625,68.58001154512877L47.048917171955104,84.71817565992548L47.07572567176819,110.12792263664886L47.10253417158127,102.49010917534221L47.558278668403624,150.16963923582094L47.63870416784287,99.77756694347764L47.692321167469025,122.57405885624517L47.879980666160584,69.57416828172813L48.483171911954884,49.02779559761235L48.76466115999222,97.92420098414937L48.88529940915108,96.12179249770611L48.925512158870696,114.15133061901695L48.97912915849686,104.47259046444742L49.15338440728188,97.02785689433901L49.63593740391732,129.1349694097384L50.14529890036583,124.8467901545816L50.26593714952469,93.54629011694331L50.33295839905739,109.70467741245984L50.97636239457131,126.16470724630555L51.3784898917675,96.23014920613318L51.40529839158058,133.44150192218387L51.458915391206745,100.61119034163801L51.65997913980484,94.54408784982706L51.807425888776784,113.25024993901765L51.834234388589856,123.99348725387962L51.98168113756179,78.65973906877329L52.155936386346816,121.00003639239128L52.3167873852253,84.44454078532232L52.77253188204765,112.83870203320832L52.81274463176727,48.04055840146293L53.93870162391662,115.27172778108725L53.992318623542786,75.65852019937505L54.07274412298202,90.31120725543285L54.179978122234346,108.77916416463367L54.434658870458605,77.7491440206553L54.56870136952401,78.76430650504918L55.1048713657856,112.27804626825058L55.667849861860276,130.49895087074347L56.391679356813434,112.6756809552266L56.40508360671997,105.8275518102231L56.47210485625267,106.39246638757683L56.766998354196545,103.22562337497999L57.249551350831986,99.16500638759706L57.9599765958786,91.26710881840174L58.5631678416729,89.9975543718941L58.84465708971024,105.35935428575382L58.91167833924293,117.94018265522782L58.97869958877563,76.9203807759062L58.992103838682176,108.87417604505009L59.018912338495255,76.62066582384521L59.15295483756066,85.60404158848303L59.461252585411074,94.52448248521885L59.86338008260727,80.31838586482053L59.89018858242034,106.28337653736399L60.158273580551146,91.72561074869293L60.30572032952309,115.97590634754451L60.58720957756043,105.71897268799586L60.949124325037005,111.06128626786646L60.98933707475663,138.3931744934618L61.230613573074336,124.80791716483952L61.49869857120514,91.52746476537952L61.65954957008362,144.63756549665842L61.8204005689621,106.34977941303912L61.88742181849479,122.9265105915926L61.94103881812096,114.75880860768606L62.07508131718636,110.41610502129325L62.2225280661583,90.03075169095757L62.289549315691,107.84061911562675L62.369974815130234,98.93199910049293L62.436996064662935,104.34724793172535L62.57103856372833,92.5863521553786L62.58444281363487,97.4307718496822L62.624655563354494,117.26297382142907L62.651464063167566,107.8046869305759L62.81231506204605,76.07158381404484L62.946357561111455,108.97020938143771L63.45571905755997,88.17699032931787L63.77742105531693,87.09325849408418L63.96508055400849,100.31274397199286L64.0723145532608,104.67475637126032L64.25997405195236,108.14732774607108L64.474442050457,113.12594533736306L64.87656954765319,111.60891023164345L64.98380354690552,123.39997190933275L65.11784604597092,120.636678143287L65.18486729550362,115.11061781427743L65.4127395439148,141.12025599781944L65.49316504335403,120.08632755107081L66.44486678671836,128.846787025094L66.79337728428841,107.61024784393211L66.84699428391457,95.60859324766767L66.94082403326034,126.19638061896042L67.08827078223227,118.93676123098467L67.15529203176499,114.57843925329053L67.20890903139114,107.0024238782405L67.2625260310173,124.98663077205596L67.31614303064346,115.92072301245611L67.43678127980232,82.51524110710392L67.65124927830696,89.61640301877566L67.90593002653122,93.94241733260702L67.91933427643777,112.17426963659753L67.97295127606392,130.87032425420227L68.44210002279283,106.0897035426986L68.48231277251244,94.30750546682378L68.52252552223206,113.75400072132265L68.6029510216713,104.3202287737779L68.62975952148437,134.24850980225636L69.17933376765251,110.61037111942578L69.87635476279259,112.87172636376056L70.0506100115776,108.51072718291613L70.22486526036263,105.76316713384588L70.38571625924111,117.40947037781244L70.68060975718498,80.2611678553379L70.70741825699805,126.89990841911344L71.10954575419426,115.60413756177428L71.33741800260545,121.41106533266685L71.61890725064278,110.42200310577202L71.84677949905397,98.39125348942513L72.30252399587631,135.71464509792804L72.32933249568939,109.33833717092357L72.53039624428749,113.39473653365127L72.94592799139023,113.74167734928321L73.01294924092292,116.30095176018122L73.07997049045564,103.04271685575279L73.41507673811913,105.96810909438692L73.56252348709106,114.21991644495307L73.60273623681068,113.49175013826928L73.76358723568916,108.44831951809604L73.7769914855957,130.1526031585787L73.93784248447417,166.43552653475643L73.95124673438072,78.01777046598039L73.97805523419379,108.54162622604444L74.20592748260498,110.78588855795819L74.28635298204422,100.11669032591075L74.29975723195076,110.44023279983838L74.40699123120308,109.13818122586041L74.47401248073578,118.0277642672087L74.66167197942734,101.70464248369427L74.86273572802544,87.70639567833558L75.01018247699737,97.25872241892293L75.25145897531509,108.03337774244697L75.47933122372628,81.07213799607283L75.86805447101592,136.03694740702923L75.89486297082901,111.67704299243107L76.06911821961403,90.52986473365148L76.3640117175579,113.54253462264307L76.9001817138195,98.71413242689715L77.27550071120262,109.3459157152259L77.35592621064185,102.52838082406899L77.73124520802497,135.14082573101908L77.95911745643616,121.60639407451134L78.05294720578195,88.33404742243559L78.21379820466042,109.18131302799847L78.25401095438004,101.98727276088238L78.30762795400621,107.54981719066916L78.81698945045471,121.15153314050455L78.9510319495201,113.69856202224145L79.01805319905282,111.78562211465831L79.420180696249,120.06083233953197L79.43358494615555,127.26888467605923L79.74188269400597,114.78713753579011L79.99656344223023,93.0050008276973L80.11720169138908,101.51400914429796L80.14401019120216,92.15201919137334L80.25124419045449,109.92910941193492L80.3584781897068,108.62427354668066L80.73379718708992,103.31302376090146L80.84103118634224,105.96541541614033L81.05549918484688,127.95079714985431L81.32358418297768,122.15938068213705L81.53805218148231,141.63311750838355L81.64528618073463,107.92364536347807L81.77932867980003,102.29117238740595L82.6372006738186,102.78870382085415L83.02592392110824,94.6342231017359L83.26720041942596,110.90975656956057L83.36103016877175,115.6299622752393L83.53528541755676,94.96374150302063L84.51379566073417,115.34490192134555L84.56741266036033,108.31221050993577L84.67464665961266,117.05820484939929L85.51911440372467,116.55180157658847L85.96145465064049,116.20127742750924L86.28315664839745,107.84672313880938L86.44400764727592,98.04613317193538L86.49762464690208,107.7620164311345L86.6048586461544,126.29460514315718L86.83273089456559,133.10213141330613L86.9399648938179,147.39693818978253L87.28847539138793,129.06999162989405L87.31528389120102,120.3204880949166L87.55656038951874,103.98659159841581L87.79783688783645,112.85006161211366L87.86485813736915,127.91140519457849L87.93187938690185,110.57661364708778L88.03911338615418,94.30666523691201L88.10613463568687,99.3212397258993L88.44124088335037,104.24342187478337L88.76294288110734,97.7464017447781L88.87017688035965,102.0903244882978L88.95060237979888,135.08449737673715L89.04443212914467,115.72564139705625L89.51358087587356,100.77333823951534L89.56719787549973,127.5801321955368L89.62081487512589,106.88689226537069L89.75485737419127,120.35864441796922L89.78166587400436,130.63585892107477L90.04975087213515,121.58301591284828L90.29102737045288,98.54018836006229L90.37145286989212,90.79559156202612L90.76017611718179,94.76981314436244L90.90762286615372,125.69406317003433L91.16230361437798,125.86738942075759L91.2427291138172,94.4134897613823L91.33655886316299,110.05458374542746L91.88613310933113,90.89500229315718L92.42230310559273,137.66850090719564L92.43570735549926,113.03271276734806L92.75740935325622,101.08447043331874L93.28017509961128,128.72629640823504L93.33379209923744,106.67183459569567L93.34719634914399,74.78949181924573L93.3874090988636,131.4724725492153L93.41421759867667,126.88173638788416L93.5884728474617,120.16373579108063L93.74932384634019,123.71640084659963L93.77613234615326,122.92097495923264L93.92357909512519,137.43733059333L94.09783434391021,98.78296537927791L94.25868534278871,134.0916504102944L94.33911084222794,121.75909350465521L94.44634484148025,97.22494847148862L94.54017459082604,122.17451305809726L94.5937915904522,115.46666112062032L94.60719584035873,93.00753799252894L94.64740859007834,106.0993249989433L94.80825958895684,112.36943362747894L95.21038708615303,90.26430265623992L95.22379133605958,97.84274810799559L95.49187633419038,113.68652696438741L95.63932308316231,141.18372630635147L95.75996133232117,108.25293311341446L96.08166333007813,121.06455286953897L96.28272707867623,121.65572051286176L96.49719507718086,116.14716497368094L96.55081207680703,143.02284954492026L96.64464182615279,103.77472185987666L96.84570557475091,102.19620993227845L96.88591832447052,119.34185913658885L96.9127268242836,113.5200131659881L97.046769323349,123.02955408145988L97.56953506970406,134.55823337532533L98.30676881456375,122.7689427704893L98.40059856390953,135.36073531655722L98.53464106297493,131.37906699068904L98.65527931213379,177.96230295499817L98.6954920618534,122.89754737228066L98.86974731063843,118.34210910479244L100.0359170525074,112.36931006425661L100.71953379774094,133.23168333313524L101.32272504353523,121.15561072684113L102.12698003792764,132.81461627006226L102.70336278390884,107.14237158384088L102.8240010330677,93.86183763655765L103.07868178129196,99.52020946402817L103.14570303082466,106.30154033104513L103.41378802895545,141.9704286302226L103.94995802521706,111.78266483487076L104.35208552241325,88.99743365043071L104.56655352091789,107.3559382572999L104.8346385190487,106.27303841442983L104.91506401848793,120.63040113159312L105.34400001549722,118.86326582634834L105.38421276521683,105.2264002585368L105.55846801400185,118.5165803747092L105.71931901288032,131.1783097046106L105.93378701138496,118.94549303202866L106.06782951045037,105.40452899983426L106.51016975736617,137.36589457573234L106.7514462556839,124.03190717847319L106.91229725456238,114.14232697888384L107.03293550372123,120.70404481209623L107.18038225269318,137.28593269579457L107.22059500241281,125.69387370642677L107.40825450110435,114.28333732819618L107.48868000054358,114.01764345001415L107.8237862482071,127.98760251500956L108.15889249587059,99.24482822921621L108.61463699269295,107.1908413171832L108.72187099194527,121.10582298579406L108.92293474054337,139.37140804947813L109.13740273904801,136.16827039971162L109.23123248839377,115.20562969469385L109.3384664876461,98.1344726383465L109.57974298596382,117.10285236039782L109.74059398484229,129.05504047999324L109.99527473306655,122.62875617599245L110.18293423175811,166.99577042230644L110.42421073007583,90.1427164454764L110.45101922988891,105.07309948737765L110.62527447867394,127.84944235735875L110.70569997811317,103.21537586507552L110.77272122764587,84.64268676863571L110.81293397736549,140.62270808927494L110.8799552268982,99.81051713609648L111.85846547007561,107.24410530355155L111.96569946932793,129.27508186630186L112.31420996689796,112.57278574122611L112.55548646521568,152.9587577153317L112.71633746409415,115.05650536044914L112.7297417140007,95.59895531632665L112.76995446372032,126.49562603077658L112.89059271287917,135.61169222109046L113.01123096203804,102.80669462602404L113.05144371175767,133.49815977839197L113.23910321044922,121.66834867418292L113.30612445998193,104.02743336216687L113.35974145960807,129.3744925974329L113.76186895680428,116.44272820147195L113.98974120521547,135.66639777838589L114.19080495381355,136.4829200265771L114.31144320297241,143.30834648886622L114.9146344487667,123.55038953863775L115.11569819736481,123.71282575070049L115.38378319549561,93.84928361316986L115.53122994446754,111.1023504454177L115.57144269418716,135.9484267145587L115.8529319422245,117.76238341585655L116.08080419063567,129.59036578437525L116.61697418689728,108.36528503269656L116.64378268671035,145.36385364236293L116.7242081861496,146.31145175679188L116.9922931842804,119.27133748683639L117.05931443381309,133.66284484110093L117.58208018016815,122.52664352906666L117.60888867998122,125.96908195272749L117.64910142970086,141.01514488336534L117.7965481786728,123.71972057850599L117.89037792801857,126.05294019294244L118.39973942446709,116.98447055586647L118.61420742297173,129.55334624296796L119.1101646695137,112.16385737572998L119.12356891942025,127.36146647977003L119.4452709171772,119.22255472666419L119.45867516708374,103.83918891173542L119.55250491642953,149.27330338355875L119.80718566465379,133.53443794046532L119.90101541399956,129.6612910739873L120.20931316184998,129.33152554625792L120.30314291119575,139.81342664591173L121.12080215549469,147.55810581942944L121.26824890446662,135.84007000613167L121.75080190110207,136.8671357476091L122.07250389885901,117.48377306216793L122.23335489773751,139.22905497981657L122.40761014652253,124.81724206935066L122.67569514465332,126.96924386193164L122.86335464334488,117.11469795464429L123.01080139231681,128.62803069629751L123.21186514091492,108.71665764923573L123.29229064035415,139.80147396353925L123.46654588913918,130.50870412775865L123.60058838820459,133.8598705178653L124.32441788315774,128.36421497909475L124.41824763250351,127.26815977182162L124.56569438147545,130.61810700480137L124.579098631382,126.92994251968553L124.61931138110161,114.90309750116397L124.95441762876511,123.08038799112259L125.00803462839126,135.40240083512373L125.03484312820434,133.13772585888262L125.19569412708283,119.79673654569197L125.43697062540053,119.13529437906135L125.51739612483978,142.96503019442235L125.78548112297058,135.3361132851228L125.86590662240981,144.83414634582243L126.01335337138177,132.61252450118275L126.093778870821,134.23215826916928L126.14739587044717,118.79221697351397L126.30824686932564,142.48107424033313L126.46909786820412,147.22019335657507L126.58973611736297,126.71139212959291L127.28675711250305,121.62382472640672L127.3671826119423,118.56417692794712L127.58165061044693,157.6110860242156L127.59505486035347,117.48966290909854L127.91675685811043,118.19195507702838L128.49313960409165,114.48996798610894L128.5199481039047,131.46916105485712L128.86845860147477,139.67580192889096L128.8818628513813,117.38073780984881L128.90867135119439,120.3598306249035L128.92207560110091,125.70335512435284L128.9756926007271,99.25558646710627L129.25718184876442,104.02547282570605L129.37782009792326,123.43045907505332L129.73973484539985,140.22774236790104L130.20888359212876,141.24291308984306L130.3965430908203,131.7794777313932L130.57079833960532,135.02849852438143L131.01313858652117,136.65425279064692L131.37505333399773,121.84240806669196L131.79058508110046,132.13034785749494L132.23292532801628,103.37912184729485L132.32675507736207,178.36831522844753L132.36696782708168,116.44444161148813L132.59484007549287,106.84904896914796L132.70207407474518,127.08968505350167L132.79590382409097,139.5053505824737L133.11760582184792,113.65591623544451L133.6135630683899,134.71580119642863L133.88164806652068,116.5212567480308L133.90845656633377,132.21157831984854L134.17654156446454,129.08467917825388L134.44462656259535,128.99577955856824L134.45803081250193,142.23905507554772L134.5518605618477,99.24762899558881L134.67249881100653,117.16902458472461L134.7261158106327,124.60796715848024L134.87356255960464,103.79681496402759L135.3963283059597,112.32534626975493L135.7716473033428,93.44740658889417L135.94590255212785,130.06417307913787L136.01292380166052,128.75529257773962L136.65632779717447,120.15475686359198L136.84398729586601,153.66532517075382L136.88420004558566,126.035558966336L137.15228504371643,136.30820163021568L137.2327105431557,138.1798384713511L137.25951904296875,145.08559750324497L137.29973179268836,131.14348958856064L137.52760404109955,129.85015334053034L137.55441254091264,130.8197951338213L138.0905825371742,138.67261683951403L138.10398678708077,125.58578883708881L138.73398653268814,147.93183514166049L139.20313527941704,135.1769638547738L139.3237735285759,120.19984920219088L139.41760327792167,113.79345033943555L139.524837277174,108.06878272441591L139.68568827605247,140.2818053964404L140.0341987736225,128.2134431352191L140.1012200231552,133.71727855930726L140.2620710220337,143.80446106403178L140.38270927119254,108.57061415800086L140.81164526820183,145.16008141365987L141.25398551511765,133.79518105220637L141.28079401493073,94.08611312261779L141.36121951436996,136.6750114119968L141.9510065102577,98.88041557394814L142.08504900932311,138.88182584999922L142.23249575829504,117.18511251627075L142.4067510070801,112.02615852077585L142.54079350614546,100.36356964410743L142.68824025511742,127.35222395074044L142.74185725474356,150.49499767528755L142.86249550390244,140.85393606597765L142.96972950315475,113.47483021435951L143.1439847519398,159.54101175609378L143.88121849679945,112.94706697918353L143.94823974633218,130.18709377270247L143.9616439962387,128.997682432192L144.26994174408912,121.36605536954951L144.3235587437153,132.72647450480684L144.57823949193954,150.36976223069146L144.92674998950957,132.18217851048436L145.1010052382946,89.40912983210683L145.18143073773385,125.72607428216354L145.19483498764038,127.03937834692086L145.24845198726652,108.1236777453189L146.95079172539712,134.0145634346626L147.00440872502327,121.12918467236082L147.54057872128487,152.63017015698847L147.5807914710045,123.54502689478903L147.6880254702568,127.69186629870731L147.92930196857452,119.86355953632298L147.96951471829416,152.74412016061257L148.10355721735954,140.5717670914862L148.17057846689224,124.7495376610671L148.22419546651838,113.02307483600704L148.3582379655838,131.81319401599043L148.41185496520995,135.47608570336763L148.5190889644623,128.9432981392746L148.76036546278,124.53306313310947L148.77376971268654,127.03759079897128L149.28313120913504,127.12701762173882L149.44398220801352,140.57448548237727L149.4707907078266,136.66862731217688L149.56462045717237,134.56881862470414L149.6986629562378,146.39825903924623L149.71206720614433,132.81105764925942L149.84610970520973,143.51145147616876L149.88632245492937,121.97130098266871L150.10079045343397,141.2483828218178L150.28844995212555,140.6245697751579L150.4358967010975,137.72822313131726L150.7039816992283,136.13817863630246L150.78440719866754,145.48864425935864L151.25355594539644,136.21161637810172L151.4814281938076,119.74402447504997L151.49483244371416,110.02558757592288L151.60206644296647,145.62118640916793L151.92376844072342,180.16926978764144L151.93717269062995,140.3577391153305L151.95057694053648,124.55065853596793L151.97738544034956,123.64189222354028L152.3527044377327,136.56876351589733L152.39291718745233,130.73125796625447L152.59398093605043,154.11836560661843L153.23738493156432,122.19588125801057L153.3312146809101,137.24972867165462L153.43844868016242,138.13170647748314L153.51887417960168,122.39574065134016L153.67972517848017,105.13759948942902L153.6931294283867,148.42921006169374L154.1354696753025,133.88179063350498L154.3365334239006,135.3459159674269L154.39015042352676,110.40206823923762L154.43036317324638,121.34277605846431L154.65823542165757,94.65330126326222L154.81908642053605,139.988243892851L154.83249067044258,136.91770605573086L155.24802241754531,132.32749709748163L155.47589466595647,91.66231342867212L155.48929891586303,143.85943022286818L155.51610741567612,138.5943930822369L155.5697244153023,157.5576325742397L155.6099371650219,145.32503831545793L155.94504341268538,111.37965926649787L155.985256162405,119.65032236479014L156.77610690689087,124.8100671649079L156.96376640558245,132.50390419121473L157.00397915530206,139.67980537729417L157.36589390277862,118.34250450710387L157.4597236521244,134.28983758134856L157.49993640184402,149.34178212136885L157.54014915156364,144.16707793380215L158.03610639810563,132.4880139608243L158.08972339773177,127.76914273794664L158.10312764763833,111.5615937550428L158.11653189754486,125.04323920297513L158.1969573969841,146.39695750663776L158.42482964539528,131.85529612460917L158.50525514483454,120.07693674617444L158.69291464352608,145.99437205322076L159.26929738950727,144.7408066876814L159.34972288894653,112.90231238005899L159.6312121369839,134.55427111466292L160.46227563118936,125.08501180966766L160.47567988109589,131.44837772086277L161.02525412726402,100.23700795425844L161.1190838766098,121.08188467085648L161.34695612502097,149.4631459183322L161.57482837343215,158.36421210180816L161.66865812277794,164.16861094541724L161.695466622591,111.26980332430665L162.53993436670302,125.88556145198689L162.58014711642267,137.1686629602641L162.75440236520765,132.09562659202282L162.84823211455347,144.45512851767606L163.41121061062813,144.65347220214517L163.82674235773086,137.36890951835696L164.0814231059551,118.92917444913418L164.20206135511398,137.4307076046136L164.83206110072135,113.09108403357233L164.8454653506279,124.83877502022708L164.872273850441,143.554912780233L164.92589085006713,120.25794039177788L165.36823109698295,134.24902876779012L165.50227359604835,142.18528859874192L166.17248609137536,152.56959946540687L166.30652859044073,144.81695458282354L166.57461358857154,135.84094318623605L166.64163483810427,140.6098904643462L166.77567733716964,133.51985748023148L167.01695383548736,163.6279641849273L167.05716658520697,131.81475091259168L167.405677082777,137.9384618353218L168.26354907679558,125.20970357608552L168.35737882614137,116.43976268413626L168.8667403225899,128.6003525344977L169.0141870715618,135.60969873443702L169.0409955713749,140.7748803163369L169.63078256726266,99.40989221914029L169.79163356614112,127.63557089461801L170.07312281417845,116.72277188853948L170.38142056202886,146.52290138037515L170.5154630610943,112.72777520975698L170.86397355866433,142.24769626356203L171.14546280670166,147.3235498732722L171.8692923016548,147.50953723550927L172.48588779735564,124.20032385049625L172.49929204726217,139.97352339429852L172.5663132967949,121.6314115082572L172.66014304614066,142.08926349990247L172.67354729604722,172.217321546229L172.91482379436493,119.99277371667776L173.5180150401592,126.35662564321399L173.7726957883835,135.18428703508332L173.86652553772925,137.77600914816276L173.9469510371685,141.66914854401224L173.9737595369816,146.9208573317292L174.32227003455162,142.68494531961403L174.46971678352358,140.8758808942618L174.76461028146744,126.50215840646327L174.9254612803459,135.1672105977586L174.97907827997207,155.1497725359734L175.03269527959824,138.41226089253627L175.11312077903747,111.67979433351474L175.20695052838323,143.42680243133094L175.2203547782898,134.33099237192948L175.38120577716828,133.45726035180382L175.622482275486,128.64149908753046L176.44014151978493,137.09398958624166L176.61439676856995,111.6957175140978L176.6278010184765,137.29342886461535L176.8958860166073,130.25077825748653L177.0701412653923,138.99638543218677L177.6063112616539,134.38447053454988L177.64652401137351,153.34636730620343L177.67333251118657,129.6950485463253L177.99503450894358,135.74314701454333L178.12907700800895,148.45688822349356L178.22290675735474,111.60334164909088L178.31673650670052,128.5747914225736L178.37035350632667,164.103105962491L178.39716200613975,136.89828191718206L178.73226825380326,146.88672093217608L178.93333200240136,155.07320452587535L179.0807787513733,147.88834088740361L179.24162975025178,143.37214629932444L179.2550340001583,139.21865919404533L179.64375724744798,127.00803447619218L179.83141674613952,126.12023272381828L179.93865074539184,126.38378483948007L180.38099099230766,170.50790674090428L180.80992698931695,143.06041276450574L180.85013973903656,139.90743354545327L181.4399267349243,141.75974509861774L181.52035223436357,141.34744757592634L181.74822448277476,127.57081552857383L182.05652223062515,131.73614822809944L182.2441817293167,123.83112517975027L182.32460722875595,139.22591647396962L182.40503272819518,153.43910562332917L182.4452454779148,115.47462682968592L182.72673472595216,134.45126057498825L183.1422664730549,136.99625931493418L183.16907497286797,114.9340130193886L183.22269197249412,139.5964743401611L183.39694722127916,133.15521417361506L183.50418122053145,144.5427018921088L183.54439397025106,141.39886635150805L183.81247896838187,170.41292781068046L183.93311721754074,128.09162627310724L184.01354271697997,144.39434364984245L184.49609571361543,143.91505838555693L184.50949996352196,147.72643187842277L184.80439346146585,128.92186403897603L184.9920529601574,145.1616547853574L185.00545721006395,147.91910812976147L185.21992520856855,146.91427553075357L185.28694645810128,136.58252845886386L185.83652070426942,132.2737882835129L185.95715895342826,134.03067607885322L186.22524395155907,158.90447169753483L186.35928645062447,113.0263945679134L186.4397119500637,158.11010021633166L186.5067331995964,177.22031816128487L186.61396719884874,146.25758642940824L186.78822244763373,136.34736293414318L187.28417969417572,147.4209341675572L187.40481794333456,137.9672932538633L187.45843494296074,126.18771471830166L187.48524344277382,133.33244502216365L187.84715819025038,143.39917369482004L187.94098793959617,128.6372732253271L188.41013668632507,142.6090939762055L188.74524293398855,135.0754278362188L188.7854556837082,119.00713460487036L188.8926896829605,162.99970286226383L189.10715768146517,134.9769973733182L189.227795930624,160.3348642717632L189.64332767772675,130.1164403221795L189.67013617753983,129.8230929948421L189.72375317716597,165.36299776501315L189.8041786766052,149.09074284135406L189.8309871764183,114.7744269989874L190.08566792464256,138.57636108932624L190.21971042370797,139.54674426195112L190.3403486728668,154.73677482168884L190.40736992239954,134.5109498489173L190.5011996717453,140.94342878913042L190.87651866912842,140.77175004803811L190.95694416856767,122.97564756633545L191.238433416605,117.82219625300789L191.25183766651153,152.50232340962737L191.2652419164181,133.9265122824369L191.61375241398812,140.13058048741624L191.84162466239928,131.17031104535238L191.86843316221237,126.74026473587517L192.45822015810012,143.77234286377657L192.65928390669822,159.20332994458772L192.8871561551094,130.91507885332683L193.51715590071677,133.31986628613143L194.0667301468849,147.3412853144493L194.21417689585687,137.15163594822832L194.5626873934269,147.4126554316617L194.65651714277266,126.90223964524124L194.80396389174462,156.7527335064948L194.95141064071655,133.8949377603599L195.2060913889408,113.7874781170234L195.9433251338005,155.71271010177L196.06396338295934,120.5313858027735L196.31864413118362,129.565488388948L196.81460137772558,141.25870446965564L197.3507713739872,128.05507627194478L197.53843087267876,149.37293652849L197.5920478723049,158.35550501340862L197.64566487193107,138.73347584528105L197.8199201207161,132.65490668643872L198.11481361865998,151.23182988263005L198.49013261604307,146.57023433207212L198.57055811548233,139.9126314383389L198.61077086520194,139.11575574249667L198.9994941124916,125.94123903996457L199.16034511137008,142.76859762112514L199.18715361118316,129.7664021884414L199.2407706108093,146.73256345600882L199.34800461006165,139.84656630213811L199.3614088599682,140.69028069678802L199.41502585959435,132.45247717808488L199.45523860931397,131.99291260408174L199.5088556089401,148.08933706237855L199.75013210725783,169.01812968202861L200.04502560520172,116.93307649292923L200.09864260482786,112.22968362303428L200.56779135155676,141.3963127115801L201.3854505958557,138.33705207788375L201.6803440937996,159.3847866553397L201.90821634221078,146.21637397599022L202.00204609155654,147.5408481560453L202.21651409006117,158.36413796387475L202.36396083903313,139.88492032634645L202.81970533585547,111.27028933964777L202.94034358501435,136.24796867810844L203.35587533211708,152.07612090565078L203.54353483080862,152.73918586926789L204.0663005771637,151.1831871607765L204.25396007585528,156.70998886912L204.4684280743599,149.95472160446454L204.96438532090187,139.59219905266883L205.31289581847193,128.31920501597742L205.35310856819154,146.05612895173664L205.46034256744383,156.61849442176563L205.86247006464006,140.16649619737075L205.9831083137989,144.0429133704662L205.99651256370544,150.06822678048832L206.23778906202315,145.05517623790962L206.3450230612755,150.59634423023493L206.5862995595932,153.02660216193388L206.74715055847167,135.08615312391626L206.80076755809785,136.15151522676496L207.21629930520058,143.3059658374495L207.47098005342485,147.67158628280873L207.4977885532379,160.63354953030483L207.524597053051,155.37113192998677L207.53800130295753,149.55533231973158L207.71225655174257,149.01545988876816L208.46289454650878,155.4435152656222L208.73097954463958,168.7820992147517L209.02587304258344,126.47609480410176L209.30736229062083,153.38908723093377L209.88374503660202,154.39214051954022L210.09821303510665,145.98470940923528L210.29927678370476,113.71693175462644L210.4467235326767,158.89812054790755L210.63438303136823,149.12228441323845L211.049914778471,122.89842055238505L211.18395727753636,138.39553043223404L211.30459552669527,153.74655563310742L211.65310602426527,144.01022677938832L212.04182927155495,143.10298441336928L212.18927602052688,138.24219671088227L212.64502051734925,151.99568124792006L212.68523326706887,160.59300431828737L212.85948851585388,137.86483462991498L212.9399140152931,142.48339722891274L213.08736076426504,166.7654897636415L213.1275735139847,122.47388203313574L213.35544576239585,146.77058797829096L213.4358712618351,142.9402681246693L213.44927551174163,139.2298540219876L213.69055201005938,128.03223355091177L213.79778600931166,157.7515609328979L213.94523275828362,124.11261043774489L213.99884975790977,155.32138537668047L214.09267950725555,143.81446968503977L214.1731050066948,159.46016845850343L214.33395600557327,176.69101450460394L214.48140275454523,149.69775128977835L214.56182825398446,128.85836078025136L214.575232503891,157.79581304158498L215.03097700071336,121.1059630241127L215.12480675005912,136.88407214661518L215.60735974669458,143.02927483248095L216.14352974295616,148.33670239591635L216.25076374220848,149.11566142452207L216.31778499174118,127.3265475131422L216.41161474108696,146.51388126514573L216.4920402405262,154.3253751917463L216.57246573996542,134.07632857072662L216.5992742397785,128.12639696386827L216.77352948856353,140.98253243022083L216.92097623753548,150.84861914247296L216.934380487442,146.26687014617858L217.0014017369747,120.26133426161763L217.2962952349186,144.88628178809358L217.30969948482513,145.35980900621897L217.41693348407748,145.80513909701077L218.19437997865677,153.85981368268654L218.22118847846983,136.292138411314L218.54289047622683,147.47903359469237L218.7439542248249,137.24654074051875L218.75735847473143,157.382205748737L218.91820947360992,176.32704255816213L219.3069327208996,155.48815453907258L219.92352821660043,142.88970605409568L220.2184217145443,162.43957430038802L220.9288469595909,139.34652241650275L221.2505489573479,130.571976735135L221.4382084560394,136.67874302131088L221.5588467051983,155.77527428000502L221.7599104537964,135.81870180621834L221.98778270220754,142.52901677059353L222.09501670145988,161.31773556739063L222.4301229491234,146.29232416997664L222.55076119828226,152.7972605837586L222.97969719529152,148.15987518722733L223.15395244407654,122.75815158240664L223.2075694437027,139.1227741335245L223.62310119080541,137.2104273294085L223.69012244033814,140.95031537938775L223.77054793977737,135.33955658025144L223.91799468874933,126.92675458854966L223.97161168837548,149.31050415102544L224.36033493566512,155.10894724731867L224.7490581829548,163.08169941659582L225.2316111795902,154.21654070552626L225.44607917809486,146.99732649124937L225.8616109251976,161.6553020532225L226.29054692220686,139.5853618877004L226.45139792108537,149.1087583591684L226.58544042015075,127.91788814497625L226.63905741977692,135.07374737639526L226.78650416874885,151.25677317844253L226.82671691846846,153.25454335692288L227.02778066706657,146.66309621242016L227.33607841491698,157.94663431074957L227.45671666407586,139.50108353252958L227.6443761627674,135.33692056484193L227.6711846625805,136.6474156256785L227.75161016201974,136.30267423540388L228.91777990388871,149.1019047191037L229.23948190164566,150.43408924423161L229.4539499001503,134.9833402853973L229.64160939884187,141.12722496355832L229.8292688975334,130.14890449945722L229.94990714669228,164.46944620402726L230.33863039398193,142.65384857533002L230.47267289304733,150.2561334914454L230.59331114220618,153.85688935309162L230.80777914071084,154.60099531545475L230.88820464015006,140.41646459612545L231.08926838874817,133.69629752415722L231.1696938881874,135.72077383375515L231.18309813809392,150.55158139356223L231.54501288557054,143.43611909829391L231.5718213853836,108.09860264873596L231.67905538463592,154.1564889794784L232.0677786319256,151.55177625295903L233.15352287435533,151.45552874031938L233.46182062220575,109.02032662441097L233.52884187173842,134.42074045907506L233.93096936893465,131.8643491900312L234.35990536594392,141.99729127475513L234.5207563648224,149.53040549901542L234.65479886388778,140.62477571386177L235.01671361136437,141.18935255174114L235.1641603603363,148.64776045178635L235.47245810818671,137.44780051703464L235.5662878575325,134.23221593200637L235.60650060725212,157.2544084266648L235.71373460650443,131.60814496732337L235.78075585603713,152.86821882356327L235.88798985528948,140.15368680999018L235.9684153547287,132.21448617434714L236.11586210370064,179.58770712546706L236.67884059977533,142.71682463097278L236.70564909958838,147.11816308513082L237.32224459528922,122.0771781891012" fill="none"></path></g></g></g></g></g></g><g transform="translate(61, 176)" clip-path="url(#clip_1)"><clipPath id="clip_1"><rect width="268" height="23"></rect></clipPath><g><g><line x1="0" y1="0" x2="0" y2="5" style="visibility: inherit;" fill="rgb(0, 0, 0)" stroke="rgb(204, 204, 204)" stroke-width="1px"></line><line x1="26.808499813079834" y1="0" x2="26.808499813079834" y2="5" style="visibility: inherit;" fill="rgb(0, 0, 0)" stroke="rgb(204, 204, 204)" stroke-width="1px"></line><line x1="53.61699962615967" y1="0" x2="53.61699962615967" y2="5" style="visibility: inherit;" fill="rgb(0, 0, 0)" stroke="rgb(204, 204, 204)" stroke-width="1px"></line><line x1="80.4254994392395" y1="0" x2="80.4254994392395" y2="5" style="visibility: inherit;" fill="rgb(0, 0, 0)" stroke="rgb(204, 204, 204)" stroke-width="1px"></line><line x1="107.23399925231934" y1="0" x2="107.23399925231934" y2="5" style="visibility: inherit;" fill="rgb(0, 0, 0)" stroke="rgb(204, 204, 204)" stroke-width="1px"></line><line x1="134.04249906539917" y1="0" x2="134.04249906539917" y2="5" style="visibility: inherit;" fill="rgb(0, 0, 0)" stroke="rgb(204, 204, 204)" stroke-width="1px"></line><line x1="160.850998878479" y1="0" x2="160.850998878479" y2="5" style="visibility: inherit;" fill="rgb(0, 0, 0)" stroke="rgb(204, 204, 204)" stroke-width="1px"></line><line x1="187.65949869155884" y1="0" x2="187.65949869155884" y2="5" style="visibility: inherit;" fill="rgb(0, 0, 0)" stroke="rgb(204, 204, 204)" stroke-width="1px"></line><line x1="214.46799850463867" y1="0" x2="214.46799850463867" y2="5" style="visibility: inherit;" fill="rgb(0, 0, 0)" stroke="rgb(204, 204, 204)" stroke-width="1px"></line><line x1="241.2764983177185" y1="0" x2="241.2764983177185" y2="5" style="visibility: inherit;" fill="rgb(0, 0, 0)" stroke="rgb(204, 204, 204)" stroke-width="1px"></line><line x1="268.08499813079834" y1="0" x2="268.08499813079834" y2="5" style="visibility: inherit;" fill="rgb(0, 0, 0)" stroke="rgb(204, 204, 204)" stroke-width="1px"></line></g><g transform="translate(0, 8)"><text style="text-anchor: middle; visibility: hidden; font-family: Roboto, sans-serif; font-size: 12px; font-weight: 200;" x="0" y="0" dx="0em" dy="0.95em" fill="rgb(33, 33, 33)" stroke="none" stroke-width="1px">-2k</text><text style="text-anchor: middle; visibility: inherit; font-family: Roboto, sans-serif; font-size: 12px; font-weight: 200;" x="26.808499813079834" y="0" dx="0em" dy="0.95em" fill="rgb(33, 33, 33)" stroke="none" stroke-width="1px">0</text><text style="text-anchor: middle; visibility: inherit; font-family: Roboto, sans-serif; font-size: 12px; font-weight: 200;" x="53.61699962615967" y="0" dx="0em" dy="0.95em" fill="rgb(33, 33, 33)" stroke="none" stroke-width="1px">2k</text><text style="text-anchor: middle; visibility: inherit; font-family: Roboto, sans-serif; font-size: 12px; font-weight: 200;" x="80.4254994392395" y="0" dx="0em" dy="0.95em" fill="rgb(33, 33, 33)" stroke="none" stroke-width="1px">4k</text><text style="text-anchor: middle; visibility: inherit; font-family: Roboto, sans-serif; font-size: 12px; font-weight: 200;" x="107.23399925231934" y="0" dx="0em" dy="0.95em" fill="rgb(33, 33, 33)" stroke="none" stroke-width="1px">6k</text><text style="text-anchor: middle; visibility: inherit; font-family: Roboto, sans-serif; font-size: 12px; font-weight: 200;" x="134.04249906539917" y="0" dx="0em" dy="0.95em" fill="rgb(33, 33, 33)" stroke="none" stroke-width="1px">8k</text><text style="text-anchor: middle; visibility: inherit; font-family: Roboto, sans-serif; font-size: 12px; font-weight: 200;" x="160.850998878479" y="0" dx="0em" dy="0.95em" fill="rgb(33, 33, 33)" stroke="none" stroke-width="1px">10k</text><text style="text-anchor: middle; visibility: inherit; font-family: Roboto, sans-serif; font-size: 12px; font-weight: 200;" x="187.65949869155884" y="0" dx="0em" dy="0.95em" fill="rgb(33, 33, 33)" stroke="none" stroke-width="1px">12k</text><text style="text-anchor: middle; visibility: inherit; font-family: Roboto, sans-serif; font-size: 12px; font-weight: 200;" x="214.46799850463867" y="0" dx="0em" dy="0.95em" fill="rgb(33, 33, 33)" stroke="none" stroke-width="1px">14k</text><text style="text-anchor: middle; visibility: inherit; font-family: Roboto, sans-serif; font-size: 12px; font-weight: 200;" x="241.2764983177185" y="0" dx="0em" dy="0.95em" fill="rgb(33, 33, 33)" stroke="none" stroke-width="1px">16k</text><text style="text-anchor: middle; visibility: hidden; font-family: Roboto, sans-serif; font-size: 12px; font-weight: 200;" x="268.08499813079834" y="0" dx="0em" dy="0.95em" fill="rgb(33, 33, 33)" stroke="none" stroke-width="1px">18k</text></g><line x1="0" y1="0" x2="268.08499813079834" y2="0" fill="rgb(0, 0, 0)" stroke="rgb(204, 204, 204)" stroke-width="1px"></line></g></g></g></g></svg>